<svg width="95" height="96" viewBox="0 0 95 96" fill="none" xmlns="http://www.w3.org/2000/svg">
<path d="M32.6163 4.42791C16.7721 4.42791 3.92791 17.2721 3.92791 33.1163V62.8837C3.92791 78.7278 16.7721 91.5721 32.6163 91.5721H62.3837C78.2278 91.5721 91.0721 78.7278 91.0721 62.8837V33.1163C91.0721 17.2721 78.2278 4.42791 62.3837 4.42791H32.6163Z" fill="white" stroke="white" stroke-width="7.14419"/>
<path fill-rule="evenodd" clip-rule="evenodd" d="M7.5 33.1163C7.5 19.2449 18.7449 8 32.6163 8H62.3837C76.255 8 87.5 19.2449 87.5 33.1163V62.8837C87.5 76.755 76.255 88 62.3837 88H32.6163C18.7449 88 7.5 76.755 7.5 62.8837V33.1163ZM22.3837 44.2791C22.3837 38.6278 26.965 34.0465 32.6163 34.0465H43.7791C49.1272 34.0465 53.5164 38.149 53.9726 43.3782L64.5787 35.4236C67.8903 32.9402 72.6159 35.3028 72.6159 39.4423V56.5585C72.6159 60.6973 67.8907 63.0612 64.5787 60.5771L53.9726 52.6225C53.516 57.8515 49.1268 61.9535 43.7791 61.9535H32.6163C26.965 61.9535 22.3837 57.3723 22.3837 51.7209V44.2791Z" fill="#3B82F6"/>
</svg>
