<svg width="81" height="80" viewBox="0 0 81 80" fill="none" xmlns="http://www.w3.org/2000/svg">
<g clip-path="url(#clip0_326_4767)">
<mask id="path-1-outside-1_326_4767" maskUnits="userSpaceOnUse" x="0.166687" y="1.33331" width="81" height="77" fill="black">
<rect fill="white" x="0.166687" y="1.33331" width="81" height="77"/>
<path d="M29.1246 27.4532L37.783 10.0125C38.8944 7.77358 42.1057 7.77358 43.217 10.0125L51.8754 27.4532L71.2383 30.2672C73.7227 30.6282 74.7127 33.6646 72.9144 35.4063L58.9057 48.9726L62.2117 68.138C62.6364 70.5993 60.038 72.476 57.815 71.3136L40.5 62.26L23.1849 71.3136C20.962 72.476 18.3637 70.5993 18.7882 68.138L22.0942 48.9726L8.08586 35.4063C6.28726 33.6646 7.27743 30.6282 9.76176 30.2672L29.1246 27.4532Z"/>
</mask>
<path d="M29.1246 27.4532L37.783 10.0125C38.8944 7.77358 42.1057 7.77358 43.217 10.0125L51.8754 27.4532L71.2383 30.2672C73.7227 30.6282 74.7127 33.6646 72.9144 35.4063L58.9057 48.9726L62.2117 68.138C62.6364 70.5993 60.038 72.476 57.815 71.3136L40.5 62.26L23.1849 71.3136C20.962 72.476 18.3637 70.5993 18.7882 68.138L22.0942 48.9726L8.08586 35.4063C6.28726 33.6646 7.27743 30.6282 9.76176 30.2672L29.1246 27.4532Z" fill="#FDE047"/>
<path d="M29.1246 27.4532L30.045 33.7867C32.1243 33.4845 33.9228 32.181 34.857 30.2991L29.1246 27.4532ZM37.783 10.0125L43.5155 12.8584L43.5157 12.858L37.783 10.0125ZM43.217 10.0125L37.4844 12.858L37.4846 12.8584L43.217 10.0125ZM51.8754 27.4532L46.1429 30.2991C47.0772 32.181 48.8757 33.4845 50.9549 33.7867L51.8754 27.4532ZM71.2383 30.2672L70.3179 36.6007L70.3179 36.6007L71.2383 30.2672ZM72.9144 35.4063L77.3667 40.0038L77.3668 40.0036L72.9144 35.4063ZM58.9057 48.9726L54.4534 44.3752C52.9333 45.8472 52.2391 47.9754 52.5988 50.0606L58.9057 48.9726ZM62.2117 68.138L55.9048 69.2259L55.9049 69.2261L62.2117 68.138ZM57.815 71.3136L54.8495 76.9851L54.8496 76.9852L57.815 71.3136ZM40.5 62.26L43.4655 56.5885C41.6078 55.6171 39.3922 55.6171 37.5345 56.5885L40.5 62.26ZM23.1849 71.3136L20.2194 65.6422L20.2194 65.6422L23.1849 71.3136ZM18.7882 68.138L12.4813 67.0501L12.4813 67.0502L18.7882 68.138ZM22.0942 48.9726L28.401 50.0606C28.7607 47.9754 28.0666 45.8472 26.5466 44.3752L22.0942 48.9726ZM8.08586 35.4063L12.5382 30.8089L12.538 30.8086L8.08586 35.4063ZM9.76176 30.2672L10.6822 36.6007L10.6822 36.6007L9.76176 30.2672ZM34.857 30.2991L43.5155 12.8584L32.0506 7.16664L23.3921 24.6073L34.857 30.2991ZM43.5157 12.858C42.2745 15.3584 38.7255 15.3584 37.4844 12.858L48.9497 7.16702C45.4859 0.188745 35.5142 0.188745 32.0504 7.16702L43.5157 12.858ZM37.4846 12.8584L46.1429 30.2991L57.6078 24.6074L48.9495 7.16666L37.4846 12.8584ZM50.9549 33.7867L70.3179 36.6007L72.1588 23.9337L52.7958 21.1197L50.9549 33.7867ZM70.3179 36.6007C67.5949 36.205 66.4057 32.8004 68.4619 30.809L77.3668 40.0036C83.0197 34.5289 79.8505 25.0515 72.1588 23.9337L70.3179 36.6007ZM68.462 30.8088L54.4534 44.3752L63.358 53.5701L77.3667 40.0038L68.462 30.8088ZM52.5988 50.0606L55.9048 69.2259L68.5185 67.0501L65.2125 47.8847L52.5988 50.0606ZM55.9049 69.2261C55.4138 66.3801 58.3815 64.3878 60.7805 65.6421L54.8496 76.9852C61.6946 80.5642 69.8589 74.8185 68.5185 67.0498L55.9049 69.2261ZM60.7805 65.6422L43.4655 56.5885L37.5345 67.9315L54.8495 76.9851L60.7805 65.6422ZM37.5345 56.5885L20.2194 65.6422L26.1504 76.9851L43.4655 67.9315L37.5345 56.5885ZM20.2194 65.6422C22.6188 64.3875 25.5858 66.3804 25.0951 69.2258L12.4813 67.0502C11.1415 74.8183 19.3052 80.5644 26.1505 76.9851L20.2194 65.6422ZM25.095 69.2259L28.401 50.0606L15.7873 47.8847L12.4813 67.0501L25.095 69.2259ZM26.5466 44.3752L12.5382 30.8089L3.63349 40.0037L17.6418 53.5701L26.5466 44.3752ZM12.538 30.8086C14.595 32.8005 13.4046 36.2051 10.6822 36.6007L8.84135 23.9337C1.15028 25.0514 -2.02045 34.5288 3.63373 40.004L12.538 30.8086ZM10.6822 36.6007L30.045 33.7867L28.2041 21.1197L8.84132 23.9337L10.6822 36.6007Z" fill="#FEF9C3" mask="url(#path-1-outside-1_326_4767)"/>
</g>
<defs>
<clipPath id="clip0_326_4767">
<rect width="80" height="80" fill="white" transform="translate(0.5)"/>
</clipPath>
</defs>
</svg>
