<svg width="25" height="24" viewBox="0 0 25 24" fill="none" xmlns="http://www.w3.org/2000/svg">
<path fill-rule="evenodd" clip-rule="evenodd" d="M7.37114 19.4986C8.30085 20 9.41458 20 11.642 20H14.279C18.1544 20 20.0921 20 21.2961 18.8284C22.5 17.6569 22.5 15.7712 22.5 12C22.5 8.22876 22.5 6.34315 21.2961 5.17157C20.0921 4 18.1544 4 14.279 4H11.642C9.41458 4 8.30085 4 7.37114 4.50143C6.44144 5.00286 5.85117 5.92191 4.67061 7.76001L3.98981 8.82001C2.9966 10.3664 2.5 11.1396 2.5 12C2.5 12.8604 2.9966 13.6336 3.98981 15.18L4.67061 16.24C5.85117 18.0781 6.44144 18.9971 7.37114 19.4986ZM11.5303 8.96967C11.2374 8.67678 10.7625 8.67678 10.4696 8.96967C10.1768 9.26256 10.1768 9.73744 10.4696 10.0303L12.4393 12L10.4697 13.9697C10.1768 14.2626 10.1768 14.7374 10.4697 15.0303C10.7626 15.3232 11.2374 15.3232 11.5303 15.0303L13.5 13.0607L15.4696 15.0303C15.7625 15.3232 16.2374 15.3232 16.5303 15.0303C16.8232 14.7374 16.8232 14.2625 16.5303 13.9697L14.5606 12L16.5303 10.0304C16.8232 9.73746 16.8232 9.26258 16.5303 8.96969C16.2374 8.6768 15.7625 8.6768 15.4696 8.96969L13.5 10.9394L11.5303 8.96967Z" fill="white"/>
</svg>
