<svg width="81" height="80" viewBox="0 0 81 80" fill="none" xmlns="http://www.w3.org/2000/svg">
<g clip-path="url(#clip0_326_4988)">
<mask id="path-1-outside-1_326_4988" maskUnits="userSpaceOnUse" x="0.166679" y="1.33328" width="81" height="77" fill="black">
<rect fill="white" x="0.166679" y="1.33328" width="81" height="77"/>
<path d="M29.1246 27.4532L37.783 10.0125C38.8943 7.77355 42.1057 7.77355 43.217 10.0125L51.8753 27.4532L71.2383 30.2672C73.7227 30.6282 74.7127 33.6646 72.9143 35.4063L58.9057 48.9726L62.2117 68.138C62.6363 70.5993 60.038 72.4759 57.815 71.3136L40.5 62.2599L23.1849 71.3136C20.962 72.4759 18.3637 70.5993 18.7882 68.138L22.0942 48.9726L8.08585 35.4063C6.28725 33.6646 7.27742 30.6282 9.76175 30.2672L29.1246 27.4532Z"/>
</mask>
<path d="M29.1246 27.4532L37.783 10.0125C38.8943 7.77355 42.1057 7.77355 43.217 10.0125L51.8753 27.4532L71.2383 30.2672C73.7227 30.6282 74.7127 33.6646 72.9143 35.4063L58.9057 48.9726L62.2117 68.138C62.6363 70.5993 60.038 72.4759 57.815 71.3136L40.5 62.2599L23.1849 71.3136C20.962 72.4759 18.3637 70.5993 18.7882 68.138L22.0942 48.9726L8.08585 35.4063C6.28725 33.6646 7.27742 30.6282 9.76175 30.2672L29.1246 27.4532Z" fill="#FCA5A5"/>
<path d="M29.1246 27.4532L30.045 33.7866C32.1243 33.4845 33.9228 32.181 34.857 30.2991L29.1246 27.4532ZM37.783 10.0125L43.5155 12.8584L43.5157 12.858L37.783 10.0125ZM43.217 10.0125L37.4844 12.858L37.4845 12.8583L43.217 10.0125ZM51.8753 27.4532L46.1429 30.299C47.0772 32.181 48.8757 33.4845 50.9549 33.7866L51.8753 27.4532ZM71.2383 30.2672L70.3179 36.6006L70.3179 36.6007L71.2383 30.2672ZM72.9143 35.4063L77.3667 40.0038L77.3668 40.0036L72.9143 35.4063ZM58.9057 48.9726L54.4534 44.3751C52.9333 45.8472 52.2391 47.9754 52.5988 50.0605L58.9057 48.9726ZM62.2117 68.138L55.9048 69.2259L55.9049 69.2261L62.2117 68.138ZM57.815 71.3136L54.8495 76.9851L54.8496 76.9851L57.815 71.3136ZM40.5 62.2599L43.4655 56.5885C41.6078 55.6171 39.3922 55.6171 37.5345 56.5885L40.5 62.2599ZM23.1849 71.3136L20.2194 65.6421L20.2194 65.6422L23.1849 71.3136ZM18.7882 68.138L12.4813 67.05L12.4813 67.0501L18.7882 68.138ZM22.0942 48.9726L28.401 50.0605C28.7607 47.9754 28.0665 45.8472 26.5466 44.3752L22.0942 48.9726ZM8.08585 35.4063L12.5382 30.8088L12.538 30.8086L8.08585 35.4063ZM9.76175 30.2672L10.6822 36.6007L10.6822 36.6006L9.76175 30.2672ZM34.857 30.2991L43.5155 12.8584L32.0506 7.16661L23.3921 24.6073L34.857 30.2991ZM43.5157 12.858C42.2745 15.3584 38.7255 15.3584 37.4844 12.858L48.9497 7.16699C45.4859 0.188714 35.5142 0.188714 32.0504 7.16699L43.5157 12.858ZM37.4845 12.8583L46.1429 30.299L57.6078 24.6073L48.9495 7.16663L37.4845 12.8583ZM50.9549 33.7866L70.3179 36.6006L72.1588 23.9337L52.7958 21.1197L50.9549 33.7866ZM70.3179 36.6007C67.5949 36.2049 66.4057 32.8003 68.4619 30.8089L77.3668 40.0036C83.0197 34.5289 79.8505 25.0515 72.1588 23.9337L70.3179 36.6007ZM68.462 30.8088L54.4534 44.3751L63.358 53.5701L77.3667 40.0038L68.462 30.8088ZM52.5988 50.0605L55.9048 69.2259L68.5185 67.05L65.2125 47.8847L52.5988 50.0605ZM55.9049 69.2261C55.4138 66.3801 58.3815 64.3877 60.7805 65.6421L54.8496 76.9851C61.6946 80.5642 69.8589 74.8185 68.5185 67.0498L55.9049 69.2261ZM60.7805 65.6421L43.4655 56.5885L37.5345 67.9314L54.8495 76.9851L60.7805 65.6421ZM37.5345 56.5885L20.2194 65.6421L26.1504 76.9851L43.4655 67.9314L37.5345 56.5885ZM20.2194 65.6422C22.6188 64.3875 25.5858 66.3803 25.0951 69.2258L12.4813 67.0501C11.1415 74.8182 19.3052 80.5644 26.1505 76.9851L20.2194 65.6422ZM25.095 69.2259L28.401 50.0605L15.7873 47.8847L12.4813 67.05L25.095 69.2259ZM26.5466 44.3752L12.5382 30.8088L3.63348 40.0037L17.6418 53.57L26.5466 44.3752ZM12.538 30.8086C14.595 32.8005 13.4046 36.205 10.6822 36.6007L8.84135 23.9337C1.15027 25.0514 -2.02046 34.5287 3.63372 40.0039L12.538 30.8086ZM10.6822 36.6006L30.045 33.7866L28.2041 21.1197L8.84131 23.9337L10.6822 36.6006Z" fill="#FEE2E2" mask="url(#path-1-outside-1_326_4988)"/>
</g>
<defs>
<clipPath id="clip0_326_4988">
<rect width="80" height="80" fill="white" transform="translate(0.5)"/>
</clipPath>
</defs>
</svg>
