<svg width="352" height="251" viewBox="0 0 352 251" fill="none" xmlns="http://www.w3.org/2000/svg">
<rect x="48.5" y="2.5" width="255" height="65" rx="19.5" fill="#EF4444"/>
<rect x="48.5" y="2.5" width="255" height="65" rx="19.5" stroke="#B91C1C" stroke-width="5"/>
<rect x="62" y="16" width="38" height="38" rx="8" fill="#FCA5A5"/>
<path d="M81.8173 39.71C80.8046 39.71 79.9133 39.5023 79.1433 39.087C78.3733 38.667 77.7736 38.0767 77.3443 37.316C76.915 36.5507 76.7003 35.6523 76.7003 34.621C76.7003 33.8697 76.8263 33.1813 77.0783 32.556C77.3303 31.9307 77.6873 31.3893 78.1493 30.932C78.6113 30.47 79.155 30.1153 79.7803 29.868C80.4103 29.616 81.0986 29.49 81.8453 29.49C82.6386 29.49 83.3106 29.5903 83.8613 29.791C84.412 29.9917 84.9066 30.274 85.3453 30.638L84.2953 32.339C84.0106 32.059 83.6723 31.849 83.2803 31.709C82.893 31.569 82.4613 31.499 81.9853 31.499C81.5 31.499 81.0636 31.5713 80.6763 31.716C80.2936 31.8607 79.967 32.0683 79.6963 32.339C79.4303 32.605 79.225 32.9293 79.0803 33.312C78.9403 33.69 78.8703 34.117 78.8703 34.593C78.8703 35.2463 78.9963 35.804 79.2483 36.266C79.505 36.7233 79.869 37.0757 80.3403 37.323C80.8163 37.5703 81.3833 37.694 82.0413 37.694C82.4986 37.694 82.9466 37.624 83.3853 37.484C83.8286 37.344 84.2463 37.12 84.6383 36.812L85.5903 38.555C85.1283 38.9097 84.587 39.192 83.9663 39.402C83.3456 39.6073 82.6293 39.71 81.8173 39.71Z" fill="#B91C1C"/>
<rect x="109.5" y="16" width="38" height="38" rx="8" fill="#FCA5A5"/>
<path d="M124.182 39.682L123.475 37.785C123.793 37.687 124.061 37.575 124.28 37.449C124.504 37.3183 124.689 37.1433 124.833 36.924C124.983 36.7047 125.099 36.4153 125.183 36.056C125.267 35.6967 125.326 35.2393 125.358 34.684C125.391 34.1287 125.407 33.4473 125.407 32.64V29.7H132.61V39.5H130.538V31.59H127.374V32.549C127.374 33.557 127.342 34.432 127.276 35.174C127.216 35.9113 127.113 36.5413 126.968 37.064C126.824 37.582 126.628 38.0137 126.38 38.359C126.138 38.6997 125.834 38.975 125.47 39.185C125.111 39.395 124.682 39.5607 124.182 39.682Z" fill="#B91C1C"/>
<rect x="157" y="16" width="38" height="38" rx="8" fill="#FCA5A5"/>
<path d="M175.999 39.71C175.252 39.71 174.562 39.5817 173.927 39.325C173.292 39.0637 172.742 38.702 172.275 38.24C171.808 37.778 171.444 37.2367 171.183 36.616C170.926 35.9953 170.798 35.3233 170.798 34.6C170.798 33.872 170.926 33.1977 171.183 32.577C171.444 31.9563 171.808 31.415 172.275 30.953C172.742 30.491 173.292 30.1317 173.927 29.875C174.562 29.6183 175.252 29.49 175.999 29.49C176.746 29.49 177.434 29.6207 178.064 29.882C178.699 30.1433 179.249 30.5073 179.716 30.974C180.187 31.4407 180.554 31.9843 180.815 32.605C181.076 33.221 181.207 33.886 181.207 34.6C181.207 35.3233 181.076 35.9953 180.815 36.616C180.554 37.2367 180.187 37.778 179.716 38.24C179.249 38.702 178.699 39.0637 178.064 39.325C177.434 39.5817 176.746 39.71 175.999 39.71ZM175.999 37.764C176.433 37.764 176.834 37.6893 177.203 37.54C177.572 37.3907 177.894 37.1783 178.169 36.903C178.444 36.623 178.657 36.2893 178.806 35.902C178.96 35.5147 179.037 35.0807 179.037 34.6C179.037 33.9607 178.904 33.4053 178.638 32.934C178.372 32.458 178.01 32.0893 177.553 31.828C177.096 31.5667 176.578 31.436 175.999 31.436C175.57 31.436 175.168 31.5107 174.795 31.66C174.426 31.8093 174.104 32.0217 173.829 32.297C173.558 32.5723 173.346 32.906 173.192 33.298C173.043 33.6853 172.968 34.1193 172.968 34.6C172.968 35.2393 173.101 35.797 173.367 36.273C173.633 36.7443 173.995 37.1107 174.452 37.372C174.909 37.6333 175.425 37.764 175.999 37.764Z" fill="#B91C1C"/>
<rect x="204.5" y="16" width="38" height="38" rx="8" fill="#FCA5A5"/>
<path d="M220.144 39.5V29.7H223.791C224.771 29.7 225.555 29.91 226.143 30.33C226.736 30.7453 227.032 31.3613 227.032 32.178C227.032 32.4813 226.967 32.7637 226.836 33.025C226.706 33.2863 226.533 33.5173 226.318 33.718C226.104 33.914 225.868 34.068 225.611 34.18C226.143 34.3573 226.575 34.663 226.906 35.097C227.242 35.531 227.41 36.0537 227.41 36.665C227.41 37.2343 227.268 37.7313 226.983 38.156C226.699 38.5807 226.295 38.912 225.772 39.15C225.25 39.3833 224.627 39.5 223.903 39.5H220.144ZM222.216 37.946H223.595C224.155 37.946 224.573 37.834 224.848 37.61C225.124 37.386 225.261 37.0477 225.261 36.595C225.261 36.1563 225.126 35.8203 224.855 35.587C224.585 35.349 224.179 35.23 223.637 35.23H222.216V37.946ZM222.216 33.774H223.504C223.817 33.774 224.085 33.7227 224.309 33.62C224.538 33.5173 224.713 33.3703 224.834 33.179C224.96 32.983 225.023 32.7473 225.023 32.472C225.023 32.08 224.888 31.779 224.617 31.569C224.351 31.359 223.969 31.254 223.469 31.254H222.216V33.774Z" fill="#B91C1C"/>
<rect x="252" y="16" width="38" height="38" rx="8" fill="#FCA5A5"/>
<path d="M270.999 39.71C270.252 39.71 269.562 39.5817 268.927 39.325C268.292 39.0637 267.742 38.702 267.275 38.24C266.808 37.778 266.444 37.2367 266.183 36.616C265.926 35.9953 265.798 35.3233 265.798 34.6C265.798 33.872 265.926 33.1977 266.183 32.577C266.444 31.9563 266.808 31.415 267.275 30.953C267.742 30.491 268.292 30.1317 268.927 29.875C269.562 29.6183 270.252 29.49 270.999 29.49C271.746 29.49 272.434 29.6207 273.064 29.882C273.699 30.1433 274.249 30.5073 274.716 30.974C275.187 31.4407 275.554 31.9843 275.815 32.605C276.076 33.221 276.207 33.886 276.207 34.6C276.207 35.3233 276.076 35.9953 275.815 36.616C275.554 37.2367 275.187 37.778 274.716 38.24C274.249 38.702 273.699 39.0637 273.064 39.325C272.434 39.5817 271.746 39.71 270.999 39.71ZM270.999 37.764C271.433 37.764 271.834 37.6893 272.203 37.54C272.572 37.3907 272.894 37.1783 273.169 36.903C273.444 36.623 273.657 36.2893 273.806 35.902C273.96 35.5147 274.037 35.0807 274.037 34.6C274.037 33.9607 273.904 33.4053 273.638 32.934C273.372 32.458 273.01 32.0893 272.553 31.828C272.096 31.5667 271.578 31.436 270.999 31.436C270.57 31.436 270.168 31.5107 269.795 31.66C269.426 31.8093 269.104 32.0217 268.829 32.297C268.558 32.5723 268.346 32.906 268.192 33.298C268.043 33.6853 267.968 34.1193 267.968 34.6C267.968 35.2393 268.101 35.797 268.367 36.273C268.633 36.7443 268.995 37.1107 269.452 37.372C269.909 37.6333 270.425 37.764 270.999 37.764Z" fill="#B91C1C"/>
<rect x="33.5" y="47.5" width="285" height="75" rx="22.5" fill="#60A5FA"/>
<rect x="33.5" y="47.5" width="285" height="75" rx="22.5" stroke="white" stroke-width="5"/>
<rect x="49" y="64" width="42" height="42" rx="10" fill="#BFDBFE"/>
<path fill-rule="evenodd" clip-rule="evenodd" d="M60.1458 81.3333C60.1458 77.916 62.916 75.1458 66.3333 75.1458H73.6666C77.0838 75.1458 79.8541 77.916 79.8541 81.3333V88.6666C79.8541 92.0838 77.0838 94.8541 73.6666 94.8541H66.3333C62.916 94.8541 60.1458 92.0838 60.1458 88.6666V81.3333ZM63.8124 84.0833C63.8124 82.691 64.941 81.5624 66.3333 81.5624H69.0833C70.4008 81.5624 71.4821 82.5731 71.5945 83.8613L74.2073 81.9017C75.0232 81.2899 76.1873 81.8719 76.1873 82.8917V87.1083C76.1873 88.128 75.0233 88.7103 74.2073 88.0983L71.5945 86.1387C71.482 87.4269 70.4007 88.4374 69.0833 88.4374H66.3333C64.941 88.4374 63.8124 87.3088 63.8124 85.9166V84.0833Z" fill="#3B82F6"/>
<rect x="102" y="64" width="42" height="42" rx="9.35484" fill="#BFDBFE"/>
<path fill-rule="evenodd" clip-rule="evenodd" d="M113.146 81.3333C113.146 77.916 115.916 75.1458 119.333 75.1458H126.667C130.084 75.1458 132.854 77.916 132.854 81.3333V88.6666C132.854 92.0838 130.084 94.8541 126.667 94.8541H119.333C115.916 94.8541 113.146 92.0838 113.146 88.6666V81.3333ZM116.812 84.0833C116.812 82.691 117.941 81.5624 119.333 81.5624H122.083C123.401 81.5624 124.482 82.5731 124.594 83.8613L127.207 81.9017C128.023 81.2899 129.187 81.8719 129.187 82.8917V87.1083C129.187 88.128 128.023 88.7103 127.207 88.0983L124.594 86.1387C124.482 87.4269 123.401 88.4374 122.083 88.4374H119.333C117.941 88.4374 116.812 87.3088 116.812 85.9166V84.0833Z" fill="#3B82F6"/>
<rect x="155" y="64" width="42" height="42" rx="10" fill="#BFDBFE"/>
<path fill-rule="evenodd" clip-rule="evenodd" d="M166.146 81.3333C166.146 77.916 168.916 75.1458 172.333 75.1458H179.667C183.084 75.1458 185.854 77.916 185.854 81.3333V88.6666C185.854 92.0838 183.084 94.8541 179.667 94.8541H172.333C168.916 94.8541 166.146 92.0838 166.146 88.6666V81.3333ZM169.812 84.0833C169.812 82.691 170.941 81.5624 172.333 81.5624H175.083C176.401 81.5624 177.482 82.5731 177.594 83.8613L180.207 81.9017C181.023 81.2899 182.187 81.8719 182.187 82.8917V87.1083C182.187 88.128 181.023 88.7103 180.207 88.0983L177.594 86.1387C177.482 87.4269 176.401 88.4374 175.083 88.4374H172.333C170.941 88.4374 169.812 87.3088 169.812 85.9166V84.0833Z" fill="#3B82F6"/>
<rect x="208" y="64" width="42" height="42" rx="10" fill="#BFDBFE"/>
<path fill-rule="evenodd" clip-rule="evenodd" d="M219.146 81.3333C219.146 77.916 221.916 75.1458 225.333 75.1458H232.667C236.084 75.1458 238.854 77.916 238.854 81.3333V88.6666C238.854 92.0838 236.084 94.8541 232.667 94.8541H225.333C221.916 94.8541 219.146 92.0838 219.146 88.6666V81.3333ZM222.812 84.0833C222.812 82.691 223.941 81.5624 225.333 81.5624H228.083C229.401 81.5624 230.482 82.5731 230.594 83.8613L233.207 81.9017C234.023 81.2899 235.187 81.8719 235.187 82.8917V87.1083C235.187 88.128 234.023 88.7103 233.207 88.0983L230.594 86.1387C230.482 87.4269 229.401 88.4374 228.083 88.4374H225.333C223.941 88.4374 222.812 87.3088 222.812 85.9166V84.0833Z" fill="#3B82F6"/>
<rect x="261" y="64" width="42" height="42" rx="10" fill="#BFDBFE"/>
<path fill-rule="evenodd" clip-rule="evenodd" d="M272.146 81.3333C272.146 77.916 274.916 75.1458 278.333 75.1458H285.667C289.084 75.1458 291.854 77.916 291.854 81.3333V88.6666C291.854 92.0838 289.084 94.8541 285.667 94.8541H278.333C274.916 94.8541 272.146 92.0838 272.146 88.6666V81.3333ZM275.812 84.0833C275.812 82.691 276.941 81.5624 278.333 81.5624H281.083C282.401 81.5624 283.482 82.5731 283.594 83.8613L286.207 81.9017C287.023 81.2899 288.187 81.8719 288.187 82.8917V87.1083C288.187 88.128 287.023 88.7103 286.207 88.0983L283.594 86.1387C283.482 87.4269 282.401 88.4374 281.083 88.4374H278.333C276.941 88.4374 275.812 87.3088 275.812 85.9166V84.0833Z" fill="#3B82F6"/>
<rect x="18" y="102" width="316" height="81" rx="25" fill="#60A5FA"/>
<rect x="18" y="102" width="316" height="81" rx="25" stroke="white" stroke-width="6"/>
<rect x="35" y="119.5" width="46" height="46" rx="10" fill="#BFDBFE"/>
<path fill-rule="evenodd" clip-rule="evenodd" d="M47.2499 138.5C47.2499 134.772 50.272 131.75 53.9999 131.75H61.9999C65.7278 131.75 68.7499 134.772 68.7499 138.5V146.5C68.7499 150.228 65.7278 153.25 61.9999 153.25H53.9999C50.272 153.25 47.2499 150.228 47.2499 146.5V138.5ZM51.2499 141.5C51.2499 139.981 52.4811 138.75 53.9999 138.75H56.9999C58.4372 138.75 59.6168 139.853 59.7394 141.258L62.5898 139.12C63.4798 138.453 64.7498 139.088 64.7498 140.2V144.8C64.7498 145.912 63.4799 146.548 62.5898 145.88L59.7394 143.742C59.6167 145.148 58.4371 146.25 56.9999 146.25H53.9999C52.4811 146.25 51.2499 145.019 51.2499 143.5V141.5Z" fill="#3B82F6"/>
<rect x="94" y="119.5" width="46" height="46" rx="10" fill="#BFDBFE"/>
<path fill-rule="evenodd" clip-rule="evenodd" d="M106.25 138.5C106.25 134.772 109.272 131.75 113 131.75H121C124.728 131.75 127.75 134.772 127.75 138.5V146.5C127.75 150.228 124.728 153.25 121 153.25H113C109.272 153.25 106.25 150.228 106.25 146.5V138.5ZM110.25 141.5C110.25 139.981 111.481 138.75 113 138.75H116C117.437 138.75 118.617 139.853 118.739 141.258L121.59 139.12C122.48 138.453 123.75 139.088 123.75 140.2V144.8C123.75 145.912 122.48 146.548 121.59 145.88L118.739 143.742C118.617 145.148 117.437 146.25 116 146.25H113C111.481 146.25 110.25 145.019 110.25 143.5V141.5Z" fill="#3B82F6"/>
<rect x="153" y="119.5" width="46" height="46" rx="10" fill="#BFDBFE"/>
<path fill-rule="evenodd" clip-rule="evenodd" d="M165.25 138.5C165.25 134.772 168.272 131.75 172 131.75H180C183.728 131.75 186.75 134.772 186.75 138.5V146.5C186.75 150.228 183.728 153.25 180 153.25H172C168.272 153.25 165.25 150.228 165.25 146.5V138.5ZM169.25 141.5C169.25 139.981 170.481 138.75 172 138.75H175C176.437 138.75 177.617 139.853 177.739 141.258L180.59 139.12C181.48 138.453 182.75 139.088 182.75 140.2V144.8C182.75 145.912 181.48 146.548 180.59 145.88L177.739 143.742C177.617 145.148 176.437 146.25 175 146.25H172C170.481 146.25 169.25 145.019 169.25 143.5V141.5Z" fill="#3B82F6"/>
<rect x="212" y="119.5" width="46" height="46" rx="10" fill="#BFDBFE"/>
<path fill-rule="evenodd" clip-rule="evenodd" d="M224.25 138.5C224.25 134.772 227.272 131.75 231 131.75H239C242.728 131.75 245.75 134.772 245.75 138.5V146.5C245.75 150.228 242.728 153.25 239 153.25H231C227.272 153.25 224.25 150.228 224.25 146.5V138.5ZM228.25 141.5C228.25 139.981 229.481 138.75 231 138.75H234C235.437 138.75 236.617 139.853 236.739 141.258L239.59 139.12C240.48 138.453 241.75 139.088 241.75 140.2V144.8C241.75 145.912 240.48 146.548 239.59 145.88L236.739 143.742C236.617 145.148 235.437 146.25 234 146.25H231C229.481 146.25 228.25 145.019 228.25 143.5V141.5Z" fill="#3B82F6"/>
<rect x="271" y="119.5" width="46" height="46" rx="10" fill="#BFDBFE"/>
<path fill-rule="evenodd" clip-rule="evenodd" d="M283.25 138.5C283.25 134.772 286.272 131.75 290 131.75H298C301.728 131.75 304.75 134.772 304.75 138.5V146.5C304.75 150.228 301.728 153.25 298 153.25H290C286.272 153.25 283.25 150.228 283.25 146.5V138.5ZM287.25 141.5C287.25 139.981 288.481 138.75 290 138.75H293C294.437 138.75 295.617 139.853 295.739 141.258L298.59 139.12C299.48 138.453 300.75 139.088 300.75 140.2V144.8C300.75 145.912 299.48 146.548 298.59 145.88L295.739 143.742C295.617 145.148 294.437 146.25 293 146.25H290C288.481 146.25 287.25 145.019 287.25 143.5V141.5Z" fill="#3B82F6"/>
<rect x="3" y="162" width="346" height="86" rx="28" fill="#84CC16"/>
<rect x="3" y="162" width="346" height="86" rx="28" stroke="white" stroke-width="6"/>
<rect x="21" y="180" width="50" height="50" rx="10" fill="#D9F99D"/>
<path d="M47.1676 212.3C45.7209 212.3 44.4476 212.003 43.3476 211.41C42.2476 210.81 41.3909 209.967 40.7776 208.88C40.1642 207.787 39.8576 206.503 39.8576 205.03C39.8576 203.957 40.0376 202.973 40.3976 202.08C40.7576 201.187 41.2676 200.413 41.9276 199.76C42.5876 199.1 43.3642 198.593 44.2576 198.24C45.1576 197.88 46.1409 197.7 47.2076 197.7C48.3409 197.7 49.3009 197.843 50.0876 198.13C50.8742 198.417 51.5809 198.82 52.2076 199.34L50.7076 201.77C50.3009 201.37 49.8176 201.07 49.2576 200.87C48.7042 200.67 48.0876 200.57 47.4076 200.57C46.7142 200.57 46.0909 200.673 45.5376 200.88C44.9909 201.087 44.5242 201.383 44.1376 201.77C43.7576 202.15 43.4642 202.613 43.2576 203.16C43.0576 203.7 42.9576 204.31 42.9576 204.99C42.9576 205.923 43.1376 206.72 43.4976 207.38C43.8642 208.033 44.3842 208.537 45.0576 208.89C45.7376 209.243 46.5476 209.42 47.4876 209.42C48.1409 209.42 48.7809 209.32 49.4076 209.12C50.0409 208.92 50.6376 208.6 51.1976 208.16L52.5576 210.65C51.8976 211.157 51.1242 211.56 50.2376 211.86C49.3509 212.153 48.3276 212.3 47.1676 212.3Z" fill="#65A30D"/>
<rect x="86" y="180" width="50" height="50" rx="10" fill="#D9F99D"/>
<path d="M109.507 212V200.7H105.707V198H116.287V200.7H112.487V212H109.507Z" fill="#65A30D"/>
<rect x="151" y="180" width="50" height="50" rx="10" fill="#D9F99D"/>
<path d="M168.972 212L174.272 198H177.642L183.022 212H179.692L178.602 209H173.272L172.212 212H168.972ZM173.972 206.5H177.882L175.902 201.24L173.972 206.5Z" fill="#65A30D"/>
<rect x="216" y="180" width="50" height="50" rx="10" fill="#D9F99D"/>
<path d="M243.517 212V200.7H238.837V202.07C238.837 203.703 238.754 205.103 238.587 206.27C238.421 207.43 238.154 208.393 237.787 209.16C237.427 209.927 236.947 210.533 236.347 210.98C235.747 211.427 235.017 211.753 234.157 211.96L233.127 209.49C233.714 209.357 234.194 209.153 234.567 208.88C234.947 208.607 235.244 208.203 235.457 207.67C235.671 207.13 235.817 206.41 235.897 205.51C235.984 204.603 236.027 203.457 236.027 202.07V198H246.477V212H243.517ZM233.127 215.54V209.49L234.897 209.57L235.867 209.29H248.727V215.54H245.917V212H235.937V215.54H233.127Z" fill="#65A30D"/>
<rect x="281" y="180" width="50" height="50" rx="10" fill="#D9F99D"/>
<path d="M305.999 212.3C304.932 212.3 303.945 212.117 303.039 211.75C302.132 211.377 301.345 210.86 300.679 210.2C300.012 209.54 299.492 208.767 299.119 207.88C298.752 206.993 298.569 206.033 298.569 205C298.569 203.96 298.752 202.997 299.119 202.11C299.492 201.223 300.012 200.45 300.679 199.79C301.345 199.13 302.132 198.617 303.039 198.25C303.945 197.883 304.932 197.7 305.999 197.7C307.065 197.7 308.049 197.887 308.949 198.26C309.855 198.633 310.642 199.153 311.309 199.82C311.982 200.487 312.505 201.263 312.879 202.15C313.252 203.03 313.439 203.98 313.439 205C313.439 206.033 313.252 206.993 312.879 207.88C312.505 208.767 311.982 209.54 311.309 210.2C310.642 210.86 309.855 211.377 308.949 211.75C308.049 212.117 307.065 212.3 305.999 212.3ZM305.999 209.52C306.619 209.52 307.192 209.413 307.719 209.2C308.245 208.987 308.705 208.683 309.099 208.29C309.492 207.89 309.795 207.413 310.009 206.86C310.229 206.307 310.339 205.687 310.339 205C310.339 204.087 310.149 203.293 309.769 202.62C309.389 201.94 308.872 201.413 308.219 201.04C307.565 200.667 306.825 200.48 305.999 200.48C305.385 200.48 304.812 200.587 304.279 200.8C303.752 201.013 303.292 201.317 302.899 201.71C302.512 202.103 302.209 202.58 301.989 203.14C301.775 203.693 301.669 204.313 301.669 205C301.669 205.913 301.859 206.71 302.239 207.39C302.619 208.063 303.135 208.587 303.789 208.96C304.442 209.333 305.179 209.52 305.999 209.52Z" fill="#65A30D"/>
</svg>
