<svg width="220" height="266" viewBox="0 0 220 266" fill="none" xmlns="http://www.w3.org/2000/svg">
<g clip-path="url(#clip0_321_790)">
<rect width="96.9969" height="96.9865" rx="18.3333" transform="matrix(0.965934 -0.258789 0.258849 0.965918 22.1869 27.1017)" fill="#FBBF24"/>
<circle cx="25.9347" cy="25.9347" r="25.9347" transform="matrix(0.965934 -0.258789 0.258849 0.965918 34.0985 33.9789)" fill="#F59E0B"/>
<path d="M58.7312 64.6701C57.2894 59.2897 60.4822 53.7595 65.8627 52.318C71.2431 50.8765 76.7736 54.0696 78.2155 59.4499" stroke="white" stroke-width="3.45796" stroke-linecap="round" stroke-linejoin="round"/>
<path d="M65.8628 52.318C68.9372 51.4943 70.7618 48.3341 69.9379 45.2597C69.114 42.1852 65.9536 40.3606 62.8791 41.1843C59.8046 42.008 57.9801 45.1681 58.804 48.2426C59.6279 51.317 62.7882 53.1417 65.8628 52.318Z" stroke="white" stroke-width="3.45796" stroke-linecap="round" stroke-linejoin="round"/>
<path d="M56.9911 107.444L55.3247 105.434C56.0728 105.119 56.7274 104.769 57.2887 104.384C57.85 103.999 58.3258 103.582 58.7162 103.136C59.1128 102.687 59.4251 102.224 59.653 101.747C59.8854 101.262 60.0454 100.769 60.1329 100.269C59.9211 100.581 59.6467 100.859 59.3095 101.104C58.9769 101.341 58.6071 101.514 58.2 101.623C57.367 101.846 56.5731 101.864 55.8182 101.677C55.0632 101.49 54.41 101.131 53.8585 100.601C53.3115 100.063 52.9281 99.3835 52.7082 98.5631C52.4884 97.7427 52.5001 96.9475 52.7435 96.1775C52.9869 95.4075 53.4332 94.7308 54.0824 94.1474C54.7298 93.5578 55.5421 93.1321 56.5191 92.8703C57.5149 92.6035 58.455 92.5799 59.3394 92.7994C60.2301 93.0172 61.0035 93.461 61.6597 94.131C62.3141 94.7947 62.7873 95.6714 63.0794 96.7611C63.3815 97.8884 63.4463 98.9819 63.2738 100.042C63.1014 101.101 62.7313 102.1 62.1636 103.038C61.6022 103.973 60.8788 104.818 59.9934 105.572C59.1127 106.318 58.1119 106.942 56.9911 107.444ZM58.1906 99.108C58.5852 99.0022 58.9172 98.826 59.1867 98.5793C59.4562 98.3326 59.644 98.044 59.7501 97.7135C59.8546 97.3768 59.8589 97.0299 59.7633 96.6729C59.6659 96.3097 59.4895 96.0146 59.2341 95.7877C58.9832 95.5529 58.6794 95.396 58.3226 95.3171C57.9658 95.2381 57.587 95.2523 57.1862 95.3597C56.7854 95.4671 56.4502 95.6442 56.1807 95.8909C55.9112 96.1376 55.7234 96.4262 55.6173 96.7567C55.5158 97.0792 55.5137 97.4221 55.611 97.7854C55.7067 98.1423 55.8839 98.4405 56.1428 98.68C56.3999 98.9131 56.7069 99.0692 57.0637 99.1481C57.4204 99.227 57.7961 99.2137 58.1906 99.108ZM72.7122 103.232C71.8228 103.47 70.9828 103.504 70.1919 103.333C69.4011 103.163 68.6829 102.825 68.0375 102.32C67.392 101.815 66.8332 101.182 66.3612 100.423C65.8954 99.6615 65.5366 98.8112 65.2849 97.8718C65.0315 96.9262 64.9161 96.0073 64.9388 95.1151C64.9678 94.2214 65.1363 93.3976 65.4445 92.6438C65.751 91.8837 66.2039 91.2321 66.8035 90.6889C67.403 90.1456 68.1474 89.7549 69.0367 89.5166C69.9197 89.2801 70.7567 89.2471 71.5475 89.4179C72.3384 89.5886 73.0565 89.9264 73.702 90.4315C74.3458 90.9302 74.9006 91.5602 75.3664 92.3214C75.8384 93.081 76.2012 93.9336 76.4546 94.8793C76.7063 95.8187 76.8177 96.7353 76.7887 97.6291C76.766 98.5212 76.6014 99.3473 76.295 100.107C75.9885 100.867 75.5355 101.519 74.936 102.062C74.3365 102.605 73.5952 102.995 72.7122 103.232ZM71.9947 100.555C72.3892 100.449 72.7219 100.262 72.9926 99.9953C73.2696 99.7264 73.477 99.3856 73.6147 98.9728C73.7508 98.5537 73.8118 98.0675 73.7977 97.5142C73.7837 96.9608 73.6861 96.3459 73.5048 95.6696C73.2631 94.7677 72.9496 94.0362 72.5643 93.4749C72.1772 92.9074 71.7436 92.5167 71.2635 92.3031C70.7817 92.0831 70.2777 92.0436 69.7516 92.1845C69.3571 92.2903 69.0221 92.4807 68.7468 92.7558C68.4698 93.0247 68.2633 93.3686 68.1272 93.7877C67.9895 94.2005 67.9277 94.6836 67.9417 95.2369C67.962 95.7886 68.0628 96.4026 68.244 97.079C68.4857 97.9808 68.7961 98.7132 69.1752 99.2762C69.5605 99.8375 69.9941 100.228 70.4759 100.448C70.9561 100.662 71.4623 100.697 71.9947 100.555ZM85.5741 99.786C84.6848 100.024 83.8447 100.058 83.0539 99.8873C82.2631 99.7166 81.5449 99.3787 80.8994 98.8737C80.254 98.3687 79.6952 97.7364 79.2231 96.9769C78.7574 96.2156 78.3986 95.3653 78.1468 94.4259C77.8934 93.4802 77.7781 92.5613 77.8008 91.6692C77.8298 90.7754 77.9983 89.9516 78.3065 89.1978C78.6129 88.4378 79.0659 87.7862 79.6654 87.2429C80.2649 86.6997 81.0094 86.309 81.8987 86.0707C82.7817 85.8341 83.6187 85.8012 84.4095 85.9719C85.2003 86.1427 85.9185 86.4805 86.564 86.9855C87.2078 87.4843 87.7626 88.1143 88.2283 88.8755C88.7004 89.6351 89.0631 90.4877 89.3166 91.4333C89.5683 92.3728 89.6797 93.2894 89.6507 94.1831C89.628 95.0753 89.4634 95.9013 89.1569 96.6614C88.8505 97.4214 88.3975 98.0731 87.798 98.6163C87.1985 99.1595 86.4572 99.5494 85.5741 99.786ZM84.8567 97.1087C85.2512 97.003 85.5839 96.8166 85.8546 96.5494C86.1316 96.2805 86.339 95.9397 86.4767 95.5269C86.6128 95.1078 86.6738 94.6216 86.6597 94.0682C86.6457 93.5149 86.548 92.9 86.3668 92.2236C86.1251 91.3218 85.8116 90.5903 85.4262 90.029C85.0392 89.4614 84.6056 89.0708 84.1255 88.8571C83.6436 88.6372 83.1397 88.5977 82.6136 88.7386C82.2191 88.8443 81.8841 89.0347 81.6088 89.3099C81.3318 89.5787 81.1253 89.9227 80.9892 90.3418C80.8515 90.7546 80.7896 91.2376 80.8037 91.791C80.824 92.3427 80.9248 92.9567 81.106 93.6331C81.3477 94.5349 81.6581 95.2673 82.0372 95.8303C82.4225 96.3915 82.8561 96.7822 83.3379 97.0021C83.8181 97.2158 84.3243 97.2513 84.8567 97.1087ZM98.4361 96.3401C97.5468 96.5783 96.7067 96.6121 95.9159 96.4414C95.125 96.2707 94.4069 95.9328 93.7614 95.4278C93.1159 94.9228 92.5572 94.2905 92.0851 93.5309C91.6193 92.7697 91.2606 91.9194 91.0088 90.98C90.7554 90.0343 90.6401 89.1154 90.6628 88.2233C90.6917 87.3295 90.8603 86.5057 91.1685 85.7519C91.4749 84.9919 91.9279 84.3402 92.5274 83.797C93.1269 83.2538 93.8713 82.863 94.7606 82.6248C95.6437 82.3882 96.4806 82.3553 97.2715 82.526C98.0623 82.6967 98.7805 83.0346 99.426 83.5396C100.07 84.0384 100.625 84.6683 101.09 85.4296C101.562 86.1891 101.925 87.0418 102.179 87.9874C102.43 88.9268 102.542 89.8434 102.513 90.7372C102.49 91.6293 102.325 92.4554 102.019 93.2155C101.712 93.9755 101.259 94.6272 100.66 95.1704C100.06 95.7136 99.3192 96.1035 98.4361 96.3401ZM97.7186 93.6628C98.1132 93.5571 98.4458 93.3706 98.7166 93.1034C98.9936 92.8346 99.2009 92.4937 99.3387 92.0809C99.4747 91.6619 99.5357 91.1757 99.5217 90.6223C99.5077 90.069 99.41 89.4541 99.2288 88.7777C98.9871 87.8759 98.6736 87.1443 98.2882 86.5831C97.9012 86.0155 97.4676 85.6249 96.9875 85.4112C96.5056 85.1912 96.0017 85.1517 95.4756 85.2927C95.081 85.3984 94.7461 85.5888 94.4708 85.8639C94.1938 86.1328 93.9873 86.4768 93.8512 86.8958C93.7135 87.3086 93.6516 87.7917 93.6657 88.3451C93.686 88.8968 93.7867 89.5108 93.968 90.1872C94.2097 91.089 94.5201 91.8214 94.8991 92.3843C95.2845 92.9456 95.7181 93.3362 96.1999 93.5562C96.6801 93.7699 97.1863 93.8054 97.7186 93.6628Z" fill="white"/>
<g clip-path="url(#clip1_321_790)">
<path d="M111.582 83.9232L112.287 80.4239C112.378 79.9747 112.947 79.8223 113.25 80.1661L115.611 82.8438L119.173 82.4234C119.63 82.3695 119.95 82.8602 119.714 83.2539L117.877 86.321L119.372 89.558C119.564 89.9737 119.193 90.4293 118.744 90.329L115.248 89.5472L112.611 91.972C112.273 92.2833 111.724 92.0742 111.682 91.6182L111.358 88.0675L108.234 86.3297C107.832 86.1066 107.864 85.5219 108.286 85.3401L111.582 83.9232Z" fill="white" stroke="white" stroke-width="0.916667" stroke-linecap="round" stroke-linejoin="round"/>
</g>
</g>
<rect x="-3.5927" y="-2.07424" width="102.864" height="102.853" rx="21.2667" transform="matrix(0.965934 -0.258789 0.258849 0.965918 22.6014 26.1012)" stroke="white" stroke-width="5.86667"/>
<g clip-path="url(#clip2_321_790)">
<rect width="96.9947" height="96.9887" rx="18.3333" transform="matrix(0.866052 -0.499953 0.500047 0.865999 0 182.008)" fill="#F97316"/>
<circle cx="25.9347" cy="25.9347" r="25.9347" transform="matrix(0.866052 -0.499953 0.500047 0.865999 13.286 185.568)" fill="#EA580C"/>
<path d="M45.0237 208.838C42.2384 204.014 43.8911 197.846 48.7152 195.061C53.5392 192.276 59.7079 193.929 62.4932 198.753" stroke="white" stroke-width="3.45796" stroke-linecap="round" stroke-linejoin="round"/>
<path d="M48.7152 195.061C51.4718 193.47 52.4162 189.945 50.8246 187.189C49.233 184.432 45.708 183.488 42.9514 185.079C40.1948 186.671 39.2504 190.195 40.842 192.952C42.4336 195.708 45.9586 196.652 48.7152 195.061Z" stroke="white" stroke-width="3.45796" stroke-linecap="round" stroke-linejoin="round"/>
<path d="M56.4566 249.425C55.6874 249.869 54.897 250.179 54.0855 250.356C53.274 250.532 52.5318 250.556 51.8588 250.428L51.3994 247.785C51.984 247.941 52.5849 247.958 53.202 247.834C53.8158 247.704 54.3979 247.48 54.9482 247.162C55.3806 246.913 55.7183 246.635 55.9614 246.33C56.2102 246.022 56.3458 245.693 56.3684 245.343C56.3966 244.99 56.3004 244.622 56.0799 244.241C55.8951 243.921 55.6448 243.695 55.329 243.562C55.0187 243.427 54.6679 243.39 54.2765 243.451C53.8875 243.504 53.4768 243.655 53.0444 243.904C52.7637 244.066 52.4883 244.27 52.2184 244.516C51.9485 244.762 51.6968 245.045 51.4634 245.367L49.5884 244.765L46.9971 238.838L53.7956 234.936L55.1719 237.32L50.3035 240.13L51.2255 242.349C51.4041 242.179 51.5863 242.021 51.7723 241.876C51.9638 241.728 52.1691 241.591 52.3881 241.464C53.2023 240.994 54.0086 240.731 54.8069 240.675C55.6109 240.615 56.3551 240.769 57.0396 241.138C57.7208 241.5 58.29 242.078 58.7471 242.869C59.2075 243.667 59.417 244.47 59.3756 245.28C59.3365 246.081 59.0685 246.843 58.5715 247.564C58.0769 248.276 57.3719 248.896 56.4566 249.425ZM67.69 242.94C66.8927 243.4 66.0899 243.65 65.2818 243.69C64.4738 243.73 63.6926 243.589 62.9384 243.269C62.1842 242.948 61.4808 242.482 60.8282 241.87C60.1813 241.255 59.6146 240.527 59.1283 239.685C58.6387 238.837 58.2895 237.979 58.0805 237.112C57.8772 236.241 57.8268 235.401 57.9293 234.594C58.0286 233.78 58.2975 233.033 58.736 232.354C59.1745 231.674 59.7924 231.104 60.5897 230.643C61.3815 230.186 62.1814 229.938 62.9895 229.898C63.7976 229.858 64.5787 229.999 65.3329 230.32C66.0839 230.635 66.7829 231.1 67.4298 231.714C68.0824 232.326 68.6535 233.056 69.143 233.903C69.6293 234.746 69.9742 235.602 70.1775 236.473C70.3865 237.341 70.4413 238.181 70.342 238.995C70.2427 239.808 69.9738 240.555 69.5354 241.235C69.0969 241.914 68.4818 242.483 67.69 242.94ZM66.304 240.54C66.6578 240.335 66.9308 240.069 67.1232 239.741C67.3211 239.41 67.4332 239.027 67.4594 238.592C67.4824 238.152 67.4155 237.667 67.2587 237.136C67.1019 236.605 66.8484 236.037 66.4983 235.43C66.0314 234.622 65.5392 233.996 65.0217 233.554C64.501 233.106 63.981 232.841 63.4619 232.758C62.9396 232.671 62.4426 232.763 61.9709 233.035C61.6171 233.239 61.3429 233.51 61.1482 233.847C60.9502 234.179 60.8397 234.564 60.8168 235.004C60.7906 235.439 60.8559 235.921 61.0127 236.452C61.1751 236.98 61.4313 237.547 61.7815 238.153C62.2484 238.962 62.7377 239.589 63.2496 240.034C63.7671 240.477 64.2871 240.742 64.8094 240.83C65.3285 240.912 65.8267 240.815 66.304 240.54ZM79.222 236.283C78.4247 236.743 77.6219 236.993 76.8138 237.033C76.0058 237.073 75.2246 236.932 74.4704 236.611C73.7162 236.291 73.0128 235.824 72.3602 235.213C71.7133 234.598 71.1466 233.87 70.6603 233.028C70.1707 232.18 69.8215 231.322 69.6125 230.454C69.4092 229.584 69.3587 228.744 69.4613 227.936C69.5606 227.123 69.8295 226.376 70.268 225.696C70.7064 225.017 71.3244 224.446 72.1217 223.986C72.9135 223.529 73.7134 223.281 74.5215 223.241C75.3296 223.201 76.1107 223.342 76.8649 223.662C77.6159 223.978 78.3149 224.442 78.9618 225.057C79.6144 225.669 80.1854 226.398 80.675 227.246C81.1613 228.088 81.5062 228.945 81.7095 229.816C81.9185 230.683 81.9733 231.524 81.874 232.337C81.7747 233.151 81.5058 233.897 81.0674 234.577C80.6289 235.257 80.0138 235.826 79.222 236.283ZM77.836 233.882C78.1898 233.678 78.4628 233.412 78.6552 233.084C78.8531 232.752 78.9652 232.37 78.9914 231.935C79.0144 231.495 78.9475 231.01 78.7907 230.479C78.6339 229.948 78.3804 229.379 78.0303 228.773C77.5634 227.964 77.0712 227.339 76.5537 226.897C76.033 226.449 75.513 226.183 74.9939 226.101C74.4716 226.014 73.9746 226.106 73.5029 226.378C73.1491 226.582 72.8749 226.853 72.6802 227.19C72.4822 227.521 72.3717 227.907 72.3488 228.347C72.3226 228.781 72.3879 229.264 72.5446 229.795C72.7071 230.322 72.9633 230.889 73.3135 231.496C73.7804 232.304 74.2697 232.932 74.7816 233.377C75.2991 233.82 75.8191 234.085 76.3414 234.172C76.8605 234.255 77.3587 234.158 77.836 233.882ZM90.754 229.626C89.9566 230.086 89.1539 230.336 88.3458 230.376C87.5377 230.415 86.7566 230.275 86.0024 229.954C85.2482 229.633 84.5448 229.167 83.8922 228.556C83.2453 227.941 82.6786 227.213 82.1923 226.37C81.7027 225.522 81.3535 224.665 81.1445 223.797C80.9411 222.926 80.8907 222.087 80.9933 221.279C81.0926 220.466 81.3615 219.719 81.8 219.039C82.2384 218.359 82.8564 217.789 83.6537 217.329C84.4455 216.872 85.2454 216.624 86.0535 216.584C86.8616 216.544 87.6427 216.685 88.3969 217.005C89.1479 217.32 89.8469 217.785 90.4938 218.4C91.1464 219.012 91.7174 219.741 92.207 220.589C92.6933 221.431 93.0382 222.288 93.2415 223.159C93.4505 224.026 93.5053 224.867 93.406 225.68C93.3067 226.494 93.0378 227.24 92.5994 227.92C92.1609 228.6 91.5458 229.168 90.754 229.626ZM89.368 227.225C89.7218 227.021 89.9948 226.755 90.1872 226.427C90.3851 226.095 90.4972 225.712 90.5234 225.278C90.5464 224.838 90.4795 224.353 90.3227 223.822C90.1659 223.291 89.9124 222.722 89.5623 222.116C89.0954 221.307 88.6032 220.682 88.0857 220.239C87.5649 219.791 87.045 219.526 86.5259 219.444C86.0036 219.356 85.5066 219.449 85.0349 219.721C84.6811 219.925 84.4069 220.196 84.2122 220.533C84.0142 220.864 83.9037 221.25 83.8808 221.69C83.8546 222.124 83.9199 222.607 84.0766 223.138C84.2391 223.665 84.4953 224.232 84.8455 224.839C85.3124 225.647 85.8017 226.274 86.3136 226.72C86.8311 227.162 87.351 227.428 87.8734 227.515C88.3925 227.597 88.8907 227.501 89.368 227.225Z" fill="white"/>
<g clip-path="url(#clip3_321_790)">
<path d="M100.192 214.256L99.9675 210.694C99.9387 210.237 100.449 209.942 100.83 210.196L103.804 212.171L107.136 210.843C107.564 210.673 107.999 211.064 107.873 211.505L106.893 214.943L109.175 217.683C109.468 218.035 109.227 218.571 108.768 218.59L105.189 218.74L103.269 221.764C103.023 222.153 102.438 222.093 102.28 221.663L101.048 218.317L97.5803 217.448C97.135 217.336 97.0139 216.763 97.3752 216.478L100.192 214.256Z" fill="white" stroke="white" stroke-width="0.916667" stroke-linecap="round" stroke-linejoin="round"/>
</g>
</g>
<rect x="-4.00722" y="-1.07373" width="102.861" height="102.855" rx="21.2667" transform="matrix(0.866052 -0.499953 0.500047 0.865999 0.000157572 179.861)" stroke="white" stroke-width="5.86667"/>
<g clip-path="url(#clip4_321_790)">
<rect width="96.9947" height="96.9887" rx="18.3333" transform="matrix(0.866052 0.499953 -0.500047 0.865999 135.998 77.6488)" fill="#A3A3A3"/>
<circle cx="25.9347" cy="25.9347" r="25.9347" transform="matrix(0.866052 0.499953 -0.500047 0.865999 139.557 90.9333)" fill="#737373"/>
<g clip-path="url(#clip5_321_790)">
<path d="M135.271 130.051C138.057 125.227 144.225 123.574 149.049 126.359C153.873 129.144 155.526 135.312 152.741 140.135" stroke="white" stroke-width="3.45796" stroke-linecap="round" stroke-linejoin="round"/>
<path d="M149.049 126.359C151.806 127.95 155.331 127.006 156.923 124.249C158.514 121.493 157.57 117.968 154.813 116.377C152.057 114.786 148.532 115.73 146.94 118.486C145.348 121.243 146.293 124.767 149.049 126.359Z" stroke="white" stroke-width="3.45796" stroke-linecap="round" stroke-linejoin="round"/>
</g>
<path d="M106.268 160.495C105.342 159.96 104.637 159.347 104.152 158.656C103.677 157.962 103.419 157.248 103.379 156.513C103.339 155.779 103.512 155.078 103.897 154.41C104.17 153.938 104.496 153.561 104.876 153.279C105.262 153 105.69 152.809 106.161 152.707C106.638 152.608 107.145 152.597 107.684 152.676C107.375 152.251 107.17 151.724 107.068 151.097C106.966 150.469 107.108 149.821 107.494 149.153C107.857 148.524 108.354 148.066 108.984 147.778C109.618 147.485 110.322 147.375 111.096 147.448C111.87 147.52 112.647 147.782 113.428 148.232C114.225 148.693 114.847 149.243 115.294 149.882C115.749 150.52 116.009 151.186 116.071 151.881C116.137 152.57 115.991 153.227 115.631 153.85C115.371 154.299 115.063 154.645 114.706 154.888C114.354 155.134 113.982 155.298 113.591 155.379C113.206 155.463 112.839 155.488 112.493 155.452C112.95 156.061 113.224 156.728 113.314 157.454C113.407 158.174 113.253 158.882 112.851 159.578C112.465 160.246 111.924 160.735 111.229 161.045C110.534 161.355 109.753 161.469 108.886 161.388C108.028 161.305 107.156 161.007 106.268 160.495ZM107.582 158.356C107.908 158.544 108.25 158.659 108.607 158.701C108.968 158.737 109.308 158.686 109.627 158.548C109.955 158.408 110.223 158.158 110.43 157.799C110.638 157.44 110.724 157.089 110.69 156.747C110.661 156.409 110.539 156.095 110.324 155.806C110.112 155.511 109.832 155.264 109.484 155.063C108.961 154.761 108.432 154.647 107.896 154.719C107.369 154.789 106.953 155.088 106.649 155.616C106.441 155.975 106.353 156.329 106.385 156.676C106.419 157.018 106.542 157.336 106.754 157.631C106.975 157.923 107.251 158.165 107.582 158.356ZM110.707 152.984C111.027 153.169 111.347 153.275 111.668 153.303C111.989 153.331 112.281 153.279 112.544 153.146C112.808 153.014 113.019 152.81 113.178 152.535C113.418 152.12 113.463 151.685 113.313 151.232C113.163 150.778 112.844 150.411 112.355 150.129C112.035 149.944 111.711 149.843 111.384 149.826C111.066 149.807 110.773 149.867 110.506 150.005C110.24 150.143 110.027 150.349 109.868 150.624C109.628 151.04 109.586 151.469 109.743 151.911C109.908 152.351 110.229 152.708 110.707 152.984ZM117.273 166.847C116.476 166.387 115.858 165.817 115.419 165.137C114.981 164.457 114.712 163.711 114.613 162.897C114.513 162.084 114.565 161.242 114.769 160.371C114.978 159.503 115.325 158.648 115.812 157.806C116.301 156.958 116.869 156.227 117.516 155.612C118.169 155.001 118.871 154.537 119.622 154.222C120.376 153.902 121.157 153.761 121.965 153.801C122.773 153.841 123.576 154.091 124.373 154.551C125.165 155.008 125.78 155.576 126.219 156.256C126.657 156.936 126.926 157.683 127.025 158.496C127.128 159.304 127.075 160.142 126.866 161.009C126.662 161.88 126.316 162.74 125.826 163.587C125.34 164.43 124.771 165.157 124.118 165.768C123.471 166.383 122.77 166.85 122.016 167.171C121.262 167.492 120.481 167.632 119.673 167.593C118.865 167.553 118.065 167.305 117.273 166.847ZM118.659 164.447C119.013 164.651 119.38 164.755 119.76 164.757C120.146 164.763 120.534 164.669 120.923 164.474C121.316 164.274 121.703 163.973 122.084 163.572C122.466 163.171 122.831 162.667 123.182 162.061C123.648 161.252 123.944 160.513 124.068 159.844C124.196 159.169 124.166 158.586 123.977 158.096C123.792 157.599 123.464 157.215 122.992 156.943C122.638 156.739 122.267 156.636 121.878 156.636C121.492 156.631 121.102 156.728 120.71 156.928C120.32 157.122 119.935 157.42 119.554 157.821C119.178 158.226 118.815 158.731 118.465 159.338C117.998 160.146 117.699 160.884 117.569 161.55C117.445 162.219 117.475 162.802 117.66 163.298C117.849 163.789 118.182 164.172 118.659 164.447ZM128.805 173.505C128.008 173.044 127.39 172.474 126.951 171.794C126.513 171.115 126.244 170.368 126.145 169.554C126.045 168.741 126.097 167.899 126.301 167.028C126.51 166.16 126.857 165.306 127.344 164.463C127.833 163.615 128.401 162.884 129.048 162.269C129.701 161.658 130.403 161.195 131.154 160.88C131.908 160.559 132.689 160.418 133.497 160.458C134.305 160.498 135.108 160.748 135.905 161.208C136.697 161.665 137.312 162.234 137.751 162.913C138.189 163.593 138.458 164.34 138.557 165.153C138.66 165.961 138.607 166.799 138.398 167.667C138.194 168.537 137.848 169.397 137.358 170.245C136.872 171.087 136.303 171.814 135.65 172.425C135.003 173.04 134.302 173.508 133.548 173.828C132.794 174.149 132.013 174.29 131.205 174.25C130.397 174.21 129.597 173.962 128.805 173.505ZM130.191 171.104C130.545 171.309 130.912 171.412 131.292 171.414C131.678 171.42 132.066 171.326 132.455 171.131C132.848 170.931 133.235 170.63 133.616 170.229C133.998 169.828 134.363 169.324 134.714 168.718C135.18 167.909 135.476 167.17 135.6 166.501C135.728 165.826 135.698 165.243 135.509 164.753C135.324 164.257 134.996 163.872 134.524 163.6C134.17 163.396 133.799 163.294 133.41 163.294C133.024 163.288 132.634 163.385 132.242 163.585C131.852 163.78 131.467 164.077 131.086 164.479C130.71 164.883 130.347 165.389 129.997 165.995C129.53 166.803 129.231 167.541 129.101 168.207C128.977 168.876 129.007 169.459 129.192 169.955C129.381 170.446 129.714 170.829 130.191 171.104ZM140.337 180.162C139.54 179.702 138.922 179.131 138.483 178.452C138.045 177.772 137.776 177.025 137.677 176.212C137.577 175.398 137.629 174.556 137.833 173.685C138.042 172.818 138.389 171.963 138.876 171.12C139.365 170.273 139.933 169.541 140.58 168.927C141.233 168.315 141.935 167.852 142.686 167.537C143.44 167.216 144.221 167.075 145.029 167.115C145.837 167.155 146.64 167.405 147.437 167.865C148.229 168.322 148.844 168.891 149.283 169.571C149.721 170.251 149.99 170.997 150.089 171.811C150.192 172.618 150.139 173.456 149.93 174.324C149.726 175.195 149.38 176.054 148.89 176.902C148.404 177.744 147.834 178.471 147.182 179.082C146.535 179.697 145.834 180.165 145.08 180.486C144.326 180.806 143.545 180.947 142.737 180.907C141.929 180.867 141.129 180.619 140.337 180.162ZM141.723 177.761C142.077 177.966 142.444 178.069 142.824 178.072C143.21 178.077 143.598 177.983 143.987 177.788C144.38 177.588 144.767 177.288 145.148 176.886C145.53 176.485 145.895 175.981 146.246 175.375C146.712 174.566 147.008 173.828 147.132 173.158C147.26 172.483 147.23 171.901 147.041 171.41C146.856 170.914 146.528 170.53 146.056 170.257C145.702 170.053 145.331 169.951 144.942 169.951C144.556 169.945 144.166 170.042 143.774 170.242C143.384 170.437 142.999 170.735 142.618 171.136C142.242 171.54 141.879 172.046 141.529 172.652C141.062 173.461 140.763 174.198 140.633 174.864C140.509 175.533 140.539 176.116 140.724 176.612C140.913 177.103 141.246 177.486 141.723 177.761Z" fill="white"/>
<g clip-path="url(#clip6_321_790)">
<path d="M158.162 180.531L161.135 178.555C161.517 178.302 162.027 178.596 161.998 179.053L161.774 182.616L164.59 184.838C164.952 185.123 164.831 185.695 164.385 185.807L160.918 186.677L159.685 190.023C159.527 190.453 158.943 190.512 158.696 190.124L156.777 187.1L153.198 186.95C152.738 186.931 152.498 186.395 152.791 186.043L155.073 183.303L154.092 179.865C153.966 179.424 154.402 179.032 154.829 179.203L158.162 180.531Z" fill="white" stroke="white" stroke-width="0.916667" stroke-linecap="round" stroke-linejoin="round"/>
</g>
</g>
<rect x="-1.07362" y="-4.00679" width="102.861" height="102.855" rx="21.2667" transform="matrix(0.866052 0.499953 -0.500047 0.865999 133.85 77.6486)" stroke="white" stroke-width="5.86667"/>
<defs>
<clipPath id="clip0_321_790">
<rect width="96.9969" height="96.9865" rx="18.3333" transform="matrix(0.965934 -0.258789 0.258849 0.965918 22.1869 27.1017)" fill="white"/>
</clipPath>
<clipPath id="clip1_321_790">
<rect width="14.6667" height="14.6667" fill="white" transform="matrix(0.965934 -0.258789 0.258849 0.965918 105.21 80.4197)"/>
</clipPath>
<clipPath id="clip2_321_790">
<rect width="96.9947" height="96.9887" rx="18.3333" transform="matrix(0.866052 -0.499953 0.500047 0.865999 0 182.008)" fill="white"/>
</clipPath>
<clipPath id="clip3_321_790">
<rect width="14.6667" height="14.6667" fill="white" transform="matrix(0.866052 -0.499953 0.500047 0.865999 93.1299 212.521)"/>
</clipPath>
<clipPath id="clip4_321_790">
<rect width="96.9947" height="96.9887" rx="18.3333" transform="matrix(0.866052 0.499953 -0.500047 0.865999 135.998 77.6488)" fill="white"/>
</clipPath>
<clipPath id="clip5_321_790">
<rect width="34.5796" height="34.5796" fill="white" transform="matrix(0.866052 0.499953 -0.500047 0.865999 142.721 102.742)"/>
</clipPath>
<clipPath id="clip6_321_790">
<rect width="14.6667" height="14.6667" fill="white" transform="matrix(0.866052 0.499953 -0.500047 0.865999 156.134 173.548)"/>
</clipPath>
</defs>
</svg>
