<svg width="290" height="269" viewBox="0 0 290 269" fill="none" xmlns="http://www.w3.org/2000/svg">
<rect x="64.9346" y="2.16993" width="160.131" height="44.8366" rx="13.3595" fill="#EF4444"/>
<rect x="64.9346" y="2.16993" width="160.131" height="44.8366" rx="13.3595" stroke="#B91C1C" stroke-width="3.66013"/>
<rect x="74.2513" y="12.2354" width="24.7059" height="24.7059" rx="4.94118" fill="white"/>
<path d="M87.1332 27.7241C86.4779 27.7241 85.9012 27.5898 85.4029 27.321C84.9047 27.0493 84.5167 26.6673 84.2389 26.1751C83.9611 25.6799 83.8222 25.0986 83.8222 24.4313C83.8222 23.9451 83.9037 23.4997 84.0667 23.0951C84.2298 22.6905 84.4608 22.3402 84.7597 22.0443C85.0587 21.7453 85.4105 21.5158 85.8151 21.3558C86.2227 21.1927 86.6681 21.1112 87.1513 21.1112C87.6646 21.1112 88.0994 21.1761 88.4557 21.306C88.8121 21.4358 89.1321 21.6185 89.416 21.854L88.7366 22.9547C88.5524 22.7735 88.3334 22.6376 88.0798 22.547C87.8292 22.4564 87.5499 22.4111 87.2419 22.4111C86.9278 22.4111 86.6455 22.4579 86.3949 22.5515C86.1473 22.6452 85.9359 22.7795 85.7607 22.9547C85.5886 23.1268 85.4558 23.3366 85.3622 23.5843C85.2716 23.8288 85.2263 24.1051 85.2263 24.4131C85.2263 24.8359 85.3078 25.1967 85.4709 25.4957C85.6369 25.7916 85.8725 26.0196 86.1774 26.1796C86.4854 26.3396 86.8523 26.4197 87.2781 26.4197C87.574 26.4197 87.8639 26.3744 88.1477 26.2838C88.4346 26.1932 88.7049 26.0483 88.9585 25.849L89.5745 26.9768C89.2756 27.2063 88.9253 27.389 88.5237 27.5248C88.1221 27.6577 87.6586 27.7241 87.1332 27.7241Z" fill="#DC2626"/>
<rect x="103.449" y="12.2354" width="24.7059" height="24.7059" rx="4.94118" fill="#B91C1C"/>
<path d="M113.008 27.706L112.551 26.4786C112.756 26.4151 112.93 26.3427 113.072 26.2611C113.217 26.1766 113.336 26.0634 113.43 25.9214C113.526 25.7795 113.602 25.5923 113.656 25.3598C113.71 25.1273 113.748 24.8314 113.769 24.472C113.79 24.1127 113.801 23.6718 113.801 23.1494V21.2471H118.462V27.5883H117.121V22.47H115.074V23.0906C115.074 23.7428 115.053 24.309 115.01 24.7891C114.971 25.2662 114.905 25.6738 114.811 26.012C114.717 26.3472 114.591 26.6265 114.431 26.85C114.274 27.0704 114.077 27.2486 113.842 27.3844C113.609 27.5203 113.331 27.6275 113.008 27.706Z" fill="#EF4444"/>
<rect x="132.647" y="12.2354" width="24.7059" height="24.7059" rx="4.94118" fill="#B91C1C"/>
<path d="M144.999 27.7241C144.516 27.7241 144.069 27.6411 143.659 27.475C143.248 27.3059 142.892 27.0719 142.59 26.773C142.288 26.474 142.052 26.1237 141.883 25.7221C141.717 25.3205 141.634 24.8857 141.634 24.4177C141.634 23.9466 141.717 23.5103 141.883 23.1087C142.052 22.7071 142.288 22.3568 142.59 22.0578C142.892 21.7589 143.248 21.5264 143.659 21.3603C144.069 21.1942 144.516 21.1112 144.999 21.1112C145.482 21.1112 145.928 21.1957 146.336 21.3648C146.746 21.5339 147.102 21.7695 147.404 22.0714C147.709 22.3734 147.946 22.7252 148.116 23.1268C148.285 23.5254 148.369 23.9557 148.369 24.4177C148.369 24.8857 148.285 25.3205 148.116 25.7221C147.946 26.1237 147.709 26.474 147.404 26.773C147.102 27.0719 146.746 27.3059 146.336 27.475C145.928 27.6411 145.482 27.7241 144.999 27.7241ZM144.999 26.465C145.28 26.465 145.54 26.4166 145.778 26.32C146.017 26.2234 146.225 26.086 146.403 25.9078C146.582 25.7267 146.719 25.5108 146.816 25.2601C146.915 25.0095 146.965 24.7287 146.965 24.4177C146.965 24.004 146.879 23.6446 146.707 23.3397C146.535 23.0317 146.301 22.7931 146.005 22.624C145.709 22.4549 145.374 22.3704 144.999 22.3704C144.722 22.3704 144.462 22.4187 144.22 22.5153C143.982 22.6119 143.773 22.7493 143.595 22.9275C143.42 23.1056 143.283 23.3216 143.183 23.5752C143.086 23.8258 143.038 24.1066 143.038 24.4177C143.038 24.8314 143.124 25.1922 143.296 25.5002C143.468 25.8052 143.702 26.0422 143.998 26.2113C144.294 26.3804 144.628 26.465 144.999 26.465Z" fill="#EF4444"/>
<rect x="161.845" y="12.2354" width="24.7059" height="24.7059" rx="4.94118" fill="#B91C1C"/>
<path d="M172.026 27.5883V21.2471H174.386C175.02 21.2471 175.528 21.383 175.908 21.6547C176.292 21.9235 176.483 22.3221 176.483 22.8505C176.483 23.0468 176.441 23.2295 176.357 23.3986C176.272 23.5676 176.16 23.7171 176.021 23.847C175.883 23.9738 175.73 24.0734 175.564 24.1459C175.908 24.2606 176.188 24.4584 176.402 24.7393C176.619 25.0201 176.728 25.3583 176.728 25.7538C176.728 26.1222 176.636 26.4438 176.452 26.7186C176.268 26.9934 176.006 27.2078 175.668 27.3618C175.33 27.5128 174.927 27.5883 174.459 27.5883H172.026ZM173.367 26.5827H174.259C174.622 26.5827 174.892 26.5103 175.07 26.3653C175.248 26.2204 175.337 26.0015 175.337 25.7086C175.337 25.4247 175.25 25.2073 175.075 25.0563C174.9 24.9023 174.637 24.8253 174.287 24.8253H173.367V26.5827ZM173.367 23.8832H174.201C174.403 23.8832 174.577 23.85 174.721 23.7836C174.869 23.7171 174.983 23.622 175.061 23.4982C175.143 23.3714 175.183 23.2189 175.183 23.0407C175.183 22.7871 175.096 22.5923 174.921 22.4564C174.749 22.3206 174.501 22.2526 174.178 22.2526H173.367V23.8832Z" fill="#EF4444"/>
<rect x="191.043" y="12.2354" width="24.7059" height="24.7059" rx="4.94118" fill="white"/>
<path d="M203.395 27.7241C202.912 27.7241 202.465 27.6411 202.054 27.475C201.644 27.3059 201.287 27.0719 200.985 26.773C200.683 26.474 200.448 26.1237 200.279 25.7221C200.113 25.3205 200.03 24.8857 200.03 24.4177C200.03 23.9466 200.113 23.5103 200.279 23.1087C200.448 22.7071 200.683 22.3568 200.985 22.0578C201.287 21.7589 201.644 21.5264 202.054 21.3603C202.465 21.1942 202.912 21.1112 203.395 21.1112C203.878 21.1112 204.324 21.1957 204.731 21.3648C205.142 21.5339 205.498 21.7695 205.8 22.0714C206.105 22.3734 206.342 22.7252 206.511 23.1268C206.68 23.5254 206.765 23.9557 206.765 24.4177C206.765 24.8857 206.68 25.3205 206.511 25.7221C206.342 26.1237 206.105 26.474 205.8 26.773C205.498 27.0719 205.142 27.3059 204.731 27.475C204.324 27.6411 203.878 27.7241 203.395 27.7241ZM203.395 26.465C203.676 26.465 203.936 26.4166 204.174 26.32C204.413 26.2234 204.621 26.086 204.799 25.9078C204.977 25.7267 205.115 25.5108 205.211 25.2601C205.311 25.0095 205.361 24.7287 205.361 24.4177C205.361 24.004 205.275 23.6446 205.103 23.3397C204.931 23.0317 204.697 22.7931 204.401 22.624C204.105 22.4549 203.769 22.3704 203.395 22.3704C203.117 22.3704 202.858 22.4187 202.616 22.5153C202.377 22.6119 202.169 22.7493 201.991 22.9275C201.816 23.1056 201.678 23.3216 201.579 23.5752C201.482 23.8258 201.434 24.1066 201.434 24.4177C201.434 24.8314 201.52 25.1922 201.692 25.5002C201.864 25.8052 202.098 26.0422 202.394 26.2113C202.69 26.3804 203.024 26.465 203.395 26.465Z" fill="#DC2626"/>
<rect x="52.3529" y="30.7648" width="185.294" height="49.4118" rx="14.4118" fill="#EF4444"/>
<rect x="52.3529" y="30.7648" width="185.294" height="49.4118" rx="14.4118" stroke="#B91C1C" stroke-width="4.11765"/>
<rect x="62.8342" y="42.2942" width="26.3529" height="26.3529" rx="5.76471" fill="white"/>
<path d="M76.5876 58.6189C75.8728 58.6189 75.2436 58.4724 74.7001 58.1792C74.1565 57.8827 73.7332 57.466 73.4302 56.9291C73.1271 56.3888 72.9756 55.7547 72.9756 55.0267C72.9756 54.4963 73.0645 54.0105 73.2424 53.5691C73.4203 53.1276 73.6723 52.7455 73.9984 52.4227C74.3245 52.0966 74.7083 51.8462 75.1497 51.6716C75.5944 51.4938 76.0803 51.4048 76.6074 51.4048C77.1674 51.4048 77.6417 51.4756 78.0304 51.6173C78.4191 51.7589 78.7683 51.9582 79.078 52.2152L78.3368 53.4159C78.1358 53.2182 77.897 53.07 77.6203 52.9712C77.3469 52.8723 77.0422 52.8229 76.7062 52.8229C76.3636 52.8229 76.0556 52.874 75.7822 52.9761C75.5121 53.0782 75.2815 53.2248 75.0904 53.4159C74.9027 53.6036 74.7577 53.8326 74.6556 54.1027C74.5568 54.3695 74.5074 54.6709 74.5074 55.0069C74.5074 55.4681 74.5963 55.8618 74.7742 56.1879C74.9554 56.5107 75.2123 56.7594 75.545 56.934C75.881 57.1086 76.2812 57.1959 76.7457 57.1959C77.0685 57.1959 77.3848 57.1465 77.6944 57.0476C78.0074 56.9488 78.3022 56.7907 78.5789 56.5733L79.2509 57.8036C78.9248 58.054 78.5427 58.2533 78.1045 58.4015C77.6664 58.5465 77.1608 58.6189 76.5876 58.6189Z" fill="#DC2626"/>
<rect x="97.3289" y="42.2942" width="26.3529" height="26.3529" rx="5.76471" fill="#FCA5A5"/>
<path d="M107.032 58.4707L109.651 51.5531H111.316L113.975 58.4707H112.329L111.791 56.9883H109.157L108.633 58.4707H107.032ZM109.503 55.7531H111.435L110.457 53.154L109.503 55.7531Z" fill="white"/>
<rect x="131.824" y="42.2942" width="26.3529" height="26.3529" rx="5.76471" fill="#B91C1C"/>
<path d="M141.952 58.5992L141.453 57.2601C141.677 57.1909 141.867 57.1119 142.021 57.0229C142.18 56.9307 142.31 56.8072 142.412 56.6523C142.517 56.4975 142.6 56.2933 142.659 56.0396C142.718 55.786 142.759 55.4632 142.782 55.0712C142.805 54.6792 142.817 54.1982 142.817 53.6283V51.5531H147.901V58.4707H146.439V52.8872H144.205V53.5641C144.205 54.2756 144.182 54.8933 144.136 55.4171C144.093 55.9375 144.021 56.3822 143.919 56.7512C143.817 57.1168 143.678 57.4215 143.504 57.6653C143.332 57.9058 143.118 58.1001 142.861 58.2484C142.608 58.3966 142.305 58.5135 141.952 58.5992Z" fill="#EF4444"/>
<rect x="166.318" y="42.2942" width="26.3529" height="26.3529" rx="5.76471" fill="#FCA5A5"/>
<path d="M176.022 58.4707L178.641 51.5531H180.306L182.964 58.4707H181.319L180.78 56.9883H178.146L177.623 58.4707H176.022ZM178.492 55.7531H180.424L179.446 53.154L178.492 55.7531Z" fill="white"/>
<rect x="200.813" y="42.2942" width="26.3529" height="26.3529" rx="5.76471" fill="#FCA5A5"/>
<path d="M213.252 58.4707V52.8872H211.374V51.5531H216.602V52.8872H214.724V58.4707H213.252Z" fill="white"/>
<rect x="40" y="63.7059" width="210" height="53.5294" rx="16.0588" fill="#EF4444"/>
<rect x="40" y="63.7059" width="210" height="53.5294" rx="16.0588" stroke="#B91C1C" stroke-width="4.11765"/>
<rect x="51.1177" y="74.8236" width="31.2941" height="31.2941" rx="6.58824" fill="white"/>
<path d="M67.4378 94.6436C66.6038 94.6436 65.8698 94.4726 65.2357 94.1306C64.6015 93.7847 64.1077 93.2985 63.7541 92.6721C63.4006 92.0418 63.2238 91.302 63.2238 90.4527C63.2238 89.834 63.3275 89.2671 63.5351 88.7521C63.7426 88.2371 64.0366 87.7913 64.4171 87.4147C64.7975 87.0342 65.2453 86.7422 65.7603 86.5385C66.2791 86.3309 66.8459 86.2272 67.4608 86.2272C68.1142 86.2272 68.6676 86.3098 69.1211 86.4751C69.5746 86.6403 69.9819 86.8728 70.3432 87.1726L69.4785 88.5734C69.2441 88.3428 68.9654 88.1699 68.6426 88.0546C68.3236 87.9393 67.9681 87.8816 67.5761 87.8816C67.1765 87.8816 66.8171 87.9412 66.4981 88.0603C66.183 88.1795 65.914 88.3505 65.6911 88.5734C65.472 88.7925 65.3029 89.0596 65.1838 89.3747C65.0685 89.686 65.0108 90.0376 65.0108 90.4296C65.0108 90.9677 65.1146 91.4269 65.3221 91.8074C65.5335 92.184 65.8333 92.4742 66.2214 92.6779C66.6134 92.8816 67.0804 92.9834 67.6223 92.9834C67.9989 92.9834 68.3678 92.9258 68.7291 92.8105C69.0942 92.6952 69.4381 92.5107 69.761 92.2571L70.545 93.6925C70.1645 93.9845 69.7187 94.2171 69.2075 94.39C68.6964 94.5591 68.1065 94.6436 67.4378 94.6436Z" fill="#DC2626"/>
<rect x="90.2353" y="74.8236" width="31.2941" height="31.2941" rx="6.58824" fill="#FCA5A5"/>
<path d="M107.333 94.4707V87.9566H104.636V88.7463C104.636 89.6879 104.588 90.495 104.491 91.1675C104.395 91.8362 104.242 92.3916 104.03 92.8335C103.823 93.2755 103.546 93.6252 103.2 93.8827C102.854 94.1402 102.433 94.3285 101.938 94.4476L101.344 93.0238C101.682 92.9469 101.959 92.8297 102.174 92.6721C102.393 92.5145 102.564 92.282 102.687 91.9746C102.81 91.6633 102.895 91.2482 102.941 90.7294C102.991 90.2067 103.016 89.5457 103.016 88.7463V86.4001H109.04V94.4707H107.333ZM101.344 96.5114V93.0238L102.364 93.0699L102.923 92.9085H110.337V96.5114H108.717V94.4707H102.964V96.5114H101.344Z" fill="white"/>
<rect x="129.353" y="74.8236" width="31.2941" height="31.2941" rx="6.58824" fill="white"/>
<path d="M140.948 94.4707L144.004 86.4001H145.946L149.048 94.4707H147.128L146.5 92.7413H143.427L142.816 94.4707H140.948ZM143.831 91.3001H146.085L144.943 88.2679L143.831 91.3001Z" fill="#DC2626"/>
<rect x="168.471" y="74.8236" width="31.2941" height="31.2941" rx="6.58824" fill="#B91C1C"/>
<path d="M185.501 94.4707V91.3232C185.174 91.4154 184.857 91.4884 184.55 91.5422C184.242 91.5922 183.916 91.6172 183.57 91.6172C182.951 91.6172 182.417 91.5134 181.967 91.3059C181.518 91.0983 181.172 90.7736 180.93 90.3316C180.687 89.8858 180.566 89.3036 180.566 88.5849V86.4001H182.273V88.3486C182.273 88.9865 182.409 89.4362 182.682 89.6975C182.959 89.9589 183.357 90.0895 183.875 90.0895C184.202 90.0895 184.492 90.0722 184.746 90.0376C185.003 90.0031 185.255 89.9569 185.501 89.8993V86.4001H187.207V94.4707H185.501Z" fill="#EF4444"/>
<rect x="207.588" y="74.8236" width="31.2941" height="31.2941" rx="6.58824" fill="#FCA5A5"/>
<path d="M219.184 94.4707L222.239 86.4001H224.182L227.283 94.4707H225.363L224.735 92.7413H221.662L221.051 94.4707H219.184ZM222.066 91.3001H224.32L223.179 88.2679L222.066 91.3001Z" fill="white"/>
<rect x="27.647" y="100.765" width="234.706" height="61.7647" rx="18.5294" fill="#EF4444"/>
<rect x="27.647" y="100.765" width="234.706" height="61.7647" rx="18.5294" stroke="#B91C1C" stroke-width="4.11765"/>
<rect x="40.4117" y="114.353" width="34.5882" height="34.5882" rx="8.23529" fill="white"/>
<path d="M58.4751 136.345C57.522 136.345 56.6831 136.149 55.9584 135.758C55.2337 135.363 54.6693 134.807 54.2652 134.092C53.8611 133.371 53.6591 132.526 53.6591 131.555C53.6591 130.848 53.7777 130.2 54.0149 129.612C54.252 129.023 54.588 128.514 55.0229 128.083C55.4577 127.648 55.9694 127.314 56.5579 127.082C57.1509 126.845 57.7987 126.726 58.5015 126.726C59.2481 126.726 59.8806 126.82 60.3989 127.009C60.9171 127.198 61.3827 127.464 61.7956 127.806L60.8073 129.407C60.5394 129.144 60.221 128.946 59.852 128.814C59.4875 128.683 59.0812 128.617 58.6332 128.617C58.1764 128.617 57.7658 128.685 57.4012 128.821C57.0411 128.957 56.7336 129.153 56.4789 129.407C56.2285 129.658 56.0353 129.963 55.8991 130.323C55.7673 130.679 55.7015 131.081 55.7015 131.529C55.7015 132.144 55.82 132.669 56.0572 133.103C56.2988 133.534 56.6414 133.865 57.085 134.098C57.533 134.331 58.0666 134.447 58.6859 134.447C59.1164 134.447 59.538 134.381 59.9509 134.25C60.3681 134.118 60.7612 133.907 61.1302 133.617L62.0262 135.258C61.5913 135.591 61.0818 135.857 60.4977 136.055C59.9135 136.248 59.2393 136.345 58.4751 136.345Z" fill="#DC2626"/>
<rect x="84.0588" y="114.353" width="34.5882" height="34.5882" rx="7.70399" fill="#B91C1C"/>
<path d="M97.2893 136.318L96.6238 134.533C96.9225 134.441 97.1751 134.335 97.3815 134.217C97.5923 134.094 97.7658 133.929 97.902 133.723C98.0425 133.516 98.1523 133.244 98.2314 132.906C98.3104 132.567 98.3653 132.137 98.3961 131.614C98.4268 131.092 98.4422 130.45 98.4422 129.691V126.924H105.221V136.147H103.271V128.702H100.293V129.605C100.293 130.554 100.263 131.377 100.201 132.076C100.144 132.77 100.048 133.362 99.9114 133.854C99.7752 134.342 99.5908 134.748 99.358 135.073C99.1296 135.394 98.8441 135.653 98.5015 135.851C98.1633 136.048 97.7592 136.204 97.2893 136.318Z" fill="#EF4444"/>
<rect x="127.706" y="114.353" width="34.5882" height="34.5882" rx="8.23529" fill="white"/>
<path d="M140.369 136.147L143.861 126.924H146.082L149.626 136.147H147.432L146.714 134.171H143.202L142.504 136.147H140.369ZM143.664 132.524H146.24L144.935 129.058L143.664 132.524Z" fill="#DC2626"/>
<rect x="171.353" y="114.353" width="34.5882" height="34.5882" rx="8.23529" fill="#B91C1C"/>
<path d="M185.489 136.147V126.924H188.921C189.844 126.924 190.581 127.121 191.135 127.517C191.693 127.907 191.972 128.487 191.972 129.256C191.972 129.541 191.91 129.807 191.787 130.053C191.664 130.299 191.502 130.516 191.3 130.705C191.098 130.89 190.876 131.035 190.634 131.14C191.135 131.307 191.541 131.595 191.853 132.003C192.169 132.412 192.327 132.903 192.327 133.479C192.327 134.015 192.193 134.482 191.925 134.882C191.658 135.282 191.278 135.594 190.786 135.818C190.294 136.037 189.707 136.147 189.027 136.147H185.489ZM187.439 134.685H188.737C189.264 134.685 189.657 134.579 189.916 134.368C190.175 134.157 190.305 133.839 190.305 133.413C190.305 133 190.177 132.684 189.923 132.464C189.668 132.24 189.286 132.128 188.776 132.128H187.439V134.685ZM187.439 130.758H188.651C188.945 130.758 189.198 130.71 189.409 130.613C189.624 130.516 189.789 130.378 189.903 130.198C190.021 130.013 190.081 129.792 190.081 129.533C190.081 129.164 189.953 128.88 189.699 128.683C189.448 128.485 189.088 128.386 188.618 128.386H187.439V130.758Z" fill="#EF4444"/>
<rect x="215" y="114.353" width="34.5882" height="34.5882" rx="8.23529" fill="#B91C1C"/>
<path d="M227.664 136.147L231.155 126.924H233.376L236.92 136.147H234.726L234.008 134.171H230.497L229.798 136.147H227.664ZM230.958 132.524H233.534L232.229 129.058L230.958 132.524Z" fill="#EF4444"/>
<rect x="14.8824" y="145.647" width="260.235" height="66.7059" rx="20.5882" fill="#EF4444"/>
<rect x="14.8824" y="145.647" width="260.235" height="66.7059" rx="20.5882" stroke="#B91C1C" stroke-width="4.94118"/>
<rect x="28.8824" y="160.059" width="37.8824" height="37.8824" rx="8.23529" fill="white"/>
<path d="M48.6889 183.722C47.6167 183.722 46.6729 183.502 45.8576 183.063C45.0423 182.618 44.4074 181.993 43.9528 181.188C43.4982 180.377 43.2709 179.426 43.2709 178.334C43.2709 177.538 43.4043 176.81 43.6712 176.148C43.938 175.485 44.316 174.912 44.8052 174.428C45.2943 173.939 45.87 173.563 46.5321 173.301C47.1992 173.035 47.928 172.901 48.7186 172.901C49.5586 172.901 50.2701 173.007 50.8532 173.22C51.4362 173.432 51.96 173.731 52.4245 174.117L51.3127 175.918C51.0113 175.621 50.653 175.399 50.238 175.251C49.8279 175.102 49.3708 175.028 48.8668 175.028C48.3529 175.028 47.8909 175.105 47.4808 175.258C47.0756 175.411 46.7298 175.631 46.4432 175.918C46.1615 176.199 45.9441 176.543 45.7909 176.948C45.6427 177.348 45.5686 177.8 45.5686 178.304C45.5686 178.996 45.702 179.587 45.9688 180.076C46.2406 180.56 46.626 180.933 47.125 181.195C47.629 181.457 48.2294 181.588 48.9261 181.588C49.4103 181.588 49.8847 181.514 50.3492 181.365C50.8186 181.217 51.2608 180.98 51.6759 180.654L52.6839 182.499C52.1947 182.875 51.6215 183.174 50.9643 183.396C50.3072 183.614 49.5487 183.722 48.6889 183.722Z" fill="#DC2626"/>
<rect x="77.4706" y="160.059" width="37.8824" height="37.8824" rx="8.23529" fill="#B91C1C"/>
<path d="M93.0251 183.5V173.124H100.118V175.036H95.219V177.259H99.3696V179.031H95.219V181.566H100.178V183.5H93.0251Z" fill="#EF4444"/>
<rect x="126.059" y="160.059" width="37.8824" height="37.8824" rx="8.23529" fill="#FCA5A5"/>
<path d="M146.866 183.5V175.125H143.397V176.14C143.397 177.351 143.335 178.388 143.212 179.253C143.088 180.113 142.891 180.827 142.619 181.395C142.352 181.963 141.996 182.413 141.552 182.744C141.107 183.075 140.566 183.317 139.928 183.47L139.165 181.64C139.6 181.541 139.956 181.39 140.232 181.188C140.514 180.985 140.734 180.686 140.892 180.291C141.05 179.89 141.159 179.357 141.218 178.69C141.282 178.018 141.314 177.168 141.314 176.14V173.124H149.06V183.5H146.866ZM139.165 186.124V181.64L140.477 181.699L141.196 181.491H150.727V186.124H148.645V183.5H141.248V186.124H139.165Z" fill="white"/>
<rect x="174.647" y="160.059" width="37.8824" height="37.8824" rx="8.23529" fill="#B91C1C"/>
<path d="M189.017 183.693L188.268 181.684C188.604 181.58 188.888 181.462 189.12 181.328C189.358 181.19 189.553 181.005 189.706 180.772C189.864 180.54 189.988 180.234 190.076 179.853C190.165 179.473 190.227 178.989 190.262 178.401C190.296 177.813 190.314 177.091 190.314 176.236V173.124H197.94V183.5H195.746V175.125H192.396V176.14C192.396 177.207 192.362 178.134 192.293 178.92C192.228 179.7 192.12 180.367 191.966 180.921C191.813 181.469 191.606 181.926 191.344 182.292C191.087 182.653 190.766 182.944 190.38 183.166C190 183.389 189.545 183.564 189.017 183.693Z" fill="#EF4444"/>
<rect x="223.235" y="160.059" width="37.8824" height="37.8824" rx="8.23529" fill="white"/>
<path d="M242.175 183.722C241.385 183.722 240.654 183.586 239.982 183.315C239.31 183.038 238.726 182.655 238.232 182.166C237.738 181.677 237.353 181.104 237.076 180.446C236.804 179.789 236.668 179.078 236.668 178.312C236.668 177.541 236.804 176.827 237.076 176.17C237.353 175.513 237.738 174.939 238.232 174.45C238.726 173.961 239.31 173.581 239.982 173.309C240.654 173.037 241.385 172.901 242.175 172.901C242.966 172.901 243.695 173.04 244.362 173.316C245.034 173.593 245.617 173.978 246.111 174.472C246.61 174.967 246.998 175.542 247.275 176.199C247.551 176.852 247.69 177.556 247.69 178.312C247.69 179.078 247.551 179.789 247.275 180.446C246.998 181.104 246.61 181.677 246.111 182.166C245.617 182.655 245.034 183.038 244.362 183.315C243.695 183.586 242.966 183.722 242.175 183.722ZM242.175 181.662C242.635 181.662 243.06 181.583 243.45 181.425C243.841 181.267 244.182 181.042 244.473 180.75C244.765 180.454 244.989 180.1 245.148 179.69C245.311 179.28 245.392 178.821 245.392 178.312C245.392 177.635 245.251 177.047 244.97 176.548C244.688 176.044 244.305 175.653 243.821 175.377C243.337 175.1 242.788 174.962 242.175 174.962C241.721 174.962 241.296 175.041 240.901 175.199C240.51 175.357 240.169 175.582 239.878 175.873C239.591 176.165 239.366 176.518 239.203 176.933C239.045 177.343 238.966 177.803 238.966 178.312C238.966 178.989 239.107 179.579 239.389 180.083C239.67 180.582 240.053 180.97 240.537 181.247C241.022 181.524 241.568 181.662 242.175 181.662Z" fill="#DC2626"/>
<rect x="2.52941" y="195.059" width="284.941" height="70.8235" rx="23.0588" fill="#84CC16"/>
<rect x="2.52941" y="195.059" width="284.941" height="70.8235" rx="23.0588" stroke="white" stroke-width="4.94118"/>
<rect x="17.353" y="209.882" width="41.1765" height="41.1765" rx="8.23529" fill="#D9F99D"/>
<path d="M38.9028 236.718C37.7114 236.718 36.6628 236.473 35.7569 235.985C34.851 235.491 34.1455 234.796 33.6404 233.901C33.1353 233.001 32.8828 231.944 32.8828 230.731C32.8828 229.847 33.031 229.037 33.3275 228.301C33.6239 227.565 34.0439 226.929 34.5875 226.391C35.131 225.847 35.7706 225.43 36.5063 225.139C37.2475 224.842 38.0573 224.694 38.9357 224.694C39.869 224.694 40.6596 224.812 41.3075 225.048C41.9553 225.284 42.5373 225.616 43.0533 226.045L41.8181 228.046C41.4832 227.716 41.0851 227.469 40.6239 227.305C40.1682 227.14 39.6604 227.058 39.1004 227.058C38.5294 227.058 38.0161 227.143 37.5604 227.313C37.1102 227.483 36.7259 227.727 36.4075 228.046C36.0945 228.359 35.853 228.74 35.6828 229.191C35.5181 229.635 35.4357 230.138 35.4357 230.698C35.4357 231.466 35.5839 232.122 35.8804 232.666C36.1824 233.204 36.6106 233.618 37.1651 233.909C37.7251 234.2 38.3922 234.346 39.1663 234.346C39.7043 234.346 40.2314 234.264 40.7475 234.099C41.269 233.934 41.7604 233.671 42.2216 233.308L43.3416 235.359C42.7981 235.776 42.1612 236.108 41.431 236.355C40.7008 236.597 39.8581 236.718 38.9028 236.718Z" fill="#65A30D"/>
<rect x="70.8823" y="209.882" width="41.1765" height="41.1765" rx="8.23529" fill="#D9F99D"/>
<path d="M90.2413 236.471V227.165H87.1119V224.941H95.8249V227.165H92.6955V236.471H90.2413Z" fill="#65A30D"/>
<rect x="124.412" y="209.882" width="41.1765" height="41.1765" rx="8.23529" fill="#D9F99D"/>
<path d="M139.212 236.471L143.577 224.941H146.352L150.782 236.471H148.04L147.142 234H142.753L141.88 236.471H139.212ZM143.33 231.941H146.55L144.919 227.609L143.33 231.941Z" fill="#65A30D"/>
<rect x="177.941" y="209.882" width="41.1765" height="41.1765" rx="8.23529" fill="#D9F99D"/>
<path d="M200.602 236.471V227.165H196.748V228.293C196.748 229.638 196.68 230.791 196.542 231.752C196.405 232.707 196.186 233.5 195.884 234.132C195.587 234.763 195.192 235.263 194.698 235.631C194.204 235.998 193.602 236.267 192.894 236.438L192.046 234.404C192.529 234.294 192.924 234.126 193.232 233.901C193.545 233.676 193.789 233.344 193.965 232.905C194.141 232.46 194.261 231.867 194.327 231.126C194.399 230.379 194.434 229.435 194.434 228.293V224.941H203.04V236.471H200.602ZM192.046 239.386V234.404L193.504 234.469L194.302 234.239H204.893V239.386H202.579V236.471H194.36V239.386H192.046Z" fill="#65A30D"/>
<rect x="231.471" y="209.882" width="41.1765" height="41.1765" rx="8.23529" fill="#D9F99D"/>
<path d="M252.058 236.718C251.179 236.718 250.367 236.567 249.62 236.265C248.873 235.957 248.225 235.532 247.676 234.988C247.127 234.445 246.699 233.808 246.392 233.078C246.09 232.347 245.939 231.557 245.939 230.706C245.939 229.849 246.09 229.056 246.392 228.326C246.699 227.596 247.127 226.959 247.676 226.415C248.225 225.872 248.873 225.449 249.62 225.147C250.367 224.845 251.179 224.694 252.058 224.694C252.936 224.694 253.746 224.848 254.487 225.155C255.234 225.463 255.882 225.891 256.431 226.44C256.985 226.989 257.416 227.629 257.723 228.359C258.031 229.084 258.185 229.866 258.185 230.706C258.185 231.557 258.031 232.347 257.723 233.078C257.416 233.808 256.985 234.445 256.431 234.988C255.882 235.532 255.234 235.957 254.487 236.265C253.746 236.567 252.936 236.718 252.058 236.718ZM252.058 234.428C252.568 234.428 253.04 234.34 253.474 234.165C253.908 233.989 254.287 233.739 254.611 233.415C254.934 233.086 255.184 232.693 255.36 232.238C255.541 231.782 255.632 231.271 255.632 230.706C255.632 229.954 255.475 229.3 255.162 228.746C254.849 228.186 254.424 227.752 253.886 227.445C253.348 227.137 252.738 226.984 252.058 226.984C251.552 226.984 251.08 227.071 250.641 227.247C250.207 227.423 249.829 227.673 249.505 227.996C249.186 228.32 248.936 228.713 248.755 229.174C248.58 229.63 248.492 230.14 248.492 230.706C248.492 231.458 248.648 232.114 248.961 232.674C249.274 233.229 249.7 233.66 250.238 233.967C250.776 234.275 251.382 234.428 252.058 234.428Z" fill="#65A30D"/>
</svg>
