<svg width="300" height="363" viewBox="0 0 300 363" fill="none" xmlns="http://www.w3.org/2000/svg">
<g clip-path="url(#clip0_105_2094)">
<rect width="132.268" height="132.254" rx="25" transform="matrix(0.965934 -0.258789 0.258849 0.965918 30.2549 37.2297)" fill="#FBBF24"/>
<circle cx="35.3655" cy="35.3655" r="35.3655" transform="matrix(0.965934 -0.258789 0.258849 0.965918 46.498 46.6077)" fill="#F59E0B"/>
<path d="M80.0881 88.4593C78.1219 81.1225 82.4759 73.5813 89.8128 71.6156C97.1498 69.6499 104.691 74.0041 106.658 81.3409" stroke="white" stroke-width="4.7154" stroke-linecap="round" stroke-linejoin="round"/>
<path d="M89.8129 71.6155C94.0053 70.4923 96.4933 66.1829 95.3698 61.9905C94.2463 57.7981 89.9368 55.31 85.7443 56.4332C81.5517 57.5565 79.0638 61.8657 80.1873 66.0582C81.3108 70.2506 85.6203 72.7388 89.8129 71.6155Z" stroke="white" stroke-width="4.7154" stroke-linecap="round" stroke-linejoin="round"/>
<path d="M77.7246 147.349L75.4523 144.608C76.4723 144.179 77.3651 143.702 78.1304 143.177C78.8958 142.651 79.5447 142.084 80.077 141.474C80.6179 140.863 81.0437 140.231 81.3544 139.581C81.6714 138.919 81.8896 138.247 82.0089 137.565C81.7201 137.991 81.3458 138.37 80.8861 138.704C80.4325 139.027 79.9282 139.262 79.3731 139.411C78.2373 139.716 77.1546 139.74 76.1252 139.485C75.0957 139.23 74.2049 138.741 73.4528 138.018C72.707 137.284 72.1841 136.358 71.8843 135.239C71.5845 134.12 71.6006 133.036 71.9325 131.986C72.2644 130.936 72.8729 130.013 73.7581 129.218C74.6411 128.414 75.7487 127.833 77.0809 127.476C78.4388 127.113 79.7208 127.08 80.9269 127.38C82.1415 127.677 83.1961 128.282 84.0908 129.195C84.9833 130.101 85.6286 131.296 86.0268 132.782C86.4387 134.319 86.5271 135.81 86.292 137.255C86.0568 138.701 85.5522 140.062 84.778 141.341C84.0124 142.617 83.026 143.769 81.8187 144.797C80.6177 145.815 79.253 146.665 77.7246 147.349ZM79.3604 135.982C79.8984 135.838 80.3512 135.598 80.7187 135.261C81.0862 134.925 81.3423 134.531 81.4869 134.081C81.6293 133.621 81.6353 133.148 81.5049 132.662C81.3721 132.166 81.1316 131.764 80.7832 131.455C80.4411 131.134 80.0268 130.92 79.5403 130.813C79.0538 130.705 78.5372 130.725 77.9906 130.871C77.4441 131.017 76.987 131.259 76.6195 131.595C76.252 131.932 75.9959 132.325 75.8513 132.776C75.7128 133.216 75.71 133.683 75.8427 134.179C75.9732 134.665 76.2149 135.072 76.5678 135.399C76.9185 135.717 77.337 135.929 77.8235 136.037C78.3101 136.145 78.8223 136.126 79.3604 135.982ZM99.1624 141.606C97.9497 141.931 96.8041 141.977 95.7257 141.744C94.6473 141.511 93.668 141.05 92.7878 140.362C91.9076 139.673 91.1457 138.811 90.502 137.775C89.8668 136.737 89.3776 135.578 89.0343 134.297C88.6887 133.007 88.5314 131.754 88.5624 130.537C88.6019 129.319 88.8318 128.195 89.252 127.167C89.6699 126.131 90.2876 125.242 91.1051 124.502C91.9226 123.761 92.9377 123.228 94.1504 122.903C95.3546 122.581 96.4959 122.536 97.5743 122.768C98.6527 123.001 99.632 123.462 100.512 124.151C101.39 124.831 102.147 125.69 102.782 126.728C103.425 127.764 103.92 128.926 104.266 130.216C104.609 131.497 104.761 132.747 104.721 133.966C104.69 135.182 104.466 136.309 104.048 137.345C103.63 138.381 103.012 139.27 102.195 140.011C101.377 140.752 100.367 141.283 99.1624 141.606ZM98.184 137.955C98.7221 137.811 99.1757 137.557 99.5449 137.192C99.9226 136.826 100.205 136.361 100.393 135.798C100.579 135.226 100.662 134.563 100.643 133.809C100.624 133.054 100.49 132.216 100.243 131.293C99.9137 130.064 99.4862 129.066 98.9607 128.301C98.433 127.527 97.8417 126.994 97.187 126.703C96.5299 126.403 95.8427 126.349 95.1254 126.541C94.5873 126.685 94.1306 126.945 93.7552 127.32C93.3774 127.687 93.0958 128.156 92.9103 128.727C92.7224 129.29 92.6381 129.949 92.6573 130.704C92.6849 131.456 92.8224 132.293 93.0695 133.215C93.3991 134.445 93.8223 135.444 94.3393 136.212C94.8647 136.977 95.456 137.51 96.113 137.81C96.7678 138.101 97.4581 138.149 98.184 137.955ZM116.701 136.907C115.489 137.232 114.343 137.278 113.265 137.045C112.186 136.812 111.207 136.351 110.327 135.663C109.447 134.974 108.685 134.112 108.041 133.076C107.406 132.038 106.917 130.879 106.573 129.598C106.228 128.308 106.07 127.055 106.101 125.838C106.141 124.62 106.371 123.496 106.791 122.468C107.209 121.432 107.827 120.543 108.644 119.803C109.462 119.062 110.477 118.529 111.689 118.204C112.894 117.882 114.035 117.837 115.113 118.069C116.192 118.302 117.171 118.763 118.051 119.452C118.929 120.132 119.686 120.991 120.321 122.029C120.965 123.065 121.459 124.227 121.805 125.517C122.148 126.798 122.3 128.048 122.26 129.267C122.229 130.483 122.005 131.61 121.587 132.646C121.169 133.682 120.551 134.571 119.734 135.312C118.916 136.053 117.906 136.584 116.701 136.907ZM115.723 133.256C116.261 133.112 116.715 132.858 117.084 132.493C117.462 132.127 117.744 131.662 117.932 131.099C118.118 130.527 118.201 129.864 118.182 129.11C118.163 128.355 118.03 127.517 117.782 126.594C117.453 125.365 117.025 124.367 116.5 123.602C115.972 122.828 115.381 122.295 114.726 122.004C114.069 121.704 113.382 121.65 112.664 121.842C112.126 121.986 111.67 122.246 111.294 122.621C110.916 122.988 110.635 123.457 110.449 124.028C110.262 124.591 110.177 125.25 110.196 126.005C110.224 126.757 110.361 127.594 110.609 128.516C110.938 129.746 111.361 130.745 111.878 131.513C112.404 132.278 112.995 132.811 113.652 133.111C114.307 133.402 114.997 133.45 115.723 133.256ZM134.241 132.208C133.028 132.533 131.882 132.579 130.804 132.346C129.725 132.113 128.746 131.652 127.866 130.964C126.986 130.275 126.224 129.413 125.58 128.377C124.945 127.339 124.456 126.18 124.112 124.899C123.767 123.609 123.61 122.356 123.641 121.139C123.68 119.921 123.91 118.797 124.33 117.769C124.748 116.733 125.366 115.844 126.183 115.104C127.001 114.363 128.016 113.83 129.229 113.505C130.433 113.183 131.574 113.138 132.652 113.37C133.731 113.603 134.71 114.064 135.59 114.753C136.468 115.433 137.225 116.292 137.86 117.33C138.504 118.366 138.998 119.528 139.344 120.818C139.687 122.099 139.839 123.349 139.799 124.568C139.769 125.784 139.544 126.911 139.126 127.947C138.708 128.983 138.091 129.872 137.273 130.613C136.456 131.354 135.445 131.885 134.241 132.208ZM133.262 128.557C133.8 128.413 134.254 128.159 134.623 127.794C135.001 127.428 135.283 126.963 135.471 126.4C135.657 125.828 135.74 125.165 135.721 124.411C135.702 123.656 135.569 122.818 135.321 121.896C134.992 120.666 134.564 119.668 134.039 118.903C133.511 118.129 132.92 117.596 132.265 117.305C131.608 117.005 130.921 116.951 130.203 117.143C129.665 117.287 129.209 117.547 128.833 117.922C128.456 118.289 128.174 118.758 127.988 119.329C127.801 119.892 127.716 120.551 127.735 121.306C127.763 122.058 127.9 122.895 128.148 123.817C128.477 125.047 128.9 126.046 129.417 126.814C129.943 127.579 130.534 128.112 131.191 128.412C131.846 128.703 132.536 128.751 133.262 128.557Z" fill="white"/>
<g clip-path="url(#clip1_105_2094)">
<path d="M151.823 114.521L152.785 109.749C152.909 109.136 153.684 108.929 154.097 109.397L157.317 113.049L162.175 112.476C162.798 112.402 163.234 113.071 162.912 113.608L160.407 117.79L162.446 122.205C162.708 122.771 162.202 123.393 161.59 123.256L156.822 122.19L153.227 125.496C152.765 125.921 152.017 125.636 151.96 125.014L151.518 120.172L147.257 117.802C146.71 117.498 146.753 116.701 147.329 116.453L151.823 114.521Z" fill="white" stroke="white" stroke-width="1.25" stroke-linecap="round" stroke-linejoin="round"/>
</g>
</g>
<rect x="-4.89913" y="-2.82851" width="140.268" height="140.254" rx="29" transform="matrix(0.965934 -0.258789 0.258849 0.965918 30.8201 35.8655)" stroke="white" stroke-width="8"/>
<g clip-path="url(#clip2_105_2094)">
<rect width="132.265" height="132.257" rx="25" transform="matrix(0.866052 -0.499953 0.500047 0.865999 0 248.465)" fill="#F97316"/>
<circle cx="35.3655" cy="35.3655" r="35.3655" transform="matrix(0.866052 -0.499953 0.500047 0.865999 18.1172 253.32)" fill="#EA580C"/>
<path d="M61.396 285.052C57.5978 278.474 59.8515 270.063 66.4298 266.265C73.0081 262.468 81.4198 264.722 85.2181 271.3" stroke="white" stroke-width="4.7154" stroke-linecap="round" stroke-linejoin="round"/>
<path d="M66.4298 266.265C70.1887 264.095 71.4766 259.289 69.3062 255.53C67.1358 251.772 62.329 250.484 58.57 252.654C54.811 254.824 53.5232 259.63 55.6936 263.389C57.864 267.147 62.6707 268.435 66.4298 266.265Z" stroke="white" stroke-width="4.7154" stroke-linecap="round" stroke-linejoin="round"/>
<path d="M77.2984 340.847C76.2494 341.452 75.1716 341.876 74.065 342.116C72.9584 342.357 71.9463 342.39 71.0287 342.215L70.4022 338.611C71.1994 338.824 72.0187 338.846 72.8602 338.677C73.6973 338.5 74.4911 338.195 75.2415 337.762C75.8311 337.422 76.2916 337.043 76.6232 336.627C76.9623 336.207 77.1473 335.758 77.1781 335.281C77.2165 334.8 77.0854 334.298 76.7848 333.778C76.5328 333.341 76.1914 333.033 75.7607 332.853C75.3376 332.668 74.8592 332.618 74.3255 332.701C73.795 332.773 73.235 332.979 72.6454 333.319C72.2626 333.54 71.8871 333.818 71.519 334.153C71.1509 334.488 70.8077 334.875 70.4895 335.314L67.9327 334.493L64.3991 326.411L73.6698 321.09L75.5465 324.34L68.9078 328.172L70.165 331.198C70.4086 330.966 70.6571 330.751 70.9107 330.553C71.1719 330.352 71.4518 330.164 71.7504 329.992C72.8607 329.351 73.9602 328.992 75.0488 328.915C76.1452 328.833 77.16 329.044 78.0934 329.546C79.0223 330.041 79.7984 330.828 80.4218 331.908C81.0496 332.995 81.3353 334.091 81.2788 335.196C81.2256 336.288 80.8601 337.326 80.1823 338.309C79.5078 339.28 78.5465 340.126 77.2984 340.847ZM92.6167 332.004C91.5294 332.632 90.4347 332.973 89.3328 333.027C88.2309 333.081 87.1657 332.889 86.1372 332.452C85.1087 332.015 84.1496 331.379 83.2597 330.545C82.3775 329.707 81.6048 328.714 80.9416 327.565C80.274 326.409 79.7978 325.239 79.5128 324.056C79.2355 322.869 79.1668 321.724 79.3066 320.623C79.442 319.513 79.8087 318.495 80.4066 317.568C81.0045 316.641 81.8472 315.864 82.9345 315.236C84.0141 314.613 85.1049 314.274 86.2069 314.22C87.3088 314.166 88.374 314.357 89.4025 314.795C90.4265 315.224 91.3796 315.858 92.2619 316.697C93.1517 317.53 93.9305 318.525 94.598 319.682C95.2612 320.83 95.7314 321.998 96.0087 323.186C96.2937 324.369 96.3685 325.515 96.2331 326.624C96.0977 327.733 95.731 328.751 95.1331 329.678C94.5351 330.606 93.6963 331.381 92.6167 332.004ZM90.7267 328.731C91.2091 328.452 91.5814 328.089 91.8437 327.642C92.1137 327.19 92.2665 326.668 92.3022 326.076C92.3335 325.476 92.2423 324.814 92.0285 324.09C91.8147 323.366 91.469 322.59 90.9916 321.763C90.3549 320.661 89.6838 319.808 88.9781 319.205C88.268 318.594 87.559 318.232 86.8511 318.12C86.1388 318.001 85.4611 318.126 84.8179 318.498C84.3355 318.776 83.9615 319.145 83.696 319.605C83.426 320.057 83.2754 320.583 83.2441 321.183C83.2083 321.775 83.2974 322.433 83.5112 323.157C83.7326 323.876 84.0821 324.65 84.5596 325.477C85.1962 326.579 85.8636 327.434 86.5616 328.042C87.2673 328.645 87.9763 329.007 88.6886 329.126C89.3964 329.238 90.0758 329.107 90.7267 328.731ZM108.342 322.926C107.255 323.554 106.16 323.895 105.058 323.949C103.956 324.003 102.891 323.812 101.863 323.374C100.834 322.937 99.875 322.301 98.9851 321.467C98.1029 320.629 97.3302 319.636 96.6671 318.487C95.9995 317.331 95.5232 316.161 95.2383 314.978C94.961 313.791 94.8922 312.646 95.032 311.545C95.1675 310.435 95.5341 309.417 96.1321 308.49C96.73 307.563 97.5726 306.786 98.6599 306.158C99.7396 305.535 100.83 305.196 101.932 305.142C103.034 305.088 104.099 305.279 105.128 305.717C106.152 306.146 107.105 306.78 107.987 307.619C108.877 308.452 109.656 309.447 110.323 310.604C110.987 311.752 111.457 312.92 111.734 314.108C112.019 315.291 112.094 316.437 111.959 317.546C111.823 318.655 111.456 319.673 110.858 320.601C110.261 321.528 109.422 322.303 108.342 322.926ZM106.452 319.653C106.935 319.374 107.307 319.011 107.569 318.564C107.839 318.112 107.992 317.59 108.028 316.998C108.059 316.398 107.968 315.736 107.754 315.012C107.54 314.288 107.194 313.512 106.717 312.686C106.08 311.583 105.409 310.73 104.704 310.127C103.993 309.516 103.284 309.154 102.577 309.042C101.864 308.923 101.187 309.048 100.543 309.42C100.061 309.698 99.6869 310.067 99.4214 310.527C99.1515 310.979 99.0008 311.505 98.9695 312.105C98.9338 312.697 99.0228 313.355 99.2366 314.079C99.4581 314.798 99.8076 315.572 100.285 316.399C100.922 317.501 101.589 318.356 102.287 318.964C102.993 319.567 103.702 319.929 104.414 320.048C105.122 320.16 105.801 320.029 106.452 319.653ZM124.068 313.848C122.98 314.476 121.886 314.817 120.784 314.871C119.682 314.925 118.617 314.734 117.588 314.296C116.56 313.859 115.6 313.223 114.711 312.389C113.828 311.551 113.056 310.558 112.393 309.409C111.725 308.253 111.249 307.083 110.964 305.9C110.686 304.713 110.618 303.568 110.757 302.467C110.893 301.357 111.26 300.339 111.858 299.412C112.455 298.485 113.298 297.708 114.385 297.08C115.465 296.457 116.556 296.118 117.658 296.064C118.76 296.01 119.825 296.201 120.853 296.639C121.877 297.068 122.831 297.702 123.713 298.541C124.603 299.374 125.381 300.369 126.049 301.526C126.712 302.674 127.182 303.842 127.46 305.03C127.745 306.213 127.819 307.359 127.684 308.468C127.549 309.577 127.182 310.595 126.584 311.523C125.986 312.45 125.147 313.225 124.068 313.848ZM122.178 310.575C122.66 310.296 123.032 309.933 123.295 309.486C123.565 309.034 123.717 308.512 123.753 307.92C123.784 307.32 123.693 306.658 123.479 305.934C123.266 305.21 122.92 304.434 122.442 303.608C121.806 302.505 121.135 301.652 120.429 301.049C119.719 300.438 119.01 300.076 118.302 299.964C117.59 299.845 116.912 299.97 116.269 300.342C115.786 300.62 115.412 300.989 115.147 301.449C114.877 301.901 114.726 302.427 114.695 303.027C114.659 303.619 114.748 304.277 114.962 305.001C115.184 305.72 115.533 306.494 116.01 307.321C116.647 308.423 117.314 309.278 118.012 309.886C118.718 310.489 119.427 310.851 120.139 310.97C120.847 311.082 121.527 310.951 122.178 310.575Z" fill="white"/>
<g clip-path="url(#clip3_105_2094)">
<path d="M136.567 292.159L136.262 287.301C136.222 286.677 136.918 286.276 137.438 286.622L141.493 289.316L146.037 287.505C146.62 287.272 147.214 287.806 147.043 288.408L145.705 293.096L148.817 296.832C149.217 297.312 148.889 298.043 148.262 298.069L143.381 298.273L140.764 302.397C140.428 302.927 139.631 302.845 139.415 302.259L137.735 297.697L133.006 296.511C132.399 296.358 132.234 295.577 132.727 295.188L136.567 292.159Z" fill="white" stroke="white" stroke-width="1.25" stroke-linecap="round" stroke-linejoin="round"/>
</g>
</g>
<rect x="-5.4644" y="-1.46418" width="140.265" height="140.257" rx="29" transform="matrix(0.866052 -0.499953 0.500047 0.865999 0.000214871 245.537)" stroke="white" stroke-width="8"/>
<g clip-path="url(#clip4_105_2094)">
<rect width="132.265" height="132.257" rx="25" transform="matrix(0.866052 0.499953 -0.500047 0.865999 185.451 106.157)" fill="#A3A3A3"/>
<circle cx="35.3655" cy="35.3655" r="35.3655" transform="matrix(0.866052 0.499953 -0.500047 0.865999 190.305 124.273)" fill="#737373"/>
<g clip-path="url(#clip5_105_2094)">
<path d="M184.461 177.615C188.259 171.037 196.671 168.783 203.249 172.58C209.827 176.378 212.081 184.789 208.283 191.367" stroke="white" stroke-width="4.7154" stroke-linecap="round" stroke-linejoin="round"/>
<path d="M203.249 172.58C207.008 174.75 211.815 173.462 213.985 169.703C216.156 165.945 214.868 161.138 211.109 158.968C207.35 156.798 202.543 158.086 200.373 161.845C198.202 165.604 199.49 170.41 203.249 172.58Z" stroke="white" stroke-width="4.7154" stroke-linecap="round" stroke-linejoin="round"/>
</g>
<path d="M144.678 219.625C143.415 218.895 142.453 218.059 141.792 217.116C141.144 216.171 140.793 215.197 140.738 214.195C140.683 213.194 140.919 212.238 141.445 211.327C141.816 210.683 142.261 210.169 142.779 209.785C143.305 209.404 143.889 209.144 144.532 209.004C145.181 208.869 145.874 208.855 146.608 208.963C146.187 208.383 145.907 207.665 145.769 206.809C145.63 205.953 145.824 205.07 146.35 204.158C146.845 203.301 147.522 202.676 148.382 202.284C149.245 201.884 150.205 201.734 151.261 201.833C152.316 201.932 153.376 202.289 154.441 202.903C155.528 203.531 156.376 204.281 156.985 205.153C157.607 206.022 157.96 206.93 158.046 207.878C158.136 208.818 157.936 209.713 157.445 210.563C157.091 211.176 156.671 211.648 156.183 211.979C155.704 212.315 155.197 212.538 154.664 212.648C154.138 212.763 153.639 212.797 153.166 212.749C153.79 213.578 154.163 214.488 154.286 215.478C154.413 216.46 154.202 217.425 153.654 218.375C153.128 219.286 152.391 219.953 151.443 220.375C150.494 220.797 149.429 220.953 148.247 220.843C147.078 220.729 145.888 220.323 144.678 219.625ZM146.47 216.708C146.914 216.964 147.38 217.121 147.867 217.178C148.36 217.227 148.823 217.158 149.258 216.97C149.706 216.779 150.071 216.439 150.354 215.949C150.637 215.459 150.754 214.98 150.707 214.514C150.668 214.052 150.501 213.625 150.208 213.231C149.919 212.829 149.537 212.491 149.062 212.217C148.35 211.806 147.629 211.65 146.898 211.749C146.179 211.844 145.612 212.252 145.197 212.972C144.914 213.462 144.794 213.944 144.836 214.417C144.884 214.884 145.052 215.318 145.34 215.719C145.641 216.117 146.018 216.447 146.47 216.708ZM150.73 209.382C151.167 209.634 151.603 209.779 152.041 209.817C152.478 209.855 152.877 209.784 153.236 209.604C153.596 209.423 153.884 209.146 154.1 208.77C154.427 208.204 154.489 207.611 154.284 206.993C154.08 206.375 153.644 205.873 152.978 205.489C152.542 205.237 152.1 205.1 151.654 205.077C151.22 205.051 150.821 205.132 150.457 205.32C150.093 205.508 149.803 205.79 149.586 206.165C149.259 206.731 149.202 207.316 149.416 207.919C149.641 208.519 150.079 209.007 150.73 209.382ZM159.684 228.287C158.597 227.66 157.754 226.882 157.156 225.955C156.559 225.028 156.192 224.01 156.056 222.901C155.921 221.791 155.992 220.643 156.269 219.456C156.554 218.272 157.028 217.107 157.691 215.958C158.359 214.802 159.134 213.805 160.016 212.967C160.906 212.133 161.863 211.501 162.887 211.071C163.915 210.634 164.981 210.442 166.083 210.496C167.185 210.551 168.279 210.892 169.367 211.519C170.446 212.143 171.285 212.918 171.883 213.845C172.481 214.772 172.847 215.79 172.983 216.899C173.123 218.001 173.05 219.143 172.765 220.326C172.488 221.514 172.015 222.686 171.348 223.842C170.685 224.99 169.908 225.981 169.018 226.815C168.136 227.654 167.181 228.291 166.152 228.729C165.124 229.166 164.059 229.358 162.957 229.303C161.855 229.249 160.764 228.911 159.684 228.287ZM161.574 225.014C162.057 225.293 162.557 225.433 163.076 225.437C163.602 225.445 164.131 225.316 164.662 225.051C165.197 224.778 165.725 224.368 166.245 223.821C166.765 223.274 167.264 222.587 167.741 221.76C168.378 220.657 168.781 219.65 168.951 218.737C169.125 217.817 169.084 217.022 168.827 216.353C168.574 215.676 168.126 215.152 167.483 214.781C167.001 214.503 166.494 214.363 165.963 214.363C165.437 214.355 164.906 214.488 164.371 214.761C163.84 215.026 163.314 215.432 162.794 215.979C162.282 216.531 161.787 217.22 161.309 218.047C160.673 219.149 160.266 220.155 160.088 221.063C159.919 221.976 159.96 222.77 160.213 223.447C160.47 224.116 160.923 224.638 161.574 225.014ZM175.41 237.365C174.322 236.738 173.48 235.96 172.882 235.033C172.284 234.106 171.917 233.088 171.782 231.979C171.646 230.869 171.717 229.721 171.995 228.533C172.28 227.35 172.754 226.185 173.417 225.036C174.084 223.88 174.859 222.883 175.742 222.045C176.631 221.211 177.588 220.579 178.612 220.149C179.641 219.712 180.706 219.52 181.808 219.574C182.91 219.629 184.005 219.97 185.092 220.597C186.172 221.221 187.01 221.996 187.608 222.923C188.206 223.85 188.573 224.868 188.708 225.977C188.848 227.079 188.776 228.221 188.491 229.404C188.213 230.592 187.741 231.764 187.073 232.92C186.41 234.068 185.634 235.059 184.744 235.893C183.862 236.732 182.906 237.369 181.878 237.807C180.849 238.244 179.784 238.436 178.682 238.381C177.58 238.327 176.489 237.988 175.41 237.365ZM177.3 234.092C177.782 234.371 178.283 234.511 178.801 234.515C179.328 234.523 179.856 234.394 180.387 234.129C180.923 233.856 181.45 233.446 181.97 232.899C182.491 232.352 182.989 231.665 183.467 230.838C184.103 229.735 184.507 228.728 184.676 227.815C184.85 226.894 184.809 226.1 184.552 225.431C184.3 224.754 183.852 224.23 183.209 223.859C182.726 223.58 182.22 223.441 181.689 223.441C181.162 223.433 180.632 223.566 180.096 223.839C179.565 224.104 179.04 224.51 178.52 225.057C178.007 225.609 177.512 226.298 177.035 227.125C176.398 228.227 175.991 229.233 175.814 230.141C175.644 231.054 175.686 231.848 175.938 232.525C176.195 233.194 176.649 233.716 177.3 234.092ZM191.135 246.443C190.048 245.816 189.205 245.038 188.607 244.111C188.009 243.184 187.643 242.166 187.507 241.057C187.372 239.947 187.443 238.799 187.72 237.611C188.005 236.428 188.479 235.263 189.142 234.114C189.81 232.958 190.585 231.961 191.467 231.122C192.357 230.289 193.314 229.657 194.338 229.227C195.366 228.79 196.432 228.598 197.534 228.652C198.635 228.707 199.73 229.048 200.817 229.675C201.897 230.298 202.736 231.074 203.334 232.001C203.932 232.928 204.298 233.946 204.434 235.055C204.574 236.157 204.501 237.299 204.216 238.482C203.939 239.67 203.466 240.842 202.799 241.998C202.136 243.146 201.359 244.137 200.469 244.971C199.587 245.809 198.632 246.447 197.603 246.885C196.575 247.322 195.51 247.514 194.408 247.459C193.306 247.405 192.215 247.066 191.135 246.443ZM193.025 243.17C193.508 243.448 194.008 243.589 194.527 243.593C195.053 243.601 195.582 243.472 196.113 243.207C196.648 242.934 197.176 242.524 197.696 241.977C198.216 241.43 198.715 240.743 199.192 239.916C199.829 238.813 200.232 237.806 200.402 236.893C200.576 235.972 200.534 235.178 200.278 234.509C200.025 233.832 199.577 233.308 198.934 232.937C198.452 232.658 197.945 232.519 197.414 232.519C196.888 232.511 196.357 232.644 195.822 232.917C195.291 233.182 194.765 233.588 194.245 234.135C193.733 234.687 193.238 235.376 192.76 236.203C192.124 237.305 191.717 238.311 191.539 239.219C191.37 240.132 191.411 240.926 191.664 241.603C191.92 242.272 192.374 242.794 193.025 243.17Z" fill="white"/>
<g clip-path="url(#clip6_105_2094)">
<path d="M215.89 246.261L219.945 243.567C220.466 243.221 221.161 243.622 221.122 244.246L220.816 249.104L224.657 252.134C225.149 252.522 224.984 253.303 224.377 253.456L219.648 254.642L217.968 259.204C217.752 259.79 216.955 259.872 216.619 259.342L214.002 255.218L209.121 255.014C208.495 254.988 208.167 254.257 208.566 253.777L211.678 250.041L210.341 245.353C210.169 244.751 210.763 244.217 211.346 244.45L215.89 246.261Z" fill="white" stroke="white" stroke-width="1.25" stroke-linecap="round" stroke-linejoin="round"/>
</g>
</g>
<rect x="-1.46402" y="-5.46381" width="140.265" height="140.257" rx="29" transform="matrix(0.866052 0.499953 -0.500047 0.865999 182.523 106.157)" stroke="white" stroke-width="8"/>
<defs>
<clipPath id="clip0_105_2094">
<rect width="132.268" height="132.254" rx="25" transform="matrix(0.965934 -0.258789 0.258849 0.965918 30.2549 37.2297)" fill="white"/>
</clipPath>
<clipPath id="clip1_105_2094">
<rect width="20" height="20" fill="white" transform="matrix(0.965934 -0.258789 0.258849 0.965918 143.134 109.743)"/>
</clipPath>
<clipPath id="clip2_105_2094">
<rect width="132.265" height="132.257" rx="25" transform="matrix(0.866052 -0.499953 0.500047 0.865999 0 248.465)" fill="white"/>
</clipPath>
<clipPath id="clip3_105_2094">
<rect width="20" height="20" fill="white" transform="matrix(0.866052 -0.499953 0.500047 0.865999 126.938 289.793)"/>
</clipPath>
<clipPath id="clip4_105_2094">
<rect width="132.265" height="132.257" rx="25" transform="matrix(0.866052 0.499953 -0.500047 0.865999 185.451 106.157)" fill="white"/>
</clipPath>
<clipPath id="clip5_105_2094">
<rect width="47.154" height="47.154" fill="white" transform="matrix(0.866052 0.499953 -0.500047 0.865999 194.62 140.375)"/>
</clipPath>
<clipPath id="clip6_105_2094">
<rect width="20" height="20" fill="white" transform="matrix(0.866052 0.499953 -0.500047 0.865999 213.125 236.739)"/>
</clipPath>
</defs>
</svg>
