<svg width="290" height="208" viewBox="0 0 290 208" fill="none" xmlns="http://www.w3.org/2000/svg">
<rect x="40" y="2.94118" width="210" height="53.5294" rx="16.0588" fill="#EF4444"/>
<rect x="40" y="2.94118" width="210" height="53.5294" rx="16.0588" stroke="#B91C1C" stroke-width="4.11765"/>
<rect x="51.1176" y="14.0588" width="31.2941" height="31.2941" rx="6.58824" fill="#FCA5A5"/>
<path d="M67.4378 33.8789C66.6038 33.8789 65.8698 33.7079 65.2357 33.3658C64.6015 33.0199 64.1077 32.5338 63.7541 31.9073C63.4006 31.2771 63.2238 30.5373 63.2238 29.6879C63.2238 29.0692 63.3275 28.5023 63.5351 27.9873C63.7426 27.4724 64.0366 27.0266 64.4171 26.6499C64.7975 26.2695 65.2453 25.9774 65.7603 25.7737C66.2791 25.5662 66.8459 25.4624 67.4608 25.4624C68.1142 25.4624 68.6676 25.545 69.1211 25.7103C69.5746 25.8755 69.9819 26.108 70.3432 26.4078L69.4785 27.8086C69.2441 27.578 68.9654 27.4051 68.6426 27.2898C68.3236 27.1745 67.9681 27.1169 67.5761 27.1169C67.1765 27.1169 66.8171 27.1764 66.4981 27.2956C66.183 27.4147 65.914 27.5857 65.6911 27.8086C65.472 28.0277 65.3029 28.2948 65.1838 28.6099C65.0685 28.9212 65.0108 29.2729 65.0108 29.6649C65.0108 30.2029 65.1146 30.6622 65.3221 31.0426C65.5335 31.4193 65.8333 31.7094 66.2214 31.9131C66.6134 32.1168 67.0804 32.2186 67.6223 32.2186C67.9989 32.2186 68.3678 32.161 68.7291 32.0457C69.0942 31.9304 69.4381 31.7459 69.761 31.4923L70.545 32.9277C70.1645 33.2198 69.7187 33.4523 69.2075 33.6252C68.6964 33.7943 68.1065 33.8789 67.4378 33.8789Z" fill="#B91C1C"/>
<rect x="90.2353" y="14.0588" width="31.2941" height="31.2941" rx="6.58824" fill="#FCA5A5"/>
<path d="M102.327 33.8558L101.744 32.2936C102.006 32.2129 102.227 32.1206 102.407 32.0169C102.592 31.9093 102.744 31.7651 102.863 31.5845C102.986 31.4039 103.082 31.1656 103.151 30.8697C103.22 30.5738 103.268 30.1971 103.295 29.7398C103.322 29.2825 103.335 28.7214 103.335 28.0565V25.6353H109.267V33.7059H107.561V27.1918H104.955V27.9816C104.955 28.8117 104.928 29.5323 104.875 30.1433C104.825 30.7506 104.74 31.2694 104.621 31.6998C104.502 32.1264 104.34 32.4819 104.137 32.7663C103.937 33.0468 103.687 33.2736 103.387 33.4465C103.091 33.6195 102.738 33.7559 102.327 33.8558Z" fill="#B91C1C"/>
<rect x="129.353" y="14.0588" width="31.2941" height="31.2941" rx="6.58824" fill="#FCA5A5"/>
<path d="M144.999 33.8789C144.384 33.8789 143.815 33.7732 143.293 33.5618C142.77 33.3466 142.317 33.0488 141.932 32.6683C141.548 32.2878 141.248 31.842 141.033 31.3309C140.822 30.8197 140.716 30.2663 140.716 29.6706C140.716 29.0711 140.822 28.5158 141.033 28.0046C141.248 27.4935 141.548 27.0477 141.932 26.6672C142.317 26.2868 142.77 25.9908 143.293 25.7795C143.815 25.5681 144.384 25.4624 144.999 25.4624C145.614 25.4624 146.181 25.57 146.7 25.7852C147.222 26.0004 147.676 26.3002 148.06 26.6845C148.448 27.0688 148.75 27.5166 148.965 28.0277C149.18 28.535 149.288 29.0826 149.288 29.6706C149.288 30.2663 149.18 30.8197 148.965 31.3309C148.75 31.842 148.448 32.2878 148.06 32.6683C147.676 33.0488 147.222 33.3466 146.7 33.5618C146.181 33.7732 145.614 33.8789 144.999 33.8789ZM144.999 32.2763C145.357 32.2763 145.687 32.2148 145.991 32.0918C146.294 31.9688 146.559 31.794 146.786 31.5672C147.013 31.3366 147.188 31.0619 147.311 30.7429C147.438 30.4239 147.501 30.0665 147.501 29.6706C147.501 29.1441 147.391 28.6868 147.172 28.2986C146.953 27.9066 146.656 27.603 146.279 27.3878C145.902 27.1726 145.476 27.065 144.999 27.065C144.646 27.065 144.315 27.1265 144.008 27.2495C143.704 27.3724 143.439 27.5473 143.212 27.774C142.989 28.0008 142.814 28.2756 142.687 28.5984C142.565 28.9174 142.503 29.2748 142.503 29.6706C142.503 30.1971 142.613 30.6564 142.832 31.0484C143.051 31.4366 143.349 31.7382 143.725 31.9535C144.102 32.1687 144.526 32.2763 144.999 32.2763Z" fill="#B91C1C"/>
<rect x="168.471" y="14.0588" width="31.2941" height="31.2941" rx="6.58824" fill="#FCA5A5"/>
<path d="M181.354 33.7059V25.6353H184.358C185.165 25.6353 185.81 25.8083 186.294 26.1542C186.783 26.4962 187.027 27.0035 187.027 27.676C187.027 27.9259 186.973 28.1584 186.865 28.3736C186.758 28.5888 186.615 28.779 186.439 28.9443C186.262 29.1057 186.068 29.2325 185.856 29.3248C186.294 29.4708 186.65 29.7225 186.923 30.0799C187.2 30.4373 187.338 30.8678 187.338 31.3712C187.338 31.8401 187.221 32.2494 186.986 32.5991C186.752 32.9488 186.419 33.2217 185.989 33.4177C185.558 33.6099 185.045 33.7059 184.45 33.7059H181.354ZM183.06 32.4262H184.196C184.657 32.4262 185.001 32.3339 185.228 32.1495C185.455 31.965 185.568 31.6864 185.568 31.3136C185.568 30.9523 185.457 30.6756 185.234 30.4835C185.011 30.2875 184.676 30.1895 184.231 30.1895H183.06V32.4262ZM183.06 28.9904H184.121C184.379 28.9904 184.6 28.9481 184.784 28.8636C184.972 28.779 185.117 28.658 185.216 28.5004C185.32 28.339 185.372 28.1449 185.372 27.9182C185.372 27.5953 185.261 27.3475 185.038 27.1745C184.819 27.0016 184.504 26.9151 184.092 26.9151H183.06V28.9904Z" fill="#B91C1C"/>
<rect x="207.588" y="14.0588" width="31.2941" height="31.2941" rx="6.58824" fill="#FCA5A5"/>
<path d="M223.234 33.8789C222.62 33.8789 222.051 33.7732 221.528 33.5618C221.005 33.3466 220.552 33.0488 220.168 32.6683C219.783 32.2878 219.484 31.842 219.268 31.3309C219.057 30.8197 218.951 30.2663 218.951 29.6706C218.951 29.0711 219.057 28.5158 219.268 28.0046C219.484 27.4935 219.783 27.0477 220.168 26.6672C220.552 26.2868 221.005 25.9908 221.528 25.7795C222.051 25.5681 222.62 25.4624 223.234 25.4624C223.849 25.4624 224.416 25.57 224.935 25.7852C225.458 26.0004 225.911 26.3002 226.296 26.6845C226.684 27.0688 226.985 27.5166 227.201 28.0277C227.416 28.535 227.523 29.0826 227.523 29.6706C227.523 30.2663 227.416 30.8197 227.201 31.3309C226.985 31.842 226.684 32.2878 226.296 32.6683C225.911 33.0488 225.458 33.3466 224.935 33.5618C224.416 33.7732 223.849 33.8789 223.234 33.8789ZM223.234 32.2763C223.592 32.2763 223.922 32.2148 224.226 32.0918C224.53 31.9688 224.795 31.794 225.022 31.5672C225.248 31.3366 225.423 31.0619 225.546 30.7429C225.673 30.4239 225.736 30.0665 225.736 29.6706C225.736 29.1441 225.627 28.6868 225.408 28.2986C225.189 27.9066 224.891 27.603 224.514 27.3878C224.138 27.1726 223.711 27.065 223.234 27.065C222.881 27.065 222.55 27.1265 222.243 27.2495C221.939 27.3724 221.674 27.5473 221.447 27.774C221.224 28.0008 221.05 28.2756 220.923 28.5984C220.8 28.9174 220.738 29.2748 220.738 29.6706C220.738 30.1971 220.848 30.6564 221.067 31.0484C221.286 31.4366 221.584 31.7382 221.96 31.9535C222.337 32.1687 222.762 32.2763 223.234 32.2763Z" fill="#B91C1C"/>
<rect x="27.647" y="40" width="234.706" height="61.7647" rx="18.5294" fill="#60A5FA"/>
<rect x="27.647" y="40" width="234.706" height="61.7647" rx="18.5294" stroke="white" stroke-width="4.11765"/>
<rect x="40.4118" y="53.5883" width="34.5882" height="34.5882" rx="8.23529" fill="#BFDBFE"/>
<path fill-rule="evenodd" clip-rule="evenodd" d="M49.5906 67.8628C49.5906 65.0486 51.872 62.7672 54.6862 62.7672H60.7254C63.5396 62.7672 65.821 65.0486 65.821 67.8628V73.902C65.821 76.7162 63.5396 78.9976 60.7254 78.9976H54.6862C51.872 78.9976 49.5906 76.7162 49.5906 73.902V67.8628ZM52.6102 70.1275C52.6102 68.981 53.5397 68.0515 54.6862 68.0515H56.9509C58.0359 68.0515 58.9264 68.8838 59.019 69.9447L61.1707 68.3309C61.8426 67.8271 62.8013 68.3064 62.8013 69.1462V72.6188C62.8013 73.4584 61.8427 73.938 61.1707 73.4341L59.019 71.8202C58.9263 72.8811 58.0358 73.7133 56.9509 73.7133H54.6862C53.5397 73.7133 52.6102 72.7839 52.6102 71.6373V70.1275Z" fill="#3B82F6"/>
<rect x="84.0588" y="53.5883" width="34.5882" height="34.5882" rx="7.70399" fill="#BFDBFE"/>
<path fill-rule="evenodd" clip-rule="evenodd" d="M93.2376 67.8628C93.2376 65.0486 95.519 62.7672 98.3332 62.7672H104.372C107.187 62.7672 109.468 65.0486 109.468 67.8628V73.902C109.468 76.7162 107.187 78.9976 104.372 78.9976H98.3332C95.519 78.9976 93.2376 76.7162 93.2376 73.902V67.8628ZM96.2572 70.1275C96.2572 68.981 97.1867 68.0515 98.3332 68.0515H100.598C101.683 68.0515 102.573 68.8838 102.666 69.9447L104.818 68.3309C105.49 67.8271 106.448 68.3064 106.448 69.1462V72.6188C106.448 73.4584 105.49 73.938 104.818 73.4341L102.666 71.8202C102.573 72.8811 101.683 73.7133 100.598 73.7133H98.3332C97.1867 73.7133 96.2572 72.7839 96.2572 71.6373V70.1275Z" fill="#3B82F6"/>
<rect x="127.706" y="53.5883" width="34.5882" height="34.5882" rx="8.23529" fill="#BFDBFE"/>
<path fill-rule="evenodd" clip-rule="evenodd" d="M136.885 67.8628C136.885 65.0486 139.166 62.7672 141.98 62.7672H148.02C150.834 62.7672 153.115 65.0486 153.115 67.8628V73.902C153.115 76.7162 150.834 78.9976 148.02 78.9976H141.98C139.166 78.9976 136.885 76.7162 136.885 73.902V67.8628ZM139.904 70.1275C139.904 68.981 140.834 68.0515 141.98 68.0515H144.245C145.33 68.0515 146.221 68.8838 146.313 69.9447L148.465 68.3309C149.137 67.8271 150.095 68.3064 150.095 69.1462V72.6188C150.095 73.4584 149.137 73.938 148.465 73.4341L146.313 71.8202C146.22 72.8811 145.33 73.7133 144.245 73.7133H141.98C140.834 73.7133 139.904 72.7839 139.904 71.6373V70.1275Z" fill="#3B82F6"/>
<rect x="171.353" y="53.5883" width="34.5882" height="34.5882" rx="8.23529" fill="#BFDBFE"/>
<path fill-rule="evenodd" clip-rule="evenodd" d="M180.532 67.8628C180.532 65.0486 182.813 62.7672 185.627 62.7672H191.667C194.481 62.7672 196.762 65.0486 196.762 67.8628V73.902C196.762 76.7162 194.481 78.9976 191.667 78.9976H185.627C182.813 78.9976 180.532 76.7162 180.532 73.902V67.8628ZM183.551 70.1275C183.551 68.981 184.481 68.0515 185.627 68.0515H187.892C188.977 68.0515 189.868 68.8838 189.96 69.9447L192.112 68.3309C192.784 67.8271 193.742 68.3064 193.742 69.1462V72.6188C193.742 73.4584 192.784 73.938 192.112 73.4341L189.96 71.8202C189.867 72.8811 188.977 73.7133 187.892 73.7133H185.627C184.481 73.7133 183.551 72.7839 183.551 71.6373V70.1275Z" fill="#3B82F6"/>
<rect x="215" y="53.5883" width="34.5882" height="34.5882" rx="8.23529" fill="#BFDBFE"/>
<path fill-rule="evenodd" clip-rule="evenodd" d="M224.179 67.8628C224.179 65.0486 226.46 62.7672 229.274 62.7672H235.314C238.128 62.7672 240.409 65.0486 240.409 67.8628V73.902C240.409 76.7162 238.128 78.9976 235.314 78.9976H229.274C226.46 78.9976 224.179 76.7162 224.179 73.902V67.8628ZM227.198 70.1275C227.198 68.981 228.128 68.0515 229.274 68.0515H231.539C232.624 68.0515 233.515 68.8838 233.607 69.9447L235.759 68.3309C236.431 67.8271 237.39 68.3064 237.39 69.1462V72.6188C237.39 73.4584 236.431 73.938 235.759 73.4341L233.607 71.8202C233.515 72.8811 232.624 73.7133 231.539 73.7133H229.274C228.128 73.7133 227.198 72.7839 227.198 71.6373V70.1275Z" fill="#3B82F6"/>
<rect x="14.8823" y="84.8823" width="260.235" height="66.7059" rx="20.5882" fill="#60A5FA"/>
<rect x="14.8823" y="84.8823" width="260.235" height="66.7059" rx="20.5882" stroke="white" stroke-width="4.94118"/>
<rect x="28.8824" y="99.2941" width="37.8824" height="37.8824" rx="8.23529" fill="#BFDBFE"/>
<path fill-rule="evenodd" clip-rule="evenodd" d="M38.9705 114.941C38.9705 111.871 41.4593 109.382 44.5293 109.382H51.1176C54.1876 109.382 56.6764 111.871 56.6764 114.941V121.529C56.6764 124.599 54.1876 127.088 51.1176 127.088H44.5293C41.4593 127.088 38.9705 124.599 38.9705 121.529V114.941ZM42.2646 117.412C42.2646 116.161 43.2786 115.147 44.5293 115.147H46.9999C48.1836 115.147 49.155 116.055 49.256 117.212L51.6034 115.452C52.3363 114.902 53.3822 115.425 53.3822 116.341V120.129C53.3822 121.045 52.3364 121.569 51.6034 121.019L49.256 119.258C49.1549 120.416 48.1835 121.324 46.9999 121.324H44.5293C43.2786 121.324 42.2646 120.31 42.2646 119.059V117.412Z" fill="#3B82F6"/>
<rect x="77.4706" y="99.2941" width="37.8824" height="37.8824" rx="8.23529" fill="#BFDBFE"/>
<path fill-rule="evenodd" clip-rule="evenodd" d="M87.5587 114.941C87.5587 111.871 90.0475 109.382 93.1176 109.382H99.7058C102.776 109.382 105.265 111.871 105.265 114.941V121.529C105.265 124.599 102.776 127.088 99.7058 127.088H93.1176C90.0475 127.088 87.5587 124.599 87.5587 121.529V114.941ZM90.8529 117.412C90.8529 116.161 91.8668 115.147 93.1176 115.147H95.5882C96.7718 115.147 97.7432 116.055 97.8442 117.212L100.192 115.452C100.925 114.902 101.97 115.425 101.97 116.341V120.129C101.97 121.045 100.925 121.569 100.192 121.019L97.8442 119.258C97.7432 120.416 96.7717 121.324 95.5882 121.324H93.1176C91.8668 121.324 90.8529 120.31 90.8529 119.059V117.412Z" fill="#3B82F6"/>
<rect x="126.059" y="99.2941" width="37.8824" height="37.8824" rx="8.23529" fill="#BFDBFE"/>
<path fill-rule="evenodd" clip-rule="evenodd" d="M136.147 114.941C136.147 111.871 138.636 109.382 141.706 109.382H148.294C151.364 109.382 153.853 111.871 153.853 114.941V121.529C153.853 124.599 151.364 127.088 148.294 127.088H141.706C138.636 127.088 136.147 124.599 136.147 121.529V114.941ZM139.441 117.412C139.441 116.161 140.455 115.147 141.706 115.147H144.176C145.36 115.147 146.331 116.055 146.432 117.212L148.78 115.452C149.513 114.902 150.559 115.425 150.559 116.341V120.129C150.559 121.045 149.513 121.569 148.78 121.019L146.432 119.258C146.331 120.416 145.36 121.324 144.176 121.324H141.706C140.455 121.324 139.441 120.31 139.441 119.059V117.412Z" fill="#3B82F6"/>
<rect x="174.647" y="99.2941" width="37.8824" height="37.8824" rx="8.23529" fill="#BFDBFE"/>
<path fill-rule="evenodd" clip-rule="evenodd" d="M184.735 114.941C184.735 111.871 187.224 109.382 190.294 109.382H196.882C199.952 109.382 202.441 111.871 202.441 114.941V121.529C202.441 124.599 199.952 127.088 196.882 127.088H190.294C187.224 127.088 184.735 124.599 184.735 121.529V114.941ZM188.029 117.412C188.029 116.161 189.043 115.147 190.294 115.147H192.765C193.948 115.147 194.92 116.055 195.021 117.212L197.368 115.452C198.101 114.902 199.147 115.425 199.147 116.341V120.129C199.147 121.045 198.101 121.569 197.368 121.019L195.021 119.258C194.92 120.416 193.948 121.324 192.765 121.324H190.294C189.043 121.324 188.029 120.31 188.029 119.059V117.412Z" fill="#3B82F6"/>
<rect x="223.235" y="99.2941" width="37.8824" height="37.8824" rx="8.23529" fill="#BFDBFE"/>
<path fill-rule="evenodd" clip-rule="evenodd" d="M233.323 114.941C233.323 111.871 235.812 109.382 238.882 109.382H245.471C248.541 109.382 251.029 111.871 251.029 114.941V121.529C251.029 124.599 248.541 127.088 245.471 127.088H238.882C235.812 127.088 233.323 124.599 233.323 121.529V114.941ZM236.618 117.412C236.618 116.161 237.632 115.147 238.882 115.147H241.353C242.537 115.147 243.508 116.055 243.609 117.212L245.956 115.452C246.689 114.902 247.735 115.425 247.735 116.341V120.129C247.735 121.045 246.689 121.569 245.956 121.019L243.609 119.258C243.508 120.416 242.536 121.324 241.353 121.324H238.882C237.632 121.324 236.618 120.31 236.618 119.059V117.412Z" fill="#3B82F6"/>
<rect x="2.52941" y="134.294" width="284.941" height="70.8235" rx="23.0588" fill="#84CC16"/>
<rect x="2.52941" y="134.294" width="284.941" height="70.8235" rx="23.0588" stroke="white" stroke-width="4.94118"/>
<rect x="17.3529" y="149.118" width="41.1765" height="41.1765" rx="8.23529" fill="#D9F99D"/>
<path d="M38.9027 175.953C37.7113 175.953 36.6627 175.709 35.7568 175.22C34.8509 174.726 34.1454 174.031 33.6403 173.136C33.1352 172.236 32.8827 171.179 32.8827 169.966C32.8827 169.082 33.0309 168.272 33.3274 167.536C33.6239 166.801 34.0439 166.164 34.5874 165.626C35.1309 165.082 35.7705 164.665 36.5062 164.374C37.2474 164.078 38.0572 163.929 38.9356 163.929C39.869 163.929 40.6596 164.047 41.3074 164.283C41.9552 164.52 42.5372 164.852 43.0533 165.28L41.818 167.281C41.4831 166.952 41.0851 166.705 40.6239 166.54C40.1682 166.375 39.6603 166.293 39.1003 166.293C38.5294 166.293 38.016 166.378 37.5603 166.548C37.1101 166.718 36.7258 166.963 36.4074 167.281C36.0945 167.594 35.8529 167.976 35.6827 168.426C35.518 168.871 35.4356 169.373 35.4356 169.933C35.4356 170.701 35.5839 171.358 35.8803 171.901C36.1823 172.439 36.6105 172.854 37.1651 173.145C37.7251 173.436 38.3921 173.581 39.1662 173.581C39.7043 173.581 40.2313 173.499 40.7474 173.334C41.269 173.169 41.7603 172.906 42.2215 172.543L43.3415 174.594C42.798 175.011 42.1611 175.343 41.4309 175.591C40.7007 175.832 39.858 175.953 38.9027 175.953Z" fill="#65A30D"/>
<rect x="70.8824" y="149.118" width="41.1765" height="41.1765" rx="8.23529" fill="#D9F99D"/>
<path d="M90.2413 175.706V166.4H87.1119V164.176H95.8249V166.4H92.6955V175.706H90.2413Z" fill="#65A30D"/>
<rect x="124.412" y="149.118" width="41.1765" height="41.1765" rx="8.23529" fill="#D9F99D"/>
<path d="M139.212 175.706L143.577 164.176H146.352L150.782 175.706H148.04L147.142 173.235H142.753L141.88 175.706H139.212ZM143.33 171.176H146.55L144.919 166.845L143.33 171.176Z" fill="#65A30D"/>
<rect x="177.941" y="149.118" width="41.1765" height="41.1765" rx="8.23529" fill="#D9F99D"/>
<path d="M200.603 175.706V166.4H196.748V167.528C196.748 168.873 196.68 170.026 196.543 170.987C196.405 171.942 196.186 172.736 195.884 173.367C195.587 173.998 195.192 174.498 194.698 174.866C194.204 175.234 193.603 175.503 192.894 175.673L192.046 173.639C192.529 173.529 192.924 173.361 193.232 173.136C193.545 172.911 193.789 172.579 193.965 172.14C194.141 171.695 194.261 171.102 194.327 170.361C194.399 169.614 194.434 168.67 194.434 167.528V164.176H203.04V175.706H200.603ZM192.046 178.621V173.639L193.504 173.705L194.303 173.474H204.893V178.621H202.579V175.706H194.36V178.621H192.046Z" fill="#65A30D"/>
<rect x="231.471" y="149.118" width="41.1765" height="41.1765" rx="8.23529" fill="#D9F99D"/>
<path d="M252.058 175.953C251.179 175.953 250.367 175.802 249.62 175.5C248.873 175.192 248.225 174.767 247.676 174.223C247.127 173.68 246.699 173.043 246.392 172.313C246.09 171.583 245.939 170.792 245.939 169.941C245.939 169.085 246.09 168.291 246.392 167.561C246.699 166.831 247.127 166.194 247.676 165.651C248.225 165.107 248.873 164.684 249.62 164.382C250.367 164.08 251.179 163.929 252.058 163.929C252.936 163.929 253.746 164.083 254.487 164.391C255.234 164.698 255.882 165.126 256.431 165.675C256.985 166.224 257.416 166.864 257.723 167.594C258.031 168.319 258.185 169.101 258.185 169.941C258.185 170.792 258.031 171.583 257.723 172.313C257.416 173.043 256.985 173.68 256.431 174.223C255.882 174.767 255.234 175.192 254.487 175.5C253.746 175.802 252.936 175.953 252.058 175.953ZM252.058 173.663C252.568 173.663 253.04 173.576 253.474 173.4C253.908 173.224 254.287 172.974 254.611 172.651C254.934 172.321 255.184 171.929 255.36 171.473C255.541 171.017 255.632 170.507 255.632 169.941C255.632 169.189 255.475 168.536 255.162 167.981C254.849 167.421 254.424 166.987 253.886 166.68C253.348 166.372 252.738 166.219 252.058 166.219C251.552 166.219 251.08 166.307 250.641 166.482C250.207 166.658 249.829 166.908 249.505 167.232C249.186 167.556 248.936 167.948 248.755 168.409C248.58 168.865 248.492 169.376 248.492 169.941C248.492 170.693 248.648 171.349 248.961 171.909C249.274 172.464 249.7 172.895 250.238 173.202C250.776 173.51 251.382 173.663 252.058 173.663Z" fill="#65A30D"/>
</svg>
