<svg width="352" height="326" viewBox="0 0 352 326" fill="none" xmlns="http://www.w3.org/2000/svg">
<rect x="78.7778" y="2.77778" width="194.444" height="54.4444" rx="16.2222" fill="#EF4444"/>
<rect x="78.7778" y="2.77778" width="194.444" height="54.4444" rx="16.2222" stroke="#B91C1C" stroke-width="4.44444"/>
<rect x="90.0909" y="15" width="30" height="30" rx="6" fill="white"/>
<path d="M105.733 33.665C104.937 33.665 104.237 33.5018 103.632 33.1755C103.027 32.8455 102.556 32.3817 102.219 31.784C101.881 31.1827 101.713 30.4768 101.713 29.6665C101.713 29.0762 101.812 28.5353 102.01 28.044C102.208 27.5527 102.488 27.1273 102.851 26.768C103.214 26.405 103.641 26.1263 104.133 25.932C104.628 25.734 105.168 25.635 105.755 25.635C106.378 25.635 106.906 25.7138 107.339 25.8715C107.772 26.0292 108.16 26.251 108.505 26.537L107.68 27.8735C107.456 27.6535 107.191 27.4885 106.883 27.3785C106.578 27.2685 106.239 27.2135 105.865 27.2135C105.484 27.2135 105.141 27.2703 104.837 27.384C104.536 27.4977 104.279 27.6608 104.067 27.8735C103.858 28.0825 103.696 28.3373 103.583 28.638C103.473 28.935 103.418 29.2705 103.418 29.6445C103.418 30.1578 103.517 30.596 103.715 30.959C103.916 31.3183 104.202 31.5952 104.573 31.7895C104.947 31.9838 105.392 32.081 105.909 32.081C106.268 32.081 106.62 32.026 106.965 31.916C107.313 31.806 107.642 31.63 107.95 31.388L108.698 32.7575C108.335 33.0362 107.909 33.258 107.422 33.423C106.934 33.5843 106.371 33.665 105.733 33.665Z" fill="#DC2626"/>
<rect x="125.545" y="15" width="30" height="30" rx="6" fill="#B91C1C"/>
<path d="M137.153 33.643L136.597 32.1525C136.847 32.0755 137.058 31.9875 137.23 31.8885C137.406 31.7858 137.551 31.6483 137.664 31.476C137.782 31.3037 137.873 31.0763 137.939 30.794C138.005 30.5117 138.051 30.1523 138.077 29.716C138.103 29.2797 138.115 28.7443 138.115 28.11V25.8H143.775V33.5H142.147V27.285H139.661V28.0385C139.661 28.8305 139.635 29.518 139.584 30.101C139.536 30.6803 139.456 31.1753 139.342 31.586C139.228 31.993 139.074 32.3322 138.88 32.6035C138.689 32.8712 138.451 33.0875 138.165 33.2525C137.883 33.4175 137.545 33.5477 137.153 33.643Z" fill="#EF4444"/>
<rect x="161" y="15" width="30" height="30" rx="6" fill="#B91C1C"/>
<path d="M175.999 33.665C175.413 33.665 174.87 33.5642 174.371 33.3625C173.873 33.1572 173.44 32.873 173.073 32.51C172.707 32.147 172.421 31.7217 172.215 31.234C172.014 30.7463 171.913 30.2183 171.913 29.65C171.913 29.078 172.014 28.5482 172.215 28.0605C172.421 27.5728 172.707 27.1475 173.073 26.7845C173.44 26.4215 173.873 26.1392 174.371 25.9375C174.87 25.7358 175.413 25.635 175.999 25.635C176.586 25.635 177.127 25.7377 177.622 25.943C178.12 26.1483 178.553 26.4343 178.92 26.801C179.29 27.1677 179.578 27.5948 179.783 28.0825C179.989 28.5665 180.091 29.089 180.091 29.65C180.091 30.2183 179.989 30.7463 179.783 31.234C179.578 31.7217 179.29 32.147 178.92 32.51C178.553 32.873 178.12 33.1572 177.622 33.3625C177.127 33.5642 176.586 33.665 175.999 33.665ZM175.999 32.136C176.34 32.136 176.656 32.0773 176.945 31.96C177.235 31.8427 177.488 31.6758 177.704 31.4595C177.921 31.2395 178.087 30.9773 178.205 30.673C178.326 30.3687 178.386 30.0277 178.386 29.65C178.386 29.1477 178.282 28.7113 178.073 28.341C177.864 27.967 177.58 27.6773 177.22 27.472C176.861 27.2667 176.454 27.164 175.999 27.164C175.662 27.164 175.347 27.2227 175.053 27.34C174.764 27.4573 174.511 27.6242 174.294 27.8405C174.082 28.0568 173.915 28.319 173.794 28.627C173.676 28.9313 173.618 29.2723 173.618 29.65C173.618 30.1523 173.722 30.5905 173.931 30.9645C174.14 31.3348 174.424 31.6227 174.784 31.828C175.143 32.0333 175.548 32.136 175.999 32.136Z" fill="#EF4444"/>
<rect x="196.455" y="15" width="30" height="30" rx="6" fill="#B91C1C"/>
<path d="M208.818 33.5V25.8H211.683C212.453 25.8 213.069 25.965 213.531 26.295C213.997 26.6213 214.23 27.1053 214.23 27.747C214.23 27.9853 214.179 28.2072 214.076 28.4125C213.973 28.6178 213.838 28.7993 213.669 28.957C213.5 29.111 213.315 29.232 213.113 29.32C213.531 29.4593 213.871 29.6995 214.131 30.0405C214.395 30.3815 214.527 30.7922 214.527 31.2725C214.527 31.7198 214.415 32.1103 214.191 32.444C213.968 32.7777 213.651 33.038 213.24 33.225C212.829 33.4083 212.34 33.5 211.771 33.5H208.818ZM210.446 32.279H211.529C211.969 32.279 212.298 32.191 212.514 32.015C212.73 31.839 212.838 31.5732 212.838 31.2175C212.838 30.8728 212.732 30.6088 212.519 30.4255C212.307 30.2385 211.988 30.145 211.562 30.145H210.446V32.279ZM210.446 29.001H211.458C211.704 29.001 211.914 28.9607 212.09 28.88C212.27 28.7993 212.408 28.6838 212.503 28.5335C212.602 28.3795 212.651 28.1943 212.651 27.978C212.651 27.67 212.545 27.4335 212.332 27.2685C212.123 27.1035 211.823 27.021 211.43 27.021H210.446V29.001Z" fill="#EF4444"/>
<rect x="231.909" y="15" width="30" height="30" rx="6" fill="white"/>
<path d="M246.908 33.665C246.322 33.665 245.779 33.5642 245.28 33.3625C244.782 33.1572 244.349 32.873 243.982 32.51C243.616 32.147 243.33 31.7217 243.124 31.234C242.923 30.7463 242.822 30.2183 242.822 29.65C242.822 29.078 242.923 28.5482 243.124 28.0605C243.33 27.5728 243.616 27.1475 243.982 26.7845C244.349 26.4215 244.782 26.1392 245.28 25.9375C245.779 25.7358 246.322 25.635 246.908 25.635C247.495 25.635 248.036 25.7377 248.531 25.943C249.029 26.1483 249.462 26.4343 249.829 26.801C250.199 27.1677 250.487 27.5948 250.692 28.0825C250.898 28.5665 251 29.089 251 29.65C251 30.2183 250.898 30.7463 250.692 31.234C250.487 31.7217 250.199 32.147 249.829 32.51C249.462 32.873 249.029 33.1572 248.531 33.3625C248.036 33.5642 247.495 33.665 246.908 33.665ZM246.908 32.136C247.249 32.136 247.565 32.0773 247.854 31.96C248.144 31.8427 248.397 31.6758 248.613 31.4595C248.83 31.2395 248.996 30.9773 249.114 30.673C249.235 30.3687 249.295 30.0277 249.295 29.65C249.295 29.1477 249.191 28.7113 248.982 28.341C248.773 27.967 248.489 27.6773 248.129 27.472C247.77 27.2667 247.363 27.164 246.908 27.164C246.571 27.164 246.256 27.2227 245.962 27.34C245.673 27.4573 245.42 27.6242 245.203 27.8405C244.991 28.0568 244.824 28.319 244.703 28.627C244.585 28.9313 244.527 29.2723 244.527 29.65C244.527 30.1523 244.631 30.5905 244.84 30.9645C245.049 31.3348 245.333 31.6227 245.693 31.828C246.052 32.0333 246.457 32.136 246.908 32.136Z" fill="#DC2626"/>
<rect x="63.5" y="37.5" width="225" height="60" rx="17.5" fill="#EF4444"/>
<rect x="63.5" y="37.5" width="225" height="60" rx="17.5" stroke="#B91C1C" stroke-width="5"/>
<rect x="76.2273" y="51.5" width="32" height="32" rx="7" fill="white"/>
<path d="M92.9278 71.68C92.0598 71.68 91.2958 71.502 90.6358 71.146C89.9758 70.786 89.4618 70.28 89.0938 69.628C88.7258 68.972 88.5418 68.202 88.5418 67.318C88.5418 66.674 88.6498 66.084 88.8658 65.548C89.0818 65.012 89.3878 64.548 89.7838 64.156C90.1798 63.76 90.6458 63.456 91.1818 63.244C91.7218 63.028 92.3118 62.92 92.9518 62.92C93.6318 62.92 94.2078 63.006 94.6798 63.178C95.1518 63.35 95.5758 63.592 95.9518 63.904L95.0518 65.362C94.8078 65.122 94.5178 64.942 94.1818 64.822C93.8498 64.702 93.4798 64.642 93.0718 64.642C92.6558 64.642 92.2818 64.704 91.9498 64.828C91.6218 64.952 91.3418 65.13 91.1098 65.362C90.8818 65.59 90.7058 65.868 90.5818 66.196C90.4618 66.52 90.4018 66.886 90.4018 67.294C90.4018 67.854 90.5098 68.332 90.7258 68.728C90.9458 69.12 91.2578 69.422 91.6618 69.634C92.0698 69.846 92.5558 69.952 93.1198 69.952C93.5118 69.952 93.8958 69.892 94.2718 69.772C94.6518 69.652 95.0098 69.46 95.3458 69.196L96.1618 70.69C95.7658 70.994 95.3018 71.236 94.7698 71.416C94.2378 71.592 93.6238 71.68 92.9278 71.68Z" fill="#DC2626"/>
<rect x="118.114" y="51.5" width="32" height="32" rx="7" fill="#FCA5A5"/>
<path d="M129.897 71.5L133.077 63.1H135.099L138.327 71.5H136.329L135.675 69.7H132.477L131.841 71.5H129.897ZM132.897 68.2H135.243L134.055 65.044L132.897 68.2Z" fill="white"/>
<rect x="160" y="51.5" width="32" height="32" rx="7" fill="#B91C1C"/>
<path d="M172.299 71.656L171.693 70.03C171.965 69.946 172.195 69.85 172.383 69.742C172.575 69.63 172.733 69.48 172.857 69.292C172.985 69.104 173.085 68.856 173.157 68.548C173.229 68.24 173.279 67.848 173.307 67.372C173.335 66.896 173.349 66.312 173.349 65.62V63.1H179.523V71.5H177.747V64.72H175.035V65.542C175.035 66.406 175.007 67.156 174.951 67.792C174.899 68.424 174.811 68.964 174.687 69.412C174.563 69.856 174.395 70.226 174.183 70.522C173.975 70.814 173.715 71.05 173.403 71.23C173.095 71.41 172.727 71.552 172.299 71.656Z" fill="#EF4444"/>
<rect x="201.886" y="51.5" width="32" height="32" rx="7" fill="#FCA5A5"/>
<path d="M213.669 71.5L216.849 63.1H218.871L222.099 71.5H220.101L219.447 69.7H216.249L215.613 71.5H213.669ZM216.669 68.2H219.015L217.827 65.044L216.669 68.2Z" fill="white"/>
<rect x="243.773" y="51.5" width="32" height="32" rx="7" fill="#FCA5A5"/>
<path d="M258.877 71.5V64.72H256.597V63.1H262.945V64.72H260.665V71.5H258.877Z" fill="white"/>
<rect x="48.5" y="77.5" width="255" height="65" rx="19.5" fill="#EF4444"/>
<rect x="48.5" y="77.5" width="255" height="65" rx="19.5" stroke="#B91C1C" stroke-width="5"/>
<rect x="62" y="91" width="38" height="38" rx="8" fill="white"/>
<path d="M81.8173 114.71C80.8046 114.71 79.9133 114.502 79.1433 114.087C78.3733 113.667 77.7736 113.077 77.3443 112.316C76.915 111.551 76.7003 110.652 76.7003 109.621C76.7003 108.87 76.8263 108.181 77.0783 107.556C77.3303 106.931 77.6873 106.389 78.1493 105.932C78.6113 105.47 79.155 105.115 79.7803 104.868C80.4103 104.616 81.0986 104.49 81.8453 104.49C82.6386 104.49 83.3106 104.59 83.8613 104.791C84.412 104.992 84.9066 105.274 85.3453 105.638L84.2953 107.339C84.0106 107.059 83.6723 106.849 83.2803 106.709C82.893 106.569 82.4613 106.499 81.9853 106.499C81.5 106.499 81.0636 106.571 80.6763 106.716C80.2936 106.861 79.967 107.068 79.6963 107.339C79.4303 107.605 79.225 107.929 79.0803 108.312C78.9403 108.69 78.8703 109.117 78.8703 109.593C78.8703 110.246 78.9963 110.804 79.2483 111.266C79.505 111.723 79.869 112.076 80.3403 112.323C80.8163 112.57 81.3833 112.694 82.0413 112.694C82.4986 112.694 82.9466 112.624 83.3853 112.484C83.8286 112.344 84.2463 112.12 84.6383 111.812L85.5903 113.555C85.1283 113.91 84.587 114.192 83.9663 114.402C83.3456 114.607 82.6293 114.71 81.8173 114.71Z" fill="#DC2626"/>
<rect x="109.5" y="91" width="38" height="38" rx="8" fill="#FCA5A5"/>
<path d="M130.262 114.5V106.59H126.986V107.549C126.986 108.692 126.928 109.672 126.811 110.489C126.694 111.301 126.508 111.975 126.251 112.512C125.999 113.049 125.663 113.473 125.243 113.786C124.823 114.099 124.312 114.327 123.71 114.472L122.989 112.743C123.4 112.65 123.736 112.507 123.997 112.316C124.263 112.125 124.471 111.842 124.62 111.469C124.769 111.091 124.872 110.587 124.928 109.957C124.989 109.322 125.019 108.52 125.019 107.549V104.7H132.334V114.5H130.262ZM122.989 116.978V112.743L124.228 112.799L124.907 112.603H133.909V116.978H131.942V114.5H124.956V116.978H122.989Z" fill="white"/>
<rect x="157" y="91" width="38" height="38" rx="8" fill="white"/>
<path d="M171.08 114.5L174.79 104.7H177.149L180.915 114.5H178.584L177.821 112.4H174.09L173.348 114.5H171.08ZM174.58 110.65H177.317L175.931 106.968L174.58 110.65Z" fill="#DC2626"/>
<rect x="204.5" y="91" width="38" height="38" rx="8" fill="#B91C1C"/>
<path d="M225.18 114.5V110.678C224.783 110.79 224.398 110.879 224.025 110.944C223.651 111.005 223.255 111.035 222.835 111.035C222.083 111.035 221.435 110.909 220.889 110.657C220.343 110.405 219.923 110.011 219.629 109.474C219.335 108.933 219.188 108.226 219.188 107.353V104.7H221.26V107.066C221.26 107.841 221.425 108.387 221.757 108.704C222.093 109.021 222.576 109.18 223.206 109.18C223.602 109.18 223.955 109.159 224.263 109.117C224.575 109.075 224.881 109.019 225.18 108.949V104.7H227.252V114.5H225.18Z" fill="#EF4444"/>
<rect x="252" y="91" width="38" height="38" rx="8" fill="#FCA5A5"/>
<path d="M266.08 114.5L269.79 104.7H272.149L275.915 114.5H273.584L272.821 112.4H269.09L268.348 114.5H266.08ZM269.58 110.65H272.317L270.931 106.968L269.58 110.65Z" fill="white"/>
<rect x="33.5" y="122.5" width="285" height="75" rx="22.5" fill="#EF4444"/>
<rect x="33.5" y="122.5" width="285" height="75" rx="22.5" stroke="#B91C1C" stroke-width="5"/>
<rect x="49" y="139" width="42" height="42" rx="10" fill="white"/>
<path d="M70.9341 165.74C69.7767 165.74 68.7581 165.503 67.8781 165.028C66.9981 164.548 66.3127 163.873 65.8221 163.004C65.3314 162.129 65.0861 161.103 65.0861 159.924C65.0861 159.065 65.2301 158.279 65.5181 157.564C65.8061 156.849 66.2141 156.231 66.7421 155.708C67.2701 155.18 67.8914 154.775 68.6061 154.492C69.3261 154.204 70.1127 154.06 70.9661 154.06C71.8727 154.06 72.6407 154.175 73.2701 154.404C73.8994 154.633 74.4647 154.956 74.9661 155.372L73.7661 157.316C73.4407 156.996 73.0541 156.756 72.6061 156.596C72.1634 156.436 71.6701 156.356 71.1261 156.356C70.5714 156.356 70.0727 156.439 69.6301 156.604C69.1927 156.769 68.8194 157.007 68.5101 157.316C68.2061 157.62 67.9714 157.991 67.8061 158.428C67.6461 158.86 67.5661 159.348 67.5661 159.892C67.5661 160.639 67.7101 161.276 67.9981 161.804C68.2914 162.327 68.7074 162.729 69.2461 163.012C69.7901 163.295 70.4381 163.436 71.1901 163.436C71.7127 163.436 72.2247 163.356 72.7261 163.196C73.2327 163.036 73.7101 162.78 74.1581 162.428L75.2461 164.42C74.7181 164.825 74.0994 165.148 73.3901 165.388C72.6807 165.623 71.8621 165.74 70.9341 165.74Z" fill="#DC2626"/>
<rect x="102" y="139" width="42" height="42" rx="9.35484" fill="#B91C1C"/>
<path d="M118.066 165.708L117.258 163.54C117.62 163.428 117.927 163.3 118.178 163.156C118.434 163.007 118.644 162.807 118.81 162.556C118.98 162.305 119.114 161.975 119.21 161.564C119.306 161.153 119.372 160.631 119.41 159.996C119.447 159.361 119.466 158.583 119.466 157.66V154.3H127.698V165.5H125.33V156.46H121.714V157.556C121.714 158.708 121.676 159.708 121.602 160.556C121.532 161.399 121.415 162.119 121.25 162.716C121.084 163.308 120.86 163.801 120.578 164.196C120.3 164.585 119.954 164.9 119.538 165.14C119.127 165.38 118.636 165.569 118.066 165.708Z" fill="#EF4444"/>
<rect x="155" y="139" width="42" height="42" rx="10" fill="white"/>
<path d="M170.377 165.5L174.617 154.3H177.313L181.617 165.5H178.953L178.081 163.1H173.817L172.969 165.5H170.377ZM174.377 161.1H177.505L175.921 156.892L174.377 161.1Z" fill="#DC2626"/>
<rect x="208" y="139" width="42" height="42" rx="10" fill="#B91C1C"/>
<path d="M225.165 165.5V154.3H229.333C230.453 154.3 231.349 154.54 232.021 155.02C232.698 155.495 233.037 156.199 233.037 157.132C233.037 157.479 232.962 157.801 232.813 158.1C232.664 158.399 232.466 158.663 232.221 158.892C231.976 159.116 231.706 159.292 231.413 159.42C232.021 159.623 232.514 159.972 232.893 160.468C233.277 160.964 233.469 161.561 233.469 162.26C233.469 162.911 233.306 163.479 232.981 163.964C232.656 164.449 232.194 164.828 231.597 165.1C231 165.367 230.288 165.5 229.461 165.5H225.165ZM227.533 163.724H229.109C229.749 163.724 230.226 163.596 230.541 163.34C230.856 163.084 231.013 162.697 231.013 162.18C231.013 161.679 230.858 161.295 230.549 161.028C230.24 160.756 229.776 160.62 229.157 160.62H227.533V163.724ZM227.533 158.956H229.005C229.362 158.956 229.669 158.897 229.925 158.78C230.186 158.663 230.386 158.495 230.525 158.276C230.669 158.052 230.741 157.783 230.741 157.468C230.741 157.02 230.586 156.676 230.277 156.436C229.973 156.196 229.536 156.076 228.965 156.076H227.533V158.956Z" fill="#EF4444"/>
<rect x="261" y="139" width="42" height="42" rx="10" fill="#B91C1C"/>
<path d="M276.377 165.5L280.617 154.3H283.313L287.617 165.5H284.953L284.081 163.1H279.817L278.969 165.5H276.377ZM280.377 161.1H283.505L281.921 156.892L280.377 161.1Z" fill="#EF4444"/>
<rect x="18" y="177" width="316" height="81" rx="25" fill="#EF4444"/>
<rect x="18" y="177" width="316" height="81" rx="25" stroke="#B91C1C" stroke-width="6"/>
<rect x="35" y="194.5" width="46" height="46" rx="10" fill="white"/>
<path d="M59.0508 224.27C57.7488 224.27 56.6028 224.003 55.6128 223.469C54.6228 222.929 53.8518 222.17 53.2998 221.192C52.7478 220.208 52.4718 219.053 52.4718 217.727C52.4718 216.761 52.6338 215.876 52.9578 215.072C53.2818 214.268 53.7408 213.572 54.3348 212.984C54.9288 212.39 55.6278 211.934 56.4318 211.616C57.2418 211.292 58.1268 211.13 59.0868 211.13C60.1068 211.13 60.9708 211.259 61.6788 211.517C62.3868 211.775 63.0228 212.138 63.5868 212.606L62.2368 214.793C61.8708 214.433 61.4358 214.163 60.9318 213.983C60.4338 213.803 59.8788 213.713 59.2668 213.713C58.6428 213.713 58.0818 213.806 57.5838 213.992C57.0918 214.178 56.6718 214.445 56.3238 214.793C55.9818 215.135 55.7178 215.552 55.5318 216.044C55.3518 216.53 55.2618 217.079 55.2618 217.691C55.2618 218.531 55.4238 219.248 55.7478 219.842C56.0778 220.43 56.5458 220.883 57.1518 221.201C57.7638 221.519 58.4928 221.678 59.3388 221.678C59.9268 221.678 60.5028 221.588 61.0668 221.408C61.6368 221.228 62.1738 220.94 62.6778 220.544L63.9018 222.785C63.3078 223.241 62.6118 223.604 61.8138 223.874C61.0158 224.138 60.0948 224.27 59.0508 224.27Z" fill="#DC2626"/>
<rect x="94" y="194.5" width="46" height="46" rx="10" fill="#B91C1C"/>
<path d="M112.888 224V211.4H121.501V213.722H115.552V216.422H120.592V218.573H115.552V221.651H121.573V224H112.888Z" fill="#EF4444"/>
<rect x="153" y="194.5" width="46" height="46" rx="10" fill="#FCA5A5"/>
<path d="M178.266 224V213.83H174.054V215.063C174.054 216.533 173.979 217.793 173.829 218.843C173.679 219.887 173.439 220.754 173.109 221.444C172.785 222.134 172.353 222.68 171.813 223.082C171.273 223.484 170.616 223.778 169.842 223.964L168.915 221.741C169.443 221.621 169.875 221.438 170.211 221.192C170.553 220.946 170.82 220.583 171.012 220.103C171.204 219.617 171.336 218.969 171.408 218.159C171.486 217.343 171.525 216.311 171.525 215.063V211.4H180.93V224H178.266ZM168.915 227.186V221.741L170.508 221.813L171.381 221.561H182.955V227.186H180.426V224H171.444V227.186H168.915Z" fill="white"/>
<rect x="212" y="194.5" width="46" height="46" rx="10" fill="#B91C1C"/>
<path d="M229.449 224.234L228.54 221.795C228.948 221.669 229.293 221.525 229.575 221.363C229.863 221.195 230.1 220.97 230.286 220.688C230.478 220.406 230.628 220.034 230.736 219.572C230.844 219.11 230.919 218.522 230.961 217.808C231.003 217.094 231.024 216.218 231.024 215.18V211.4H240.285V224H237.621V213.83H233.553V215.063C233.553 216.359 233.511 217.484 233.427 218.438C233.349 219.386 233.217 220.196 233.031 220.868C232.845 221.534 232.593 222.089 232.275 222.533C231.963 222.971 231.573 223.325 231.105 223.595C230.643 223.865 230.091 224.078 229.449 224.234Z" fill="#EF4444"/>
<rect x="271" y="194.5" width="46" height="46" rx="10" fill="white"/>
<path d="M293.999 224.27C293.039 224.27 292.151 224.105 291.335 223.775C290.519 223.439 289.811 222.974 289.211 222.38C288.611 221.786 288.143 221.09 287.807 220.292C287.477 219.494 287.312 218.63 287.312 217.7C287.312 216.764 287.477 215.897 287.807 215.099C288.143 214.301 288.611 213.605 289.211 213.011C289.811 212.417 290.519 211.955 291.335 211.625C292.151 211.295 293.039 211.13 293.999 211.13C294.959 211.13 295.844 211.298 296.654 211.634C297.47 211.97 298.178 212.438 298.778 213.038C299.384 213.638 299.855 214.337 300.191 215.135C300.527 215.927 300.695 216.782 300.695 217.7C300.695 218.63 300.527 219.494 300.191 220.292C299.855 221.09 299.384 221.786 298.778 222.38C298.178 222.974 297.47 223.439 296.654 223.775C295.844 224.105 294.959 224.27 293.999 224.27ZM293.999 221.768C294.557 221.768 295.073 221.672 295.547 221.48C296.021 221.288 296.435 221.015 296.789 220.661C297.143 220.301 297.416 219.872 297.608 219.374C297.806 218.876 297.905 218.318 297.905 217.7C297.905 216.878 297.734 216.164 297.392 215.558C297.05 214.946 296.585 214.472 295.997 214.136C295.409 213.8 294.743 213.632 293.999 213.632C293.447 213.632 292.931 213.728 292.451 213.92C291.977 214.112 291.563 214.385 291.209 214.739C290.861 215.093 290.588 215.522 290.39 216.026C290.198 216.524 290.102 217.082 290.102 217.7C290.102 218.522 290.273 219.239 290.615 219.851C290.957 220.457 291.422 220.928 292.01 221.264C292.598 221.6 293.261 221.768 293.999 221.768Z" fill="#DC2626"/>
<rect x="3" y="237" width="346" height="86" rx="28" fill="#84CC16"/>
<rect x="3" y="237" width="346" height="86" rx="28" stroke="white" stroke-width="6"/>
<rect x="21" y="255" width="50" height="50" rx="10" fill="#D9F99D"/>
<path d="M47.1676 287.3C45.7209 287.3 44.4476 287.003 43.3476 286.41C42.2476 285.81 41.3909 284.967 40.7776 283.88C40.1642 282.787 39.8576 281.503 39.8576 280.03C39.8576 278.957 40.0376 277.973 40.3976 277.08C40.7576 276.187 41.2676 275.413 41.9276 274.76C42.5876 274.1 43.3642 273.593 44.2576 273.24C45.1576 272.88 46.1409 272.7 47.2076 272.7C48.3409 272.7 49.3009 272.843 50.0876 273.13C50.8742 273.417 51.5809 273.82 52.2076 274.34L50.7076 276.77C50.3009 276.37 49.8176 276.07 49.2576 275.87C48.7042 275.67 48.0876 275.57 47.4076 275.57C46.7142 275.57 46.0909 275.673 45.5376 275.88C44.9909 276.087 44.5242 276.383 44.1376 276.77C43.7576 277.15 43.4642 277.613 43.2576 278.16C43.0576 278.7 42.9576 279.31 42.9576 279.99C42.9576 280.923 43.1376 281.72 43.4976 282.38C43.8642 283.033 44.3842 283.537 45.0576 283.89C45.7376 284.243 46.5476 284.42 47.4876 284.42C48.1409 284.42 48.7809 284.32 49.4076 284.12C50.0409 283.92 50.6376 283.6 51.1976 283.16L52.5576 285.65C51.8976 286.157 51.1242 286.56 50.2376 286.86C49.3509 287.153 48.3276 287.3 47.1676 287.3Z" fill="#65A30D"/>
<rect x="86" y="255" width="50" height="50" rx="10" fill="#D9F99D"/>
<path d="M109.507 287V275.7H105.707V273H116.287V275.7H112.487V287H109.507Z" fill="#65A30D"/>
<rect x="151" y="255" width="50" height="50" rx="10" fill="#D9F99D"/>
<path d="M168.972 287L174.272 273H177.642L183.022 287H179.692L178.602 284H173.272L172.212 287H168.972ZM173.972 281.5H177.882L175.902 276.24L173.972 281.5Z" fill="#65A30D"/>
<rect x="216" y="255" width="50" height="50" rx="10" fill="#D9F99D"/>
<path d="M243.517 287V275.7H238.837V277.07C238.837 278.703 238.754 280.103 238.587 281.27C238.421 282.43 238.154 283.393 237.787 284.16C237.427 284.927 236.947 285.533 236.347 285.98C235.747 286.427 235.017 286.753 234.157 286.96L233.127 284.49C233.714 284.357 234.194 284.153 234.567 283.88C234.947 283.607 235.244 283.203 235.457 282.67C235.671 282.13 235.817 281.41 235.897 280.51C235.984 279.603 236.027 278.457 236.027 277.07V273H246.477V287H243.517ZM233.127 290.54V284.49L234.897 284.57L235.867 284.29H248.727V290.54H245.917V287H235.937V290.54H233.127Z" fill="#65A30D"/>
<rect x="281" y="255" width="50" height="50" rx="10" fill="#D9F99D"/>
<path d="M305.999 287.3C304.932 287.3 303.945 287.117 303.039 286.75C302.132 286.377 301.345 285.86 300.679 285.2C300.012 284.54 299.492 283.767 299.119 282.88C298.752 281.993 298.569 281.033 298.569 280C298.569 278.96 298.752 277.997 299.119 277.11C299.492 276.223 300.012 275.45 300.679 274.79C301.345 274.13 302.132 273.617 303.039 273.25C303.945 272.883 304.932 272.7 305.999 272.7C307.065 272.7 308.049 272.887 308.949 273.26C309.855 273.633 310.642 274.153 311.309 274.82C311.982 275.487 312.505 276.263 312.879 277.15C313.252 278.03 313.439 278.98 313.439 280C313.439 281.033 313.252 281.993 312.879 282.88C312.505 283.767 311.982 284.54 311.309 285.2C310.642 285.86 309.855 286.377 308.949 286.75C308.049 287.117 307.065 287.3 305.999 287.3ZM305.999 284.52C306.619 284.52 307.192 284.413 307.719 284.2C308.245 283.987 308.705 283.683 309.099 283.29C309.492 282.89 309.795 282.413 310.009 281.86C310.229 281.307 310.339 280.687 310.339 280C310.339 279.087 310.149 278.293 309.769 277.62C309.389 276.94 308.872 276.413 308.219 276.04C307.565 275.667 306.825 275.48 305.999 275.48C305.385 275.48 304.812 275.587 304.279 275.8C303.752 276.013 303.292 276.317 302.899 276.71C302.512 277.103 302.209 277.58 301.989 278.14C301.775 278.693 301.669 279.313 301.669 280C301.669 280.913 301.859 281.71 302.239 282.39C302.619 283.063 303.135 283.587 303.789 283.96C304.442 284.333 305.179 284.52 305.999 284.52Z" fill="#65A30D"/>
</svg>
