<svg width="290" height="269" viewBox="0 0 290 269" fill="none" xmlns="http://www.w3.org/2000/svg">
<rect x="64.9346" y="2.16993" width="160.131" height="44.8366" rx="13.3595" fill="#FBBF24"/>
<rect x="64.9346" y="2.16993" width="160.131" height="44.8366" rx="13.3595" stroke="white" stroke-width="3.66013"/>
<rect x="74.2513" y="12.2354" width="24.7059" height="24.7059" rx="4.94118" fill="#FCD34D"/>
<path d="M84.9648 22.7801L86.2126 20.2665C86.3728 19.9439 86.8356 19.9439 86.9958 20.2665L88.2436 22.7801L91.0341 23.1856C91.3922 23.2376 91.5348 23.6752 91.2757 23.9262L89.2568 25.8814L89.7332 28.6434C89.7944 28.9982 89.42 29.2686 89.0996 29.1011L86.6042 27.7963L84.1088 29.1011C83.7884 29.2686 83.4139 28.9982 83.4751 28.6434L83.9516 25.8814L81.9327 23.9262C81.6735 23.6752 81.8162 23.2376 82.1743 23.1856L84.9648 22.7801Z" fill="#F59E0B" stroke="#F59E0B" stroke-width="0.686275" stroke-linecap="round" stroke-linejoin="round"/>
<rect x="103.449" y="12.2354" width="24.7059" height="24.7059" rx="4.94118" fill="#FCD34D"/>
<g clip-path="url(#clip0_321_527)">
<path d="M114.163 22.7801L115.41 20.2665C115.571 19.9439 116.033 19.9439 116.194 20.2665L117.441 22.7801L120.232 23.1856C120.59 23.2376 120.733 23.6752 120.474 23.9262L118.455 25.8814L118.931 28.6434C118.992 28.9982 118.618 29.2686 118.297 29.1011L115.802 27.7963L113.307 29.1011C112.986 29.2686 112.612 28.9982 112.673 28.6434L113.149 25.8814L111.131 23.9262C110.871 23.6752 111.014 23.2376 111.372 23.1856L114.163 22.7801Z" fill="#F59E0B" stroke="#F59E0B" stroke-width="0.686275" stroke-linecap="round" stroke-linejoin="round"/>
</g>
<rect x="132.647" y="12.2354" width="24.7059" height="24.7059" rx="4.94118" fill="#FCD34D"/>
<g clip-path="url(#clip1_321_527)">
<path d="M143.361 22.7801L144.608 20.2665C144.769 19.9439 145.231 19.9439 145.391 20.2665L146.639 22.7801L149.43 23.1856C149.788 23.2376 149.931 23.6752 149.671 23.9262L147.652 25.8814L148.129 28.6434C148.19 28.9982 147.816 29.2686 147.495 29.1011L145 27.7963L142.504 29.1011C142.184 29.2686 141.81 28.9982 141.871 28.6434L142.347 25.8814L140.328 23.9262C140.069 23.6752 140.212 23.2376 140.57 23.1856L143.361 22.7801Z" fill="#F59E0B" stroke="#F59E0B" stroke-width="0.686275" stroke-linecap="round" stroke-linejoin="round"/>
</g>
<rect x="161.845" y="12.2354" width="24.7059" height="24.7059" rx="4.94118" fill="#FCD34D"/>
<g clip-path="url(#clip2_321_527)">
<path d="M172.558 22.7801L173.806 20.2665C173.966 19.9439 174.429 19.9439 174.589 20.2665L175.837 22.7801L178.628 23.1856C178.986 23.2376 179.128 23.6752 178.869 23.9262L176.85 25.8814L177.327 28.6434C177.388 28.9982 177.014 29.2686 176.693 29.1011L174.198 27.7963L171.702 29.1011C171.382 29.2686 171.008 28.9982 171.069 28.6434L171.545 25.8814L169.526 23.9262C169.267 23.6752 169.41 23.2376 169.768 23.1856L172.558 22.7801Z" fill="#F59E0B" stroke="#F59E0B" stroke-width="0.686275" stroke-linecap="round" stroke-linejoin="round"/>
</g>
<rect x="191.043" y="12.2354" width="24.7059" height="24.7059" rx="4.94118" fill="#FCD34D"/>
<path d="M201.756 22.7801L203.004 20.2665C203.164 19.9439 203.627 19.9439 203.787 20.2665L205.035 22.7801L207.826 23.1856C208.184 23.2376 208.326 23.6752 208.067 23.9262L206.048 25.8814L206.525 28.6434C206.586 28.9982 206.211 29.2686 205.891 29.1011L203.396 27.7963L200.9 29.1011C200.58 29.2686 200.205 28.9982 200.267 28.6434L200.743 25.8814L198.724 23.9262C198.465 23.6752 198.608 23.2376 198.966 23.1856L201.756 22.7801Z" fill="#F59E0B" stroke="#F59E0B" stroke-width="0.686275" stroke-linecap="round" stroke-linejoin="round"/>
<rect x="52.3529" y="30.7648" width="185.294" height="49.4118" rx="14.4118" fill="#FBBF24"/>
<rect x="52.3529" y="30.7648" width="185.294" height="49.4118" rx="14.4118" stroke="white" stroke-width="4.11765"/>
<rect x="62.8342" y="42.2942" width="26.3529" height="26.3529" rx="5.76471" fill="#FCD34D"/>
<path d="M74.137 53.4042L75.563 50.5316C75.7461 50.1628 76.275 50.1628 76.4581 50.5316L77.8841 53.4042L81.0733 53.8676C81.4825 53.9271 81.6456 54.4272 81.3494 54.7141L79.0421 56.9485L79.5866 60.1052C79.6565 60.5106 79.2286 60.8197 78.8624 60.6282L76.0106 59.137L73.1587 60.6282C72.7925 60.8197 72.3646 60.5106 72.4345 60.1052L72.979 56.9485L70.6717 54.7141C70.3755 54.4272 70.5386 53.9271 70.9478 53.8676L74.137 53.4042Z" fill="#F59E0B" stroke="#F59E0B" stroke-width="0.686275" stroke-linecap="round" stroke-linejoin="round"/>
<rect x="97.3289" y="42.2942" width="26.3529" height="26.3529" rx="5.76471" fill="#FCD34D"/>
<path d="M108.632 53.4042L110.058 50.5316C110.241 50.1628 110.77 50.1628 110.953 50.5316L112.379 53.4042L115.568 53.8676C115.977 53.9271 116.14 54.4272 115.844 54.7141L113.537 56.9485L114.081 60.1052C114.151 60.5106 113.723 60.8197 113.357 60.6282L110.505 59.137L107.653 60.6282C107.287 60.8197 106.859 60.5106 106.929 60.1052L107.474 56.9485L105.166 54.7141C104.87 54.4272 105.033 53.9271 105.442 53.8676L108.632 53.4042Z" fill="#F59E0B" stroke="#F59E0B" stroke-width="0.686275" stroke-linecap="round" stroke-linejoin="round"/>
<rect x="131.824" y="42.2942" width="26.3529" height="26.3529" rx="5.76471" fill="#FCD34D"/>
<path d="M143.126 53.4042L144.552 50.5316C144.735 50.1628 145.264 50.1628 145.447 50.5316L146.873 53.4042L150.063 53.8676C150.472 53.9271 150.635 54.4272 150.339 54.7141L148.031 56.9485L148.576 60.1052C148.646 60.5106 148.218 60.8197 147.852 60.6282L145 59.137L142.148 60.6282C141.782 60.8197 141.354 60.5106 141.424 60.1052L141.968 56.9485L139.661 54.7141C139.365 54.4272 139.528 53.9271 139.937 53.8676L143.126 53.4042Z" fill="#F59E0B" stroke="#F59E0B" stroke-width="0.686275" stroke-linecap="round" stroke-linejoin="round"/>
<rect x="166.318" y="42.2942" width="26.3529" height="26.3529" rx="5.76471" fill="#FCD34D"/>
<path d="M177.621 53.4042L179.047 50.5316C179.23 50.1628 179.759 50.1628 179.942 50.5316L181.368 53.4042L184.557 53.8676C184.966 53.9271 185.13 54.4272 184.833 54.7141L182.526 56.9485L183.071 60.1052C183.141 60.5106 182.713 60.8197 182.346 60.6282L179.495 59.137L176.643 60.6282C176.277 60.8197 175.849 60.5106 175.918 60.1052L176.463 56.9485L174.156 54.7141C173.859 54.4272 174.023 53.9271 174.432 53.8676L177.621 53.4042Z" fill="#F59E0B" stroke="#F59E0B" stroke-width="0.686275" stroke-linecap="round" stroke-linejoin="round"/>
<rect x="200.813" y="42.2942" width="26.3529" height="26.3529" rx="5.76471" fill="#FCD34D"/>
<path d="M212.116 53.4042L213.542 50.5316C213.725 50.1628 214.254 50.1628 214.437 50.5316L215.863 53.4042L219.052 53.8676C219.461 53.9271 219.624 54.4272 219.328 54.7141L217.021 56.9485L217.565 60.1052C217.635 60.5106 217.207 60.8197 216.841 60.6282L213.989 59.137L211.137 60.6282C210.771 60.8197 210.343 60.5106 210.413 60.1052L210.958 56.9485L208.65 54.7141C208.354 54.4272 208.517 53.9271 208.926 53.8676L212.116 53.4042Z" fill="#F59E0B" stroke="#F59E0B" stroke-width="0.686275" stroke-linecap="round" stroke-linejoin="round"/>
<rect x="40" y="63.7059" width="210" height="53.5294" rx="16.0588" fill="#FBBF24"/>
<rect x="40" y="63.7059" width="210" height="53.5294" rx="16.0588" stroke="white" stroke-width="4.11765"/>
<rect x="51.1177" y="74.8236" width="31.2941" height="31.2941" rx="6.58824" fill="#FCD34D"/>
<path d="M64.4226 87.8875L66.2052 84.2968C66.434 83.8358 67.0952 83.8358 67.324 84.2968L69.1066 87.8875L73.0931 88.4669C73.6046 88.5412 73.8084 89.1663 73.4381 89.5249L70.554 92.318L71.2347 96.2638C71.3221 96.7705 70.7871 97.1569 70.3295 96.9176L66.7646 95.0536L63.1997 96.9176C62.7421 97.1569 62.2071 96.7705 62.2945 96.2638L62.9752 92.318L60.0911 89.5249C59.7208 89.1663 59.9247 88.5412 60.4361 88.4669L64.4226 87.8875Z" fill="#F59E0B" stroke="#F59E0B" stroke-width="0.686275" stroke-linecap="round" stroke-linejoin="round"/>
<rect x="90.2353" y="74.8236" width="31.2941" height="31.2941" rx="6.58824" fill="#FCD34D"/>
<path d="M103.54 87.8875L105.323 84.2968C105.552 83.8358 106.213 83.8358 106.442 84.2968L108.224 87.8875L112.211 88.4669C112.722 88.5412 112.926 89.1663 112.556 89.5249L109.672 92.318L110.352 96.2638C110.44 96.7705 109.905 97.1569 109.447 96.9176L105.882 95.0536L102.317 96.9176C101.86 97.1569 101.325 96.7705 101.412 96.2638L102.093 92.318L99.2087 89.5249C98.8384 89.1663 99.0423 88.5412 99.5538 88.4669L103.54 87.8875Z" fill="#F59E0B" stroke="#F59E0B" stroke-width="0.686275" stroke-linecap="round" stroke-linejoin="round"/>
<rect x="129.353" y="74.8236" width="31.2941" height="31.2941" rx="6.58824" fill="#FCD34D"/>
<path d="M142.658 87.8875L144.441 84.2968C144.669 83.8358 145.33 83.8358 145.559 84.2968L147.342 87.8875L151.328 88.4669C151.84 88.5412 152.044 89.1663 151.673 89.5249L148.789 92.318L149.47 96.2638C149.557 96.7705 149.022 97.1569 148.565 96.9176L145 95.0536L141.435 96.9176C140.977 97.1569 140.442 96.7705 140.53 96.2638L141.21 92.318L138.326 89.5249C137.956 89.1663 138.16 88.5412 138.671 88.4669L142.658 87.8875Z" fill="#F59E0B" stroke="#F59E0B" stroke-width="0.686275" stroke-linecap="round" stroke-linejoin="round"/>
<rect x="168.471" y="74.8236" width="31.2941" height="31.2941" rx="6.58824" fill="#FCD34D"/>
<path d="M181.776 87.8875L183.558 84.2968C183.787 83.8358 184.448 83.8358 184.677 84.2968L186.46 87.8875L190.446 88.4669C190.957 88.5412 191.161 89.1663 190.791 89.5249L187.907 92.318L188.588 96.2638C188.675 96.7705 188.14 97.1569 187.682 96.9176L184.118 95.0536L180.553 96.9176C180.095 97.1569 179.56 96.7705 179.647 96.2638L180.328 92.318L177.444 89.5249C177.074 89.1663 177.278 88.5412 177.789 88.4669L181.776 87.8875Z" fill="#F59E0B" stroke="#F59E0B" stroke-width="0.686275" stroke-linecap="round" stroke-linejoin="round"/>
<rect x="207.588" y="74.8236" width="31.2941" height="31.2941" rx="6.58824" fill="#FCD34D"/>
<path d="M220.893 87.8875L222.676 84.2968C222.905 83.8358 223.566 83.8358 223.795 84.2968L225.577 87.8875L229.564 88.4669C230.075 88.5412 230.279 89.1663 229.909 89.5249L227.025 92.318L227.705 96.2638C227.793 96.7705 227.258 97.1569 226.8 96.9176L223.235 95.0536L219.67 96.9176C219.213 97.1569 218.678 96.7705 218.765 96.2638L219.446 92.318L216.562 89.5249C216.191 89.1663 216.395 88.5412 216.907 88.4669L220.893 87.8875Z" fill="#F59E0B" stroke="#F59E0B" stroke-width="0.686275" stroke-linecap="round" stroke-linejoin="round"/>
<rect x="27.647" y="100.765" width="234.706" height="61.7647" rx="18.5294" fill="#FBBF24"/>
<rect x="27.647" y="100.765" width="234.706" height="61.7647" rx="18.5294" stroke="white" stroke-width="4.11765"/>
<rect x="40.4118" y="114.353" width="34.5882" height="34.5882" rx="8.23529" fill="#FCD34D"/>
<path d="M55.1295 128.806L57.0904 124.856C57.3421 124.349 58.0694 124.349 58.321 124.856L60.2819 128.806L64.6671 129.443C65.2297 129.525 65.4539 130.212 65.0466 130.607L61.8741 133.679L62.6228 138.02C62.719 138.577 62.1305 139.002 61.6271 138.739L57.7057 136.688L53.7844 138.739C53.2809 139.002 52.6925 138.577 52.7886 138.02L53.5373 133.679L50.3649 130.607C49.9575 130.212 50.1818 129.525 50.7444 129.443L55.1295 128.806Z" fill="#F59E0B" stroke="#F59E0B" stroke-width="0.686275" stroke-linecap="round" stroke-linejoin="round"/>
<rect x="84.0588" y="114.353" width="34.5882" height="34.5882" rx="7.70399" fill="#FCD34D"/>
<path d="M98.7766 128.806L100.737 124.856C100.989 124.349 101.716 124.349 101.968 124.856L103.929 128.806L108.314 129.443C108.877 129.525 109.101 130.212 108.694 130.607L105.521 133.679L106.27 138.02C106.366 138.577 105.778 139.002 105.274 138.739L101.353 136.688L97.4314 138.739C96.928 139.002 96.3395 138.577 96.4357 138.02L97.1844 133.679L94.0119 130.607C93.6046 130.212 93.8288 129.525 94.3914 129.443L98.7766 128.806Z" fill="#F59E0B" stroke="#F59E0B" stroke-width="0.686275" stroke-linecap="round" stroke-linejoin="round"/>
<rect x="127.706" y="114.353" width="34.5882" height="34.5882" rx="8.23529" fill="#FCD34D"/>
<path d="M142.424 128.806L144.385 124.856C144.636 124.349 145.363 124.349 145.615 124.856L147.576 128.806L151.961 129.443C152.524 129.525 152.748 130.212 152.341 130.607L149.168 133.679L149.917 138.02C150.013 138.577 149.425 139.002 148.921 138.739L145 136.688L141.078 138.739C140.575 139.002 139.987 138.577 140.083 138.02L140.831 133.679L137.659 130.607C137.252 130.212 137.476 129.525 138.039 129.443L142.424 128.806Z" fill="#F59E0B" stroke="#F59E0B" stroke-width="0.686275" stroke-linecap="round" stroke-linejoin="round"/>
<rect x="171.353" y="114.353" width="34.5882" height="34.5882" rx="8.23529" fill="#FCD34D"/>
<path d="M186.071 128.806L188.032 124.856C188.283 124.349 189.011 124.349 189.262 124.856L191.223 128.806L195.608 129.443C196.171 129.525 196.395 130.212 195.988 130.607L192.815 133.679L193.564 138.02C193.66 138.577 193.072 139.002 192.568 138.739L188.647 136.688L184.726 138.739C184.222 139.002 183.634 138.577 183.73 138.02L184.479 133.679L181.306 130.607C180.899 130.212 181.123 129.525 181.686 129.443L186.071 128.806Z" fill="#F59E0B" stroke="#F59E0B" stroke-width="0.686275" stroke-linecap="round" stroke-linejoin="round"/>
<rect x="215" y="114.353" width="34.5882" height="34.5882" rx="8.23529" fill="#FCD34D"/>
<path d="M229.718 128.806L231.679 124.856C231.93 124.349 232.658 124.349 232.909 124.856L234.87 128.806L239.255 129.443C239.818 129.525 240.042 130.212 239.635 130.607L236.462 133.679L237.211 138.02C237.307 138.577 236.719 139.002 236.215 138.739L232.294 136.688L228.373 138.739C227.869 139.002 227.281 138.577 227.377 138.02L228.126 133.679L224.953 130.607C224.546 130.212 224.77 129.525 225.333 129.443L229.718 128.806Z" fill="#F59E0B" stroke="#F59E0B" stroke-width="0.686275" stroke-linecap="round" stroke-linejoin="round"/>
<rect x="14.8823" y="145.647" width="260.235" height="66.7059" rx="20.5882" fill="#FBBF24"/>
<rect x="14.8823" y="145.647" width="260.235" height="66.7059" rx="20.5882" stroke="white" stroke-width="4.94118"/>
<rect x="28.8824" y="160.059" width="37.8824" height="37.8824" rx="8.23529" fill="#FCD34D"/>
<path d="M44.7787 175.642L47.0961 170.974C47.3936 170.375 48.2531 170.375 48.5505 170.974L50.8679 175.642L56.0504 176.395C56.7153 176.492 56.9803 177.304 56.4989 177.771L52.7496 181.402L53.6344 186.531C53.7481 187.19 53.0526 187.692 52.4576 187.381L47.8233 184.958L43.189 187.381C42.594 187.692 41.8986 187.19 42.0122 186.531L42.8971 181.402L39.1478 177.771C38.6664 177.304 38.9314 176.492 39.5963 176.395L44.7787 175.642Z" fill="#F59E0B" stroke="#F59E0B" stroke-width="0.686275" stroke-linecap="round" stroke-linejoin="round"/>
<rect x="77.4706" y="160.059" width="37.8824" height="37.8824" rx="8.23529" fill="#FCD34D"/>
<path d="M93.367 175.642L95.6844 170.974C95.9818 170.375 96.8413 170.375 97.1388 170.974L99.4561 175.642L104.639 176.395C105.304 176.492 105.568 177.304 105.087 177.771L101.338 181.402L102.223 186.531C102.336 187.19 101.641 187.692 101.046 187.381L96.4116 184.958L91.7772 187.381C91.1823 187.692 90.4868 187.19 90.6005 186.531L91.4853 181.402L87.736 177.771C87.2546 177.304 87.5196 176.492 88.1846 176.395L93.367 175.642Z" fill="#F59E0B" stroke="#F59E0B" stroke-width="0.686275" stroke-linecap="round" stroke-linejoin="round"/>
<rect x="126.059" y="160.059" width="37.8824" height="37.8824" rx="8.23529" fill="#FCD34D"/>
<path d="M141.955 175.642L144.273 170.974C144.57 170.375 145.43 170.375 145.727 170.974L148.044 175.642L153.227 176.395C153.892 176.492 154.157 177.304 153.675 177.771L149.926 181.402L150.811 186.531C150.925 187.19 150.229 187.692 149.634 187.381L145 184.958L140.365 187.381C139.771 187.692 139.075 187.19 139.189 186.531L140.074 181.402L136.324 177.771C135.843 177.304 136.108 176.492 136.773 176.395L141.955 175.642Z" fill="#F59E0B" stroke="#F59E0B" stroke-width="0.686275" stroke-linecap="round" stroke-linejoin="round"/>
<rect x="174.647" y="160.059" width="37.8824" height="37.8824" rx="8.23529" fill="#FCD34D"/>
<path d="M190.543 175.642L192.861 170.974C193.158 170.375 194.018 170.375 194.315 170.974L196.633 175.642L201.815 176.395C202.48 176.492 202.745 177.304 202.264 177.771L198.514 181.402L199.399 186.531C199.513 187.19 198.817 187.692 198.222 187.381L193.588 184.958L188.954 187.381C188.359 187.692 187.663 187.19 187.777 186.531L188.662 181.402L184.912 177.771C184.431 177.304 184.696 176.492 185.361 176.395L190.543 175.642Z" fill="#F59E0B" stroke="#F59E0B" stroke-width="0.686275" stroke-linecap="round" stroke-linejoin="round"/>
<rect x="223.235" y="160.059" width="37.8824" height="37.8824" rx="8.23529" fill="#FCD34D"/>
<path d="M239.132 175.642L241.449 170.974C241.747 170.375 242.606 170.375 242.903 170.974L245.221 175.642L250.403 176.395C251.068 176.492 251.333 177.304 250.852 177.771L247.102 181.402L247.987 186.531C248.101 187.19 247.406 187.692 246.811 187.381L242.176 184.958L237.542 187.381C236.947 187.692 236.252 187.19 236.365 186.531L237.25 181.402L233.501 177.771C233.019 177.304 233.284 176.492 233.949 176.395L239.132 175.642Z" fill="#F59E0B" stroke="#F59E0B" stroke-width="0.686275" stroke-linecap="round" stroke-linejoin="round"/>
<rect x="2.52941" y="195.059" width="284.941" height="70.8235" rx="23.0588" fill="#FBBF24"/>
<rect x="2.52941" y="195.059" width="284.941" height="70.8235" rx="23.0588" stroke="white" stroke-width="4.94118"/>
<rect x="17.3529" y="209.882" width="41.1765" height="41.1765" rx="8.23529" fill="#FCD34D"/>
<path d="M34.428 226.596L37.1019 221.21C37.4451 220.518 38.4368 220.518 38.78 221.21L41.4539 226.596L47.4337 227.465C48.2009 227.576 48.5066 228.514 47.9513 229.052L43.6251 233.241L44.646 239.16C44.7772 239.92 43.9748 240.5 43.2882 240.141L37.941 237.345L32.5937 240.141C31.9072 240.5 31.1047 239.92 31.2358 239.16L32.2568 233.241L27.9307 229.052C27.3753 228.514 27.681 227.576 28.4483 227.465L34.428 226.596Z" fill="#F59E0B" stroke="#F59E0B" stroke-width="0.686275" stroke-linecap="round" stroke-linejoin="round"/>
<rect x="70.8824" y="209.882" width="41.1765" height="41.1765" rx="8.23529" fill="#FCD34D"/>
<path d="M87.9574 226.596L90.6313 221.21C90.9745 220.518 91.9662 220.518 92.3094 221.21L94.9833 226.596L100.963 227.465C101.73 227.576 102.036 228.514 101.481 229.052L97.1545 233.242L98.1754 239.16C98.3066 239.92 97.5042 240.5 96.8176 240.141L91.4704 237.345L86.123 240.141C85.4366 240.5 84.6341 239.92 84.7652 239.16L85.7862 233.242L81.4601 229.052C80.9047 228.514 81.2104 227.576 81.9777 227.465L87.9574 226.596Z" fill="#F59E0B" stroke="#F59E0B" stroke-width="0.686275" stroke-linecap="round" stroke-linejoin="round"/>
<rect x="124.412" y="209.882" width="41.1765" height="41.1765" rx="8.23529" fill="#FCD34D"/>
<path d="M141.487 226.596L144.161 221.21C144.504 220.518 145.496 220.518 145.839 221.21L148.513 226.596L154.492 227.465C155.26 227.576 155.565 228.514 155.01 229.052L150.684 233.242L151.705 239.16C151.836 239.92 151.034 240.5 150.347 240.141L145 237.345L139.652 240.141C138.966 240.5 138.164 239.92 138.295 239.16L139.316 233.242L134.99 229.052C134.434 228.514 134.74 227.576 135.507 227.465L141.487 226.596Z" fill="#F59E0B" stroke="#F59E0B" stroke-width="0.686275" stroke-linecap="round" stroke-linejoin="round"/>
<rect x="177.941" y="209.882" width="41.1765" height="41.1765" rx="8.23529" fill="#FCD34D"/>
<path d="M195.016 226.596L197.69 221.21C198.033 220.518 199.025 220.518 199.368 221.21L202.042 226.596L208.022 227.465C208.789 227.576 209.095 228.514 208.54 229.052L204.213 233.242L205.234 239.16C205.365 239.92 204.563 240.5 203.876 240.141L198.529 237.345L193.182 240.141C192.495 240.5 191.693 239.92 191.824 239.16L192.845 233.242L188.519 229.052C187.963 228.514 188.269 227.576 189.036 227.465L195.016 226.596Z" fill="#F59E0B" stroke="#F59E0B" stroke-width="0.686275" stroke-linecap="round" stroke-linejoin="round"/>
<rect x="231.471" y="209.882" width="41.1765" height="41.1765" rx="8.23529" fill="#FCD34D"/>
<path d="M248.546 226.596L251.22 221.21C251.563 220.518 252.554 220.518 252.898 221.21L255.572 226.596L261.551 227.465C262.319 227.576 262.624 228.514 262.069 229.052L257.743 233.242L258.764 239.16C258.895 239.92 258.092 240.5 257.406 240.141L252.059 237.345L246.711 240.141C246.025 240.5 245.222 239.92 245.353 239.16L246.374 233.242L242.048 229.052C241.493 228.514 241.799 227.576 242.566 227.465L248.546 226.596Z" fill="#F59E0B" stroke="#F59E0B" stroke-width="0.686275" stroke-linecap="round" stroke-linejoin="round"/>
<defs>
<clipPath id="clip0_321_527">
<rect width="11.5294" height="11.5294" fill="white" transform="translate(110.037 18.8236)"/>
</clipPath>
<clipPath id="clip1_321_527">
<rect width="11.5294" height="11.5294" fill="white" transform="translate(139.235 18.8236)"/>
</clipPath>
<clipPath id="clip2_321_527">
<rect width="11.5294" height="11.5294" fill="white" transform="translate(168.433 18.8236)"/>
</clipPath>
</defs>
</svg>
