<svg width="352" height="326" viewBox="0 0 352 326" fill="none" xmlns="http://www.w3.org/2000/svg">
<rect x="78.7778" y="2.77778" width="194.444" height="54.4444" rx="16.2222" fill="#FBBF24"/>
<rect x="78.7778" y="2.77778" width="194.444" height="54.4444" rx="16.2222" stroke="white" stroke-width="4.44444"/>
<rect x="90.0909" y="15" width="30" height="30" rx="6" fill="#FCD34D"/>
<g clip-path="url(#clip0_105_1932)">
<path d="M103.1 27.8042L104.615 24.7521C104.81 24.3603 105.372 24.3603 105.566 24.7521L107.081 27.8042L110.47 28.2967C110.905 28.3599 111.078 28.8912 110.763 29.196L108.312 31.5701L108.89 34.9241C108.965 35.3548 108.51 35.6832 108.121 35.4798L105.091 33.8954L102.061 35.4798C101.672 35.6832 101.217 35.3548 101.291 34.9241L101.87 31.5701L99.4183 29.196C99.1035 28.8912 99.2768 28.3599 99.7116 28.2967L103.1 27.8042Z" fill="#F59E0B" stroke="#F59E0B" stroke-width="0.833333" stroke-linecap="round" stroke-linejoin="round"/>
</g>
<rect x="125.545" y="15" width="30" height="30" rx="6" fill="#FCD34D"/>
<path d="M138.555 27.8042L140.07 24.7521C140.264 24.3603 140.826 24.3603 141.021 24.7521L142.536 27.8042L145.925 28.2967C146.359 28.3599 146.533 28.8912 146.218 29.196L143.766 31.5701L144.345 34.9241C144.419 35.3548 143.964 35.6832 143.575 35.4798L140.545 33.8954L137.515 35.4798C137.126 35.6832 136.671 35.3548 136.746 34.9241L137.324 31.5701L134.873 29.196C134.558 28.8912 134.731 28.3599 135.166 28.2967L138.555 27.8042Z" fill="#F59E0B" stroke="#F59E0B" stroke-width="0.833333" stroke-linecap="round" stroke-linejoin="round"/>
<rect x="161" y="15" width="30" height="30" rx="6" fill="#FCD34D"/>
<path d="M174.009 27.8042L175.524 24.7521C175.719 24.3603 176.281 24.3603 176.475 24.7521L177.991 27.8042L181.379 28.2967C181.814 28.3599 181.987 28.8912 181.672 29.196L179.221 31.5701L179.799 34.9241C179.874 35.3548 179.419 35.6832 179.03 35.4798L176 33.8954L172.97 35.4798C172.581 35.6832 172.126 35.3548 172.2 34.9241L172.779 31.5701L170.327 29.196C170.013 28.8912 170.186 28.3599 170.621 28.2967L174.009 27.8042Z" fill="#F59E0B" stroke="#F59E0B" stroke-width="0.833333" stroke-linecap="round" stroke-linejoin="round"/>
<rect x="196.455" y="15" width="30" height="30" rx="6" fill="#FCD34D"/>
<path d="M209.464 27.8042L210.979 24.7521C211.173 24.3603 211.735 24.3603 211.93 24.7521L213.445 27.8042L216.834 28.2967C217.268 28.3599 217.442 28.8912 217.127 29.196L214.675 31.5701L215.254 34.9241C215.328 35.3548 214.874 35.6832 214.485 35.4798L211.454 33.8954L208.424 35.4798C208.035 35.6832 207.581 35.3548 207.655 34.9241L208.233 31.5701L205.782 29.196C205.467 28.8912 205.64 28.3599 206.075 28.2967L209.464 27.8042Z" fill="#F59E0B" stroke="#F59E0B" stroke-width="0.833333" stroke-linecap="round" stroke-linejoin="round"/>
<rect x="231.909" y="15" width="30" height="30" rx="6" fill="#FCD34D"/>
<g clip-path="url(#clip1_105_1932)">
<path d="M244.918 27.8042L246.433 24.7521C246.628 24.3603 247.19 24.3603 247.384 24.7521L248.9 27.8042L252.288 28.2967C252.723 28.3599 252.896 28.8912 252.581 29.196L250.13 31.5701L250.708 34.9241C250.783 35.3548 250.328 35.6832 249.939 35.4798L246.909 33.8954L243.879 35.4798C243.49 35.6832 243.035 35.3548 243.109 34.9241L243.688 31.5701L241.236 29.196C240.922 28.8912 241.095 28.3599 241.53 28.2967L244.918 27.8042Z" fill="#F59E0B" stroke="#F59E0B" stroke-width="0.833333" stroke-linecap="round" stroke-linejoin="round"/>
</g>
<rect x="63.5" y="37.5" width="225" height="60" rx="17.5" fill="#FBBF24"/>
<rect x="63.5" y="37.5" width="225" height="60" rx="17.5" stroke="white" stroke-width="5"/>
<rect x="76.2273" y="51.5" width="32" height="32" rx="7" fill="#FCD34D"/>
<path d="M89.952 64.9907L91.6837 61.5026C91.906 61.0548 92.5483 61.0548 92.7705 61.5026L94.5022 64.9907L98.3748 65.5535C98.8717 65.6257 99.0697 66.233 98.71 66.5813L95.9083 69.2946L96.5695 73.1277C96.6544 73.6199 96.1347 73.9953 95.6901 73.7628L92.2271 71.9521L88.7641 73.7628C88.3195 73.9953 87.7998 73.6199 87.8848 73.1277L88.546 69.2946L85.7443 66.5813C85.3846 66.233 85.5826 65.6257 86.0795 65.5535L89.952 64.9907Z" fill="#F59E0B" stroke="#F59E0B" stroke-width="0.833333" stroke-linecap="round" stroke-linejoin="round"/>
<rect x="118.114" y="51.5" width="32" height="32" rx="7" fill="#FCD34D"/>
<path d="M131.838 64.9907L133.57 61.5026C133.792 61.0548 134.435 61.0548 134.657 61.5026L136.389 64.9907L140.261 65.5535C140.758 65.6257 140.956 66.233 140.596 66.5813L137.795 69.2946L138.456 73.1277C138.541 73.6199 138.021 73.9953 137.577 73.7628L134.114 71.9521L130.65 73.7628C130.206 73.9953 129.686 73.6199 129.771 73.1277L130.432 69.2946L127.631 66.5813C127.271 66.233 127.469 65.6257 127.966 65.5535L131.838 64.9907Z" fill="#F59E0B" stroke="#F59E0B" stroke-width="0.833333" stroke-linecap="round" stroke-linejoin="round"/>
<rect x="160" y="51.5" width="32" height="32" rx="7" fill="#FCD34D"/>
<path d="M173.725 64.9907L175.456 61.5026C175.679 61.0548 176.321 61.0548 176.543 61.5026L178.275 64.9907L182.148 65.5535C182.644 65.6257 182.842 66.233 182.483 66.5813L179.681 69.2946L180.342 73.1277C180.427 73.6199 179.907 73.9953 179.463 73.7628L176 71.9521L172.537 73.7628C172.092 73.9953 171.573 73.6199 171.657 73.1277L172.319 69.2946L169.517 66.5813C169.157 66.233 169.355 65.6257 169.852 65.5535L173.725 64.9907Z" fill="#F59E0B" stroke="#F59E0B" stroke-width="0.833333" stroke-linecap="round" stroke-linejoin="round"/>
<rect x="201.886" y="51.5" width="32" height="32" rx="7" fill="#FCD34D"/>
<path d="M215.611 64.9907L217.343 61.5026C217.565 61.0548 218.207 61.0548 218.43 61.5026L220.161 64.9907L224.034 65.5535C224.531 65.6257 224.729 66.233 224.369 66.5813L221.567 69.2946L222.229 73.1277C222.313 73.6199 221.794 73.9953 221.349 73.7628L217.886 71.9521L214.423 73.7628C213.979 73.9953 213.459 73.6199 213.544 73.1277L214.205 69.2946L211.403 66.5813C211.044 66.233 211.242 65.6257 211.739 65.5535L215.611 64.9907Z" fill="#F59E0B" stroke="#F59E0B" stroke-width="0.833333" stroke-linecap="round" stroke-linejoin="round"/>
<rect x="243.773" y="51.5" width="32" height="32" rx="7" fill="#FCD34D"/>
<path d="M257.497 64.9907L259.229 61.5026C259.451 61.0548 260.094 61.0548 260.316 61.5026L262.048 64.9907L265.92 65.5535C266.417 65.6257 266.615 66.233 266.255 66.5813L263.454 69.2946L264.115 73.1277C264.2 73.6199 263.68 73.9953 263.236 73.7628L259.773 71.9521L256.31 73.7628C255.865 73.9953 255.345 73.6199 255.43 73.1277L256.091 69.2946L253.29 66.5813C252.93 66.233 253.128 65.6257 253.625 65.5535L257.497 64.9907Z" fill="#F59E0B" stroke="#F59E0B" stroke-width="0.833333" stroke-linecap="round" stroke-linejoin="round"/>
<rect x="48.5" y="77.5" width="255" height="65" rx="19.5" fill="#FBBF24"/>
<rect x="48.5" y="77.5" width="255" height="65" rx="19.5" stroke="white" stroke-width="5"/>
<rect x="62" y="91" width="38" height="38" rx="8" fill="#FCD34D"/>
<path d="M78.156 106.863L80.3206 102.503C80.5984 101.943 81.4013 101.943 81.6791 102.503L83.8437 106.863L88.6844 107.567C89.3055 107.657 89.553 108.416 89.1034 108.852L85.6013 112.243L86.4278 117.034C86.5339 117.65 85.8843 118.119 85.3286 117.828L80.9998 115.565L76.6711 117.828C76.1153 118.119 75.4657 117.65 75.5719 117.034L76.3984 112.243L72.8963 108.852C72.4466 108.416 72.6942 107.657 73.3153 107.567L78.156 106.863Z" fill="#F59E0B" stroke="#F59E0B" stroke-width="0.833333" stroke-linecap="round" stroke-linejoin="round"/>
<rect x="109.5" y="91" width="38" height="38" rx="8" fill="#FCD34D"/>
<path d="M125.656 106.863L127.821 102.503C128.098 101.943 128.901 101.943 129.179 102.503L131.344 106.863L136.184 107.567C136.806 107.657 137.053 108.416 136.603 108.852L133.101 112.243L133.928 117.034C134.034 117.65 133.384 118.119 132.829 117.828L128.5 115.565L124.171 117.828C123.615 118.119 122.966 117.65 123.072 117.034L123.898 112.243L120.396 108.852C119.947 108.416 120.194 107.657 120.815 107.567L125.656 106.863Z" fill="#F59E0B" stroke="#F59E0B" stroke-width="0.833333" stroke-linecap="round" stroke-linejoin="round"/>
<rect x="157" y="91" width="38" height="38" rx="8" fill="#FCD34D"/>
<path d="M173.156 106.863L175.321 102.503C175.598 101.943 176.401 101.943 176.679 102.503L178.844 106.863L183.684 107.567C184.306 107.657 184.553 108.416 184.103 108.852L180.601 112.243L181.428 117.034C181.534 117.65 180.884 118.119 180.329 117.828L176 115.565L171.671 117.828C171.115 118.119 170.466 117.65 170.572 117.034L171.398 112.243L167.896 108.852C167.447 108.416 167.694 107.657 168.315 107.567L173.156 106.863Z" fill="#F59E0B" stroke="#F59E0B" stroke-width="0.833333" stroke-linecap="round" stroke-linejoin="round"/>
<rect x="204.5" y="91" width="38" height="38" rx="8" fill="#FCD34D"/>
<path d="M220.656 106.863L222.821 102.503C223.098 101.943 223.901 101.943 224.179 102.503L226.344 106.863L231.184 107.567C231.806 107.657 232.053 108.416 231.603 108.852L228.101 112.243L228.928 117.034C229.034 117.65 228.384 118.119 227.829 117.828L223.5 115.565L219.171 117.828C218.615 118.119 217.966 117.65 218.072 117.034L218.898 112.243L215.396 108.852C214.947 108.416 215.194 107.657 215.815 107.567L220.656 106.863Z" fill="#F59E0B" stroke="#F59E0B" stroke-width="0.833333" stroke-linecap="round" stroke-linejoin="round"/>
<rect x="252" y="91" width="38" height="38" rx="8" fill="#FCD34D"/>
<path d="M268.156 106.863L270.321 102.503C270.598 101.943 271.401 101.943 271.679 102.503L273.844 106.863L278.684 107.567C279.306 107.657 279.553 108.416 279.103 108.852L275.601 112.243L276.428 117.034C276.534 117.65 275.884 118.119 275.329 117.828L271 115.565L266.671 117.828C266.115 118.119 265.466 117.65 265.572 117.034L266.398 112.243L262.896 108.852C262.447 108.416 262.694 107.657 263.315 107.567L268.156 106.863Z" fill="#F59E0B" stroke="#F59E0B" stroke-width="0.833333" stroke-linecap="round" stroke-linejoin="round"/>
<rect x="33.5" y="122.5" width="285" height="75" rx="22.5" fill="#FBBF24"/>
<rect x="33.5" y="122.5" width="285" height="75" rx="22.5" stroke="white" stroke-width="5"/>
<rect x="49" y="139" width="42" height="42" rx="10" fill="#FCD34D"/>
<path d="M66.8716 156.55L69.2526 151.754C69.5582 151.138 70.4414 151.138 70.747 151.754L73.128 156.55L78.4528 157.324C79.136 157.423 79.4083 158.258 78.9137 158.737L75.0614 162.468L75.9705 167.738C76.0873 168.415 75.3727 168.931 74.7614 168.611L69.9998 166.122L65.2381 168.611C64.6268 168.931 63.9123 168.415 64.029 167.738L64.9382 162.468L61.0859 158.737C60.5913 158.258 60.8636 157.423 61.5468 157.324L66.8716 156.55Z" fill="#F59E0B" stroke="#F59E0B" stroke-width="0.833333" stroke-linecap="round" stroke-linejoin="round"/>
<rect x="102" y="139" width="42" height="42" rx="9.35484" fill="#FCD34D"/>
<path d="M119.872 156.55L122.253 151.754C122.558 151.138 123.441 151.138 123.747 151.754L126.128 156.55L131.453 157.324C132.136 157.423 132.408 158.258 131.914 158.737L128.061 162.468L128.971 167.738C129.087 168.415 128.373 168.931 127.761 168.611L123 166.122L118.238 168.611C117.627 168.931 116.912 168.415 117.029 167.738L117.938 162.468L114.086 158.737C113.591 158.258 113.864 157.423 114.547 157.324L119.872 156.55Z" fill="#F59E0B" stroke="#F59E0B" stroke-width="0.833333" stroke-linecap="round" stroke-linejoin="round"/>
<rect x="155" y="139" width="42" height="42" rx="10" fill="#FCD34D"/>
<path d="M172.872 156.55L175.253 151.754C175.558 151.138 176.441 151.138 176.747 151.754L179.128 156.55L184.453 157.324C185.136 157.423 185.408 158.258 184.914 158.737L181.061 162.468L181.971 167.738C182.087 168.415 181.373 168.931 180.761 168.611L176 166.122L171.238 168.611C170.627 168.931 169.912 168.415 170.029 167.738L170.938 162.468L167.086 158.737C166.591 158.258 166.864 157.423 167.547 157.324L172.872 156.55Z" fill="#F59E0B" stroke="#F59E0B" stroke-width="0.833333" stroke-linecap="round" stroke-linejoin="round"/>
<rect x="208" y="139" width="42" height="42" rx="10" fill="#FCD34D"/>
<path d="M225.872 156.55L228.253 151.754C228.558 151.138 229.441 151.138 229.747 151.754L232.128 156.55L237.453 157.324C238.136 157.423 238.408 158.258 237.914 158.737L234.061 162.468L234.971 167.738C235.087 168.415 234.373 168.931 233.761 168.611L229 166.122L224.238 168.611C223.627 168.931 222.912 168.415 223.029 167.738L223.938 162.468L220.086 158.737C219.591 158.258 219.864 157.423 220.547 157.324L225.872 156.55Z" fill="#F59E0B" stroke="#F59E0B" stroke-width="0.833333" stroke-linecap="round" stroke-linejoin="round"/>
<rect x="261" y="139" width="42" height="42" rx="10" fill="#FCD34D"/>
<path d="M278.872 156.55L281.253 151.754C281.558 151.138 282.441 151.138 282.747 151.754L285.128 156.55L290.453 157.324C291.136 157.423 291.408 158.258 290.914 158.737L287.061 162.468L287.971 167.738C288.087 168.415 287.373 168.931 286.761 168.611L282 166.122L277.238 168.611C276.627 168.931 275.912 168.415 276.029 167.738L276.938 162.468L273.086 158.737C272.591 158.258 272.864 157.423 273.547 157.324L278.872 156.55Z" fill="#F59E0B" stroke="#F59E0B" stroke-width="0.833333" stroke-linecap="round" stroke-linejoin="round"/>
<rect x="18" y="177" width="316" height="81" rx="25" fill="#FBBF24"/>
<rect x="18" y="177" width="316" height="81" rx="25" stroke="white" stroke-width="6"/>
<rect x="35" y="194.5" width="46" height="46" rx="10" fill="#FCD34D"/>
<path d="M54.3028 213.422L57.1168 207.754C57.4779 207.026 58.5216 207.026 58.8828 207.754L61.6968 213.422L67.9897 214.337C68.7971 214.454 69.1189 215.441 68.5344 216.007L63.9816 220.416L65.0561 226.645C65.1941 227.445 64.3496 228.055 63.6272 227.677L57.9998 224.734L52.3724 227.677C51.6499 228.055 50.8055 227.445 50.9434 226.645L52.0179 220.416L47.4652 216.007C46.8806 215.441 47.2024 214.454 48.0098 214.337L54.3028 213.422Z" fill="#F59E0B" stroke="#F59E0B" stroke-width="0.833333" stroke-linecap="round" stroke-linejoin="round"/>
<rect x="94" y="194.5" width="46" height="46" rx="10" fill="#FCD34D"/>
<path d="M113.303 213.422L116.117 207.754C116.478 207.026 117.522 207.026 117.883 207.754L120.697 213.422L126.99 214.337C127.797 214.454 128.119 215.441 127.534 216.007L122.982 220.416L124.056 226.645C124.194 227.445 123.35 228.055 122.627 227.677L117 224.734L111.372 227.677C110.65 228.055 109.805 227.445 109.943 226.645L111.018 220.416L106.465 216.007C105.881 215.441 106.202 214.454 107.01 214.337L113.303 213.422Z" fill="#F59E0B" stroke="#F59E0B" stroke-width="0.833333" stroke-linecap="round" stroke-linejoin="round"/>
<rect x="153" y="194.5" width="46" height="46" rx="10" fill="#FCD34D"/>
<path d="M172.303 213.422L175.117 207.754C175.478 207.026 176.522 207.026 176.883 207.754L179.697 213.422L185.99 214.337C186.797 214.454 187.119 215.441 186.534 216.007L181.982 220.416L183.056 226.645C183.194 227.445 182.35 228.055 181.627 227.677L176 224.734L170.372 227.677C169.65 228.055 168.805 227.445 168.943 226.645L170.018 220.416L165.465 216.007C164.881 215.441 165.202 214.454 166.01 214.337L172.303 213.422Z" fill="#F59E0B" stroke="#F59E0B" stroke-width="0.833333" stroke-linecap="round" stroke-linejoin="round"/>
<rect x="212" y="194.5" width="46" height="46" rx="10" fill="#FCD34D"/>
<path d="M231.303 213.422L234.117 207.754C234.478 207.026 235.522 207.026 235.883 207.754L238.697 213.422L244.99 214.337C245.797 214.454 246.119 215.441 245.534 216.007L240.982 220.416L242.056 226.645C242.194 227.445 241.35 228.055 240.627 227.677L235 224.734L229.372 227.677C228.65 228.055 227.805 227.445 227.943 226.645L229.018 220.416L224.465 216.007C223.881 215.441 224.202 214.454 225.01 214.337L231.303 213.422Z" fill="#F59E0B" stroke="#F59E0B" stroke-width="0.833333" stroke-linecap="round" stroke-linejoin="round"/>
<rect x="271" y="194.5" width="46" height="46" rx="10" fill="#FCD34D"/>
<path d="M290.303 213.422L293.117 207.754C293.478 207.026 294.522 207.026 294.883 207.754L297.697 213.422L303.99 214.337C304.797 214.454 305.119 215.441 304.534 216.007L299.982 220.416L301.056 226.645C301.194 227.445 300.35 228.055 299.627 227.677L294 224.734L288.372 227.677C287.65 228.055 286.805 227.445 286.943 226.645L288.018 220.416L283.465 216.007C282.881 215.441 283.202 214.454 284.01 214.337L290.303 213.422Z" fill="#F59E0B" stroke="#F59E0B" stroke-width="0.833333" stroke-linecap="round" stroke-linejoin="round"/>
<rect x="3" y="237" width="346" height="86" rx="28" fill="#FBBF24"/>
<rect x="3" y="237" width="346" height="86" rx="28" stroke="white" stroke-width="6"/>
<rect x="21" y="255" width="50" height="50" rx="10" fill="#FCD34D"/>
<path d="M41.7339 275.295L44.9809 268.755C45.3976 267.915 46.6019 267.915 47.0186 268.755L50.2655 275.295L57.5266 276.35C58.4582 276.486 58.8295 277.624 58.1551 278.277L52.9019 283.365L54.1416 290.552C54.3009 291.475 53.3265 292.179 52.4929 291.743L45.9997 288.347L39.5066 291.743C38.673 292.179 37.6986 291.475 37.8578 290.552L39.0975 283.365L33.8444 278.277C33.1699 277.624 33.5413 276.486 34.4729 276.35L41.7339 275.295Z" fill="#F59E0B" stroke="#F59E0B" stroke-width="0.833333" stroke-linecap="round" stroke-linejoin="round"/>
<rect x="86" y="255" width="50" height="50" rx="10" fill="#FCD34D"/>
<path d="M106.734 275.295L109.981 268.755C110.398 267.915 111.602 267.915 112.019 268.755L115.265 275.295L122.527 276.35C123.458 276.486 123.829 277.624 123.155 278.277L117.902 283.365L119.142 290.552C119.301 291.475 118.326 292.179 117.493 291.743L111 288.347L104.507 291.743C103.673 292.179 102.699 291.475 102.858 290.552L104.098 283.365L98.8444 278.277C98.1699 277.624 98.5413 276.486 99.4729 276.35L106.734 275.295Z" fill="#F59E0B" stroke="#F59E0B" stroke-width="0.833333" stroke-linecap="round" stroke-linejoin="round"/>
<rect x="151" y="255" width="50" height="50" rx="10" fill="#FCD34D"/>
<path d="M171.734 275.295L174.981 268.755C175.398 267.915 176.602 267.915 177.019 268.755L180.265 275.295L187.527 276.35C188.458 276.486 188.829 277.624 188.155 278.277L182.902 283.365L184.142 290.552C184.301 291.475 183.326 292.179 182.493 291.743L176 288.347L169.507 291.743C168.673 292.179 167.699 291.475 167.858 290.552L169.098 283.365L163.844 278.277C163.17 277.624 163.541 276.486 164.473 276.35L171.734 275.295Z" fill="#F59E0B" stroke="#F59E0B" stroke-width="0.833333" stroke-linecap="round" stroke-linejoin="round"/>
<rect x="216" y="255" width="50" height="50" rx="10" fill="#FCD34D"/>
<path d="M236.734 275.295L239.981 268.755C240.398 267.915 241.602 267.915 242.019 268.755L245.265 275.295L252.527 276.35C253.458 276.486 253.829 277.624 253.155 278.277L247.902 283.365L249.142 290.552C249.301 291.475 248.326 292.179 247.493 291.743L241 288.347L234.507 291.743C233.673 292.179 232.699 291.475 232.858 290.552L234.098 283.365L228.844 278.277C228.17 277.624 228.541 276.486 229.473 276.35L236.734 275.295Z" fill="#F59E0B" stroke="#F59E0B" stroke-width="0.833333" stroke-linecap="round" stroke-linejoin="round"/>
<rect x="281" y="255" width="50" height="50" rx="10" fill="#FCD34D"/>
<path d="M301.734 275.295L304.981 268.755C305.398 267.915 306.602 267.915 307.019 268.755L310.266 275.295L317.527 276.35C318.458 276.486 318.83 277.624 318.155 278.277L312.902 283.365L314.142 290.552C314.301 291.475 313.327 292.179 312.493 291.743L306 288.347L299.507 291.743C298.673 292.179 297.699 291.475 297.858 290.552L299.098 283.365L293.844 278.277C293.17 277.624 293.541 276.486 294.473 276.35L301.734 275.295Z" fill="#F59E0B" stroke="#F59E0B" stroke-width="0.833333" stroke-linecap="round" stroke-linejoin="round"/>
<defs>
<clipPath id="clip0_105_1932">
<rect width="14" height="14" fill="white" transform="translate(98.0909 23)"/>
</clipPath>
<clipPath id="clip1_105_1932">
<rect width="14" height="14" fill="white" transform="translate(239.909 23)"/>
</clipPath>
</defs>
</svg>
