<svg width="1208" height="1208" viewBox="0 0 1208 1208" fill="none" xmlns="http://www.w3.org/2000/svg">
<g opacity="0.15">
<rect x="442" width="140" height="140" rx="34.4827" transform="rotate(30 442 0)" fill="#22D3EE"/>
<path d="M453.82 102.029C454.886 98.4495 456.087 95.7364 457.422 93.8901C458.774 92.0149 460.391 90.7156 462.271 89.9921C464.18 89.2854 466.483 88.8636 469.179 88.7267C472.984 88.5369 475.698 88.1025 477.322 87.4234C478.945 86.7443 480.182 85.6686 481.032 84.1964C482.366 81.887 482.535 79.6943 481.539 77.6185C480.589 75.5305 478.584 73.6031 475.524 71.8365C473.273 70.5365 471.04 69.6707 468.826 69.2391C466.64 68.8242 464.363 68.7024 461.993 68.8738L464.626 58.2122C465.942 57.9328 467.617 57.8989 469.65 58.1105C471.7 58.2933 473.964 58.7727 476.441 59.5486C478.918 60.3245 481.427 61.4458 483.968 62.9125C487.72 65.0791 490.733 67.627 493.007 70.5561C495.28 73.4852 496.618 76.5673 497.022 79.8023C497.454 83.0539 496.778 86.2242 494.995 89.313C493.978 91.0739 492.71 92.536 491.192 93.6993C489.674 94.8627 487.73 95.7615 485.363 96.396C483.024 97.0471 480.093 97.4909 476.569 97.7274C474.141 97.8655 472.201 98.2269 470.747 98.8116C469.322 99.413 468.118 100.431 467.136 101.865C466.199 103.288 465.196 105.326 464.126 107.979L453.82 102.029ZM447.294 126.032C445.274 124.866 443.894 123.222 443.155 121.102C442.433 118.953 442.688 116.81 443.922 114.674C444.755 113.231 445.812 112.167 447.092 111.482C448.402 110.814 449.786 110.516 451.245 110.589C452.705 110.661 454.113 111.089 455.469 111.873C457.519 113.056 458.89 114.714 459.584 116.846C460.323 118.967 460.067 121.109 458.817 123.274C458.001 124.689 456.937 125.73 455.628 126.398C454.347 127.083 452.977 127.389 451.518 127.316C450.059 127.244 448.651 126.816 447.294 126.032Z" fill="#06B6D4"/>
<rect x="603.081" y="93" width="140" height="140" rx="34.4827" transform="rotate(30 603.081 93)" fill="#22D3EE"/>
<path d="M614.901 195.029C615.967 191.45 617.168 188.736 618.503 186.89C619.855 185.015 621.471 183.716 623.352 182.992C625.261 182.285 627.564 181.864 630.26 181.727C634.065 181.537 636.779 181.102 638.402 180.423C640.026 179.744 641.263 178.669 642.113 177.196C643.446 174.887 643.615 172.694 642.62 170.619C641.67 168.53 639.665 166.603 636.605 164.836C634.353 163.536 632.121 162.671 629.906 162.239C627.721 161.824 625.443 161.702 623.074 161.874L625.707 151.212C627.023 150.933 628.698 150.899 630.731 151.111C632.781 151.293 635.045 151.773 637.522 152.549C639.999 153.324 642.508 154.446 645.048 155.912C648.801 158.079 651.814 160.627 654.088 163.556C656.361 166.485 657.699 169.567 658.102 172.802C658.534 176.054 657.859 179.224 656.075 182.313C655.059 184.074 653.791 185.536 652.273 186.699C650.754 187.863 648.811 188.762 646.443 189.396C644.105 190.047 641.173 190.491 637.65 190.727C635.222 190.865 633.281 191.227 631.827 191.812C630.403 192.413 629.199 193.431 628.217 194.865C627.28 196.288 626.277 198.326 625.207 200.979L614.901 195.029ZM608.375 219.032C606.354 217.866 604.975 216.222 604.236 214.102C603.513 211.953 603.769 209.81 605.002 207.674C605.836 206.231 606.893 205.167 608.173 204.482C609.483 203.814 610.867 203.516 612.326 203.589C613.785 203.661 615.193 204.089 616.55 204.873C618.6 206.056 619.971 207.714 620.665 209.846C621.403 211.967 621.148 214.109 619.898 216.274C619.081 217.689 618.018 218.73 616.709 219.398C615.428 220.083 614.058 220.389 612.599 220.316C611.14 220.244 609.732 219.816 608.375 219.032Z" fill="#06B6D4"/>
<rect x="764.161" y="186" width="140" height="140" rx="34.4827" transform="rotate(30 764.161 186)" fill="#22D3EE"/>
<path d="M775.982 288.029C777.048 284.45 778.248 281.736 779.584 279.89C780.936 278.015 782.552 276.716 784.432 275.992C786.342 275.285 788.644 274.864 791.341 274.727C795.145 274.537 797.859 274.102 799.483 273.423C801.107 272.744 802.344 271.669 803.194 270.196C804.527 267.887 804.696 265.694 803.701 263.619C802.751 261.53 800.746 259.603 797.686 257.836C795.434 256.536 793.201 255.671 790.987 255.239C788.802 254.824 786.524 254.702 784.154 254.874L786.788 244.212C788.104 243.933 789.779 243.899 791.812 244.111C793.862 244.293 796.125 244.773 798.603 245.549C801.08 246.324 803.589 247.446 806.129 248.912C809.882 251.079 812.895 253.627 815.168 256.556C817.442 259.485 818.78 262.567 819.183 265.802C819.615 269.054 818.939 272.224 817.156 275.313C816.139 277.074 814.872 278.536 813.353 279.699C811.835 280.863 809.892 281.762 807.524 282.396C805.185 283.047 802.254 283.491 798.73 283.727C796.303 283.865 794.362 284.227 792.908 284.812C791.483 285.413 790.28 286.431 789.298 287.865C788.361 289.288 787.357 291.326 786.287 293.979L775.982 288.029ZM769.456 312.032C767.435 310.866 766.055 309.222 765.316 307.102C764.594 304.953 764.85 302.81 766.083 300.674C766.916 299.231 767.973 298.167 769.254 297.482C770.563 296.814 771.948 296.516 773.407 296.589C774.866 296.661 776.274 297.089 777.631 297.873C779.68 299.056 781.052 300.714 781.745 302.846C782.484 304.967 782.229 307.109 780.979 309.274C780.162 310.689 779.099 311.73 777.789 312.398C776.509 313.083 775.139 313.389 773.68 313.316C772.221 313.244 770.813 312.816 769.456 312.032Z" fill="#06B6D4"/>
<rect x="925.242" y="279" width="140" height="140" rx="34.4827" transform="rotate(30 925.242 279)" fill="#22D3EE"/>
<path d="M937.062 381.029C938.128 377.45 939.329 374.736 940.665 372.89C942.017 371.015 943.633 369.716 945.513 368.992C947.422 368.285 949.725 367.864 952.421 367.727C956.226 367.537 958.94 367.102 960.564 366.423C962.188 365.744 963.425 364.669 964.275 363.196C965.608 360.887 965.777 358.694 964.781 356.619C963.831 354.53 961.826 352.603 958.767 350.836C956.515 349.536 954.282 348.671 952.068 348.239C949.882 347.824 947.605 347.702 945.235 347.874L947.869 337.212C949.185 336.933 950.859 336.899 952.893 337.111C954.942 337.293 957.206 337.773 959.683 338.549C962.161 339.324 964.669 340.446 967.21 341.912C970.962 344.079 973.976 346.627 976.249 349.556C978.522 352.485 979.861 355.567 980.264 358.802C980.696 362.054 980.02 365.224 978.237 368.313C977.22 370.074 975.953 371.536 974.434 372.699C972.916 373.863 970.973 374.762 968.605 375.396C966.266 376.047 963.335 376.491 959.811 376.727C957.383 376.865 955.443 377.227 953.989 377.812C952.564 378.413 951.36 379.431 950.378 380.865C949.442 382.288 948.438 384.326 947.368 386.979L937.062 381.029ZM930.537 405.032C928.516 403.866 927.136 402.222 926.397 400.102C925.675 397.953 925.93 395.81 927.164 393.674C927.997 392.231 929.054 391.167 930.335 390.482C931.644 389.814 933.028 389.516 934.488 389.589C935.947 389.661 937.355 390.089 938.712 390.873C940.761 392.056 942.133 393.714 942.826 395.846C943.565 397.967 943.309 400.109 942.059 402.274C941.243 403.689 940.18 404.73 938.87 405.398C937.589 406.083 936.22 406.389 934.76 406.316C933.301 406.244 931.893 405.816 930.537 405.032Z" fill="#06B6D4"/>
<rect x="1086.32" y="372" width="140" height="140" rx="34.4827" transform="rotate(30 1086.32 372)" fill="#22D3EE"/>
<path d="M1098.14 474.029C1099.21 470.45 1100.41 467.736 1101.75 465.89C1103.1 464.015 1104.71 462.716 1106.59 461.992C1108.5 461.285 1110.81 460.864 1113.5 460.727C1117.31 460.537 1120.02 460.102 1121.64 459.423C1123.27 458.744 1124.51 457.669 1125.36 456.196C1126.69 453.887 1126.86 451.694 1125.86 449.619C1124.91 447.53 1122.91 445.603 1119.85 443.836C1117.6 442.536 1115.36 441.671 1113.15 441.239C1110.96 440.824 1108.69 440.702 1106.32 440.874L1108.95 430.212C1110.27 429.933 1111.94 429.899 1113.97 430.111C1116.02 430.293 1118.29 430.773 1120.76 431.549C1123.24 432.324 1125.75 433.446 1128.29 434.912C1132.04 437.079 1135.06 439.627 1137.33 442.556C1139.6 445.485 1140.94 448.567 1141.34 451.802C1141.78 455.054 1141.1 458.224 1139.32 461.313C1138.3 463.074 1137.03 464.536 1135.51 465.699C1134 466.863 1132.05 467.762 1129.69 468.396C1127.35 469.047 1124.42 469.491 1120.89 469.727C1118.46 469.865 1116.52 470.227 1115.07 470.812C1113.64 471.413 1112.44 472.431 1111.46 473.865C1110.52 475.288 1109.52 477.326 1108.45 479.979L1098.14 474.029ZM1091.62 498.032C1089.6 496.866 1088.22 495.222 1087.48 493.102C1086.76 490.953 1087.01 488.81 1088.24 486.674C1089.08 485.231 1090.13 484.167 1091.42 483.482C1092.72 482.814 1094.11 482.516 1095.57 482.589C1097.03 482.661 1098.44 483.089 1099.79 483.873C1101.84 485.056 1103.21 486.714 1103.91 488.846C1104.65 490.967 1104.39 493.109 1103.14 495.274C1102.32 496.689 1101.26 497.73 1099.95 498.398C1098.67 499.083 1097.3 499.389 1095.84 499.316C1094.38 499.244 1092.97 498.816 1091.62 498.032Z" fill="#06B6D4"/>
<rect x="349" y="161.081" width="140" height="140" rx="34.4827" transform="rotate(30 349 161.081)" fill="#22D3EE"/>
<path d="M360.82 263.11C361.886 259.53 363.087 256.817 364.422 254.971C365.774 253.096 367.391 251.796 369.271 251.073C371.18 250.366 373.483 249.944 376.179 249.807C379.984 249.618 382.698 249.183 384.322 248.504C385.945 247.825 387.182 246.749 388.032 245.277C389.366 242.968 389.535 240.775 388.539 238.699C387.589 236.611 385.584 234.684 382.524 232.917C380.273 231.617 378.04 230.751 375.826 230.32C373.64 229.905 371.363 229.783 368.993 229.954L371.626 219.293C372.942 219.013 374.617 218.98 376.65 219.191C378.7 219.374 380.964 219.853 383.441 220.629C385.918 221.405 388.427 222.526 390.967 223.993C394.72 226.16 397.733 228.708 400.007 231.637C402.28 234.566 403.618 237.648 404.021 240.883C404.454 244.135 403.778 247.305 401.995 250.394C400.978 252.155 399.71 253.617 398.192 254.78C396.674 255.943 394.73 256.842 392.363 257.477C390.024 258.128 387.092 258.572 383.569 258.808C381.141 258.946 379.2 259.308 377.747 259.892C376.322 260.494 375.118 261.512 374.136 262.946C373.199 264.368 372.196 266.406 371.126 269.06L360.82 263.11ZM354.294 287.113C352.274 285.946 350.894 284.303 350.155 282.183C349.433 280.034 349.688 277.891 350.921 275.755C351.755 274.312 352.812 273.247 354.092 272.563C355.402 271.895 356.786 271.597 358.245 271.67C359.705 271.742 361.113 272.17 362.469 272.953C364.519 274.137 365.89 275.795 366.584 277.927C367.323 280.047 367.067 282.19 365.817 284.355C365 285.769 363.937 286.811 362.628 287.479C361.347 288.164 359.977 288.47 358.518 288.397C357.059 288.324 355.651 287.896 354.294 287.113Z" fill="#06B6D4"/>
<rect x="510.081" y="254.081" width="140" height="140" rx="34.4827" transform="rotate(30 510.081 254.081)" fill="#22D3EE"/>
<path d="M521.901 356.11C522.967 352.53 524.168 349.817 525.503 347.971C526.855 346.096 528.471 344.796 530.352 344.073C532.261 343.366 534.564 342.944 537.26 342.807C541.065 342.618 543.779 342.183 545.402 341.504C547.026 340.825 548.263 339.749 549.113 338.277C550.446 335.968 550.615 333.775 549.62 331.699C548.67 329.611 546.665 327.684 543.605 325.917C541.353 324.617 539.121 323.751 536.906 323.32C534.721 322.905 532.443 322.783 530.074 322.954L532.707 312.293C534.023 312.013 535.698 311.98 537.731 312.191C539.781 312.374 542.045 312.853 544.522 313.629C546.999 314.405 549.508 315.526 552.048 316.993C555.801 319.16 558.814 321.708 561.088 324.637C563.361 327.566 564.699 330.648 565.102 333.883C565.534 337.135 564.859 340.305 563.075 343.394C562.059 345.155 560.791 346.617 559.273 347.78C557.754 348.943 555.811 349.842 553.443 350.477C551.105 351.128 548.173 351.572 544.65 351.808C542.222 351.946 540.281 352.308 538.827 352.892C537.403 353.494 536.199 354.512 535.217 355.946C534.28 357.368 533.277 359.406 532.207 362.06L521.901 356.11ZM515.375 380.113C513.354 378.946 511.975 377.303 511.236 375.183C510.513 373.034 510.769 370.891 512.002 368.755C512.836 367.312 513.893 366.247 515.173 365.563C516.483 364.895 517.867 364.597 519.326 364.67C520.785 364.742 522.193 365.17 523.55 365.953C525.6 367.137 526.971 368.795 527.665 370.927C528.403 373.047 528.148 375.19 526.898 377.355C526.081 378.769 525.018 379.811 523.709 380.479C522.428 381.164 521.058 381.47 519.599 381.397C518.14 381.324 516.732 380.896 515.375 380.113Z" fill="#06B6D4"/>
<rect x="671.161" y="347.081" width="140" height="140" rx="34.4827" transform="rotate(30 671.161 347.081)" fill="#22D3EE"/>
<path d="M682.982 449.11C684.048 445.53 685.248 442.817 686.584 440.971C687.936 439.096 689.552 437.796 691.432 437.073C693.342 436.366 695.644 435.944 698.341 435.807C702.145 435.618 704.859 435.183 706.483 434.504C708.107 433.825 709.344 432.749 710.194 431.277C711.527 428.968 711.696 426.775 710.701 424.699C709.751 422.611 707.746 420.684 704.686 418.917C702.434 417.617 700.201 416.751 697.987 416.32C695.802 415.905 693.524 415.783 691.154 415.954L693.788 405.293C695.104 405.013 696.779 404.98 698.812 405.191C700.862 405.374 703.125 405.853 705.603 406.629C708.08 407.405 710.589 408.526 713.129 409.993C716.882 412.16 719.895 414.708 722.168 417.637C724.442 420.566 725.78 423.648 726.183 426.883C726.615 430.135 725.939 433.305 724.156 436.394C723.139 438.155 721.872 439.617 720.353 440.78C718.835 441.943 716.892 442.842 714.524 443.477C712.185 444.128 709.254 444.572 705.73 444.808C703.303 444.946 701.362 445.308 699.908 445.892C698.483 446.494 697.28 447.512 696.298 448.946C695.361 450.368 694.357 452.406 693.287 455.06L682.982 449.11ZM676.456 473.113C674.435 471.946 673.055 470.303 672.316 468.183C671.594 466.034 671.85 463.891 673.083 461.755C673.916 460.312 674.973 459.247 676.254 458.563C677.563 457.895 678.948 457.597 680.407 457.67C681.866 457.742 683.274 458.17 684.631 458.953C686.68 460.137 688.052 461.795 688.745 463.927C689.484 466.047 689.229 468.19 687.979 470.355C687.162 471.769 686.099 472.811 684.789 473.479C683.509 474.164 682.139 474.47 680.68 474.397C679.221 474.324 677.813 473.896 676.456 473.113Z" fill="#06B6D4"/>
<rect x="832.242" y="440.081" width="140" height="140" rx="34.4827" transform="rotate(30 832.242 440.081)" fill="#22D3EE"/>
<path d="M844.062 542.11C845.128 538.53 846.329 535.817 847.665 533.971C849.017 532.096 850.633 530.796 852.513 530.073C854.422 529.366 856.725 528.944 859.421 528.807C863.226 528.618 865.94 528.183 867.564 527.504C869.188 526.825 870.425 525.749 871.275 524.277C872.608 521.968 872.777 519.775 871.781 517.699C870.831 515.611 868.827 513.684 865.767 511.917C863.515 510.617 861.282 509.751 859.068 509.32C856.882 508.905 854.605 508.783 852.235 508.955L854.869 498.293C856.185 498.014 857.859 497.98 859.893 498.191C861.942 498.374 864.206 498.853 866.683 499.629C869.161 500.405 871.669 501.527 874.21 502.993C877.963 505.16 880.976 507.708 883.249 510.637C885.522 513.566 886.861 516.648 887.264 519.883C887.696 523.135 887.02 526.305 885.237 529.394C884.22 531.155 882.953 532.617 881.434 533.78C879.916 534.943 877.973 535.842 875.605 536.477C873.266 537.128 870.335 537.572 866.811 537.808C864.383 537.946 862.443 538.308 860.989 538.892C859.564 539.494 858.36 540.512 857.378 541.946C856.442 543.368 855.438 545.406 854.368 548.06L844.062 542.11ZM837.537 566.113C835.516 564.946 834.136 563.303 833.397 561.183C832.675 559.034 832.93 556.891 834.164 554.755C834.997 553.312 836.054 552.248 837.335 551.563C838.644 550.895 840.028 550.597 841.488 550.67C842.947 550.742 844.355 551.17 845.712 551.954C847.761 553.137 849.133 554.795 849.826 556.927C850.565 559.047 850.309 561.19 849.059 563.355C848.243 564.769 847.18 565.811 845.87 566.479C844.59 567.164 843.22 567.47 841.76 567.397C840.301 567.324 838.893 566.896 837.537 566.113Z" fill="#06B6D4"/>
<rect x="993.323" y="533.081" width="140" height="140" rx="34.4827" transform="rotate(30 993.323 533.081)" fill="#22D3EE"/>
<path d="M1005.14 635.11C1006.21 631.53 1007.41 628.817 1008.75 626.971C1010.1 625.096 1011.71 623.796 1013.59 623.073C1015.5 622.366 1017.81 621.944 1020.5 621.807C1024.31 621.618 1027.02 621.183 1028.64 620.504C1030.27 619.825 1031.51 618.749 1032.36 617.277C1033.69 614.968 1033.86 612.775 1032.86 610.699C1031.91 608.611 1029.91 606.684 1026.85 604.917C1024.6 603.617 1022.36 602.751 1020.15 602.32C1017.96 601.905 1015.69 601.783 1013.32 601.955L1015.95 591.293C1017.27 591.014 1018.94 590.98 1020.97 591.191C1023.02 591.374 1025.29 591.853 1027.76 592.629C1030.24 593.405 1032.75 594.527 1035.29 595.993C1039.04 598.16 1042.06 600.708 1044.33 603.637C1046.6 606.566 1047.94 609.648 1048.34 612.883C1048.78 616.135 1048.1 619.305 1046.32 622.394C1045.3 624.155 1044.03 625.617 1042.51 626.78C1041 627.943 1039.05 628.842 1036.69 629.477C1034.35 630.128 1031.42 630.572 1027.89 630.808C1025.46 630.946 1023.52 631.308 1022.07 631.892C1020.64 632.494 1019.44 633.512 1018.46 634.946C1017.52 636.368 1016.52 638.406 1015.45 641.06L1005.14 635.11ZM998.617 659.113C996.596 657.946 995.217 656.303 994.478 654.183C993.755 652.034 994.011 649.891 995.244 647.755C996.078 646.312 997.135 645.248 998.415 644.563C999.725 643.895 1001.11 643.597 1002.57 643.67C1004.03 643.742 1005.44 644.17 1006.79 644.954C1008.84 646.137 1010.21 647.795 1010.91 649.927C1011.65 652.047 1011.39 654.19 1010.14 656.355C1009.32 657.769 1008.26 658.811 1006.95 659.479C1005.67 660.164 1004.3 660.47 1002.84 660.397C1001.38 660.324 999.974 659.896 998.617 659.113Z" fill="#06B6D4"/>
<rect x="256" y="322.161" width="140" height="140" rx="34.4827" transform="rotate(30 256 322.161)" fill="#22D3EE"/>
<path d="M267.82 424.191C268.886 420.611 270.087 417.898 271.422 416.052C272.774 414.176 274.391 412.877 276.271 412.154C278.18 411.447 280.483 411.025 283.179 410.888C286.984 410.698 289.698 410.264 291.322 409.585C292.945 408.906 294.182 407.83 295.032 406.358C296.366 404.048 296.535 401.856 295.539 399.78C294.589 397.692 292.584 395.765 289.524 393.998C287.273 392.698 285.04 391.832 282.826 391.401C280.64 390.986 278.363 390.864 275.993 391.035L278.626 380.374C279.942 380.094 281.617 380.06 283.65 380.272C285.7 380.455 287.964 380.934 290.441 381.71C292.918 382.486 295.427 383.607 297.967 385.074C301.72 387.241 304.733 389.789 307.007 392.718C309.28 395.647 310.618 398.729 311.021 401.964C311.454 405.215 310.778 408.386 308.995 411.474C307.978 413.235 306.71 414.698 305.192 415.861C303.674 417.024 301.73 417.923 299.363 418.557C297.024 419.209 294.092 419.652 290.569 419.889C288.141 420.027 286.2 420.388 284.747 420.973C283.322 421.575 282.118 422.592 281.136 424.027C280.199 425.449 279.196 427.487 278.126 430.141L267.82 424.191ZM261.294 448.194C259.274 447.027 257.894 445.384 257.155 443.264C256.433 441.115 256.688 438.972 257.921 436.836C258.755 435.392 259.812 434.328 261.092 433.643C262.402 432.975 263.786 432.678 265.245 432.75C266.705 432.823 268.113 433.251 269.469 434.034C271.519 435.218 272.89 436.875 273.584 439.008C274.323 441.128 274.067 443.271 272.817 445.436C272 446.85 270.937 447.892 269.628 448.56C268.347 449.244 266.977 449.55 265.518 449.478C264.059 449.405 262.651 448.977 261.294 448.194Z" fill="#06B6D4"/>
<rect x="417.081" y="415.161" width="140" height="140" rx="34.4827" transform="rotate(30 417.081 415.161)" fill="#22D3EE"/>
<path d="M428.901 517.191C429.967 513.611 431.168 510.898 432.503 509.052C433.855 507.176 435.471 505.877 437.352 505.154C439.261 504.447 441.564 504.025 444.26 503.888C448.064 503.698 450.779 503.264 452.402 502.585C454.026 501.906 455.263 500.83 456.113 499.358C457.446 497.048 457.615 494.856 456.62 492.78C455.67 490.692 453.665 488.765 450.605 486.998C448.353 485.698 446.12 484.832 443.906 484.401C441.721 483.986 439.443 483.864 437.074 484.035L439.707 473.374C441.023 473.094 442.698 473.06 444.731 473.272C446.781 473.455 449.045 473.934 451.522 474.71C453.999 475.486 456.508 476.607 459.048 478.074C462.801 480.241 465.814 482.788 468.087 485.718C470.361 488.647 471.699 491.729 472.102 494.964C472.534 498.215 471.859 501.386 470.075 504.474C469.059 506.235 467.791 507.697 466.273 508.861C464.754 510.024 462.811 510.923 460.443 511.557C458.104 512.209 455.173 512.652 451.65 512.889C449.222 513.027 447.281 513.388 445.827 513.973C444.402 514.574 443.199 515.592 442.217 517.027C441.28 518.449 440.277 520.487 439.206 523.141L428.901 517.191ZM422.375 541.194C420.354 540.027 418.974 538.384 418.236 536.263C417.513 534.114 417.769 531.972 419.002 529.836C419.836 528.392 420.893 527.328 422.173 526.643C423.483 525.975 424.867 525.678 426.326 525.75C427.785 525.823 429.193 526.251 430.55 527.034C432.6 528.218 433.971 529.875 434.664 532.008C435.403 534.128 435.148 536.271 433.898 538.436C433.081 539.85 432.018 540.891 430.709 541.56C429.428 542.244 428.058 542.55 426.599 542.478C425.14 542.405 423.732 541.977 422.375 541.194Z" fill="#06B6D4"/>
<rect x="578.161" y="508.161" width="140" height="140" rx="34.4827" transform="rotate(30 578.161 508.161)" fill="#22D3EE"/>
<path d="M589.982 610.191C591.048 606.611 592.248 603.898 593.584 602.052C594.936 600.176 596.552 598.877 598.432 598.154C600.342 597.447 602.644 597.025 605.341 596.888C609.145 596.698 611.859 596.264 613.483 595.585C615.107 594.906 616.344 593.83 617.194 592.358C618.527 590.048 618.696 587.856 617.701 585.78C616.751 583.692 614.746 581.765 611.686 579.998C609.434 578.698 607.201 577.832 604.987 577.401C602.802 576.986 600.524 576.864 598.154 577.035L600.788 566.374C602.104 566.094 603.779 566.06 605.812 566.272C607.862 566.455 610.125 566.934 612.603 567.71C615.08 568.486 617.589 569.607 620.129 571.074C623.882 573.241 626.895 575.788 629.168 578.718C631.442 581.647 632.78 584.729 633.183 587.964C633.615 591.215 632.939 594.386 631.156 597.474C630.139 599.235 628.872 600.697 627.353 601.861C625.835 603.024 623.892 603.923 621.524 604.557C619.185 605.209 616.254 605.652 612.73 605.889C610.303 606.027 608.362 606.388 606.908 606.973C605.483 607.574 604.28 608.592 603.298 610.027C602.361 611.449 601.357 613.487 600.287 616.141L589.982 610.191ZM583.456 634.194C581.435 633.027 580.055 631.384 579.316 629.263C578.594 627.114 578.85 624.972 580.083 622.836C580.916 621.392 581.973 620.328 583.254 619.643C584.563 618.975 585.948 618.678 587.407 618.75C588.866 618.823 590.274 619.251 591.631 620.034C593.68 621.218 595.052 622.875 595.745 625.008C596.484 627.128 596.229 629.271 594.979 631.436C594.162 632.85 593.099 633.891 591.789 634.56C590.509 635.244 589.139 635.55 587.68 635.478C586.221 635.405 584.813 634.977 583.456 634.194Z" fill="#06B6D4"/>
<rect x="739.242" y="601.161" width="140" height="140" rx="34.4827" transform="rotate(30 739.242 601.161)" fill="#22D3EE"/>
<path d="M751.062 703.191C752.128 699.611 753.329 696.898 754.665 695.052C756.017 693.176 757.633 691.877 759.513 691.154C761.422 690.447 763.725 690.025 766.421 689.888C770.226 689.698 772.94 689.264 774.564 688.585C776.188 687.906 777.425 686.83 778.275 685.358C779.608 683.048 779.777 680.856 778.781 678.78C777.831 676.692 775.827 674.765 772.767 672.998C770.515 671.698 768.282 670.832 766.068 670.401C763.882 669.986 761.605 669.864 759.235 670.035L761.869 659.374C763.185 659.094 764.859 659.06 766.893 659.272C768.942 659.455 771.206 659.934 773.683 660.71C776.161 661.486 778.669 662.607 781.21 664.074C784.963 666.241 787.976 668.788 790.249 671.718C792.522 674.647 793.861 677.729 794.264 680.964C794.696 684.215 794.02 687.386 792.237 690.474C791.22 692.235 789.953 693.697 788.434 694.861C786.916 696.024 784.973 696.923 782.605 697.557C780.266 698.209 777.335 698.652 773.811 698.889C771.383 699.027 769.443 699.388 767.989 699.973C766.564 700.574 765.36 701.592 764.378 703.027C763.442 704.449 762.438 706.487 761.368 709.141L751.062 703.191ZM744.537 727.194C742.516 726.027 741.136 724.384 740.397 722.263C739.675 720.114 739.93 717.972 741.164 715.836C741.997 714.392 743.054 713.328 744.335 712.643C745.644 711.975 747.028 711.678 748.488 711.75C749.947 711.823 751.355 712.251 752.712 713.034C754.761 714.218 756.133 715.875 756.826 718.008C757.565 720.128 757.309 722.271 756.059 724.436C755.243 725.85 754.18 726.891 752.87 727.56C751.59 728.244 750.22 728.55 748.76 728.478C747.301 728.405 745.893 727.977 744.537 727.194Z" fill="#06B6D4"/>
<rect x="900.323" y="694.161" width="140" height="140" rx="34.4827" transform="rotate(30 900.323 694.161)" fill="#22D3EE"/>
<path d="M912.143 796.191C913.209 792.611 914.41 789.898 915.745 788.052C917.097 786.176 918.713 784.877 920.594 784.154C922.503 783.447 924.806 783.025 927.502 782.888C931.307 782.698 934.021 782.264 935.645 781.585C937.268 780.906 938.505 779.83 939.355 778.358C940.689 776.048 940.858 773.856 939.862 771.78C938.912 769.692 936.907 767.765 933.847 765.998C931.596 764.698 929.363 763.832 927.148 763.401C924.963 762.986 922.686 762.864 920.316 763.035L922.949 752.374C924.265 752.094 925.94 752.06 927.973 752.272C930.023 752.455 932.287 752.934 934.764 753.71C937.241 754.486 939.75 755.607 942.29 757.074C946.043 759.241 949.056 761.788 951.33 764.718C953.603 767.647 954.941 770.729 955.344 773.964C955.776 777.215 955.101 780.386 953.318 783.474C952.301 785.235 951.033 786.697 949.515 787.861C947.996 789.024 946.053 789.923 943.686 790.557C941.347 791.209 938.415 791.652 934.892 791.889C932.464 792.027 930.523 792.388 929.07 792.973C927.645 793.574 926.441 794.592 925.459 796.027C924.522 797.449 923.519 799.487 922.449 802.141L912.143 796.191ZM905.617 820.194C903.596 819.027 902.217 817.384 901.478 815.263C900.756 813.114 901.011 810.972 902.244 808.836C903.078 807.392 904.135 806.328 905.415 805.643C906.725 804.975 908.109 804.678 909.568 804.75C911.027 804.823 912.435 805.251 913.792 806.034C915.842 807.218 917.213 808.875 917.907 811.008C918.646 813.128 918.39 815.271 917.14 817.436C916.323 818.85 915.26 819.891 913.951 820.56C912.67 821.244 911.3 821.55 909.841 821.478C908.382 821.405 906.974 820.977 905.617 820.194Z" fill="#06B6D4"/>
<rect x="163" y="483.242" width="140" height="140" rx="34.4827" transform="rotate(30 163 483.242)" fill="#22D3EE"/>
<path d="M174.82 585.272C175.886 581.692 177.087 578.979 178.422 577.132C179.774 575.257 181.391 573.958 183.271 573.234C185.18 572.528 187.483 572.106 190.179 571.969C193.984 571.779 196.698 571.345 198.322 570.666C199.945 569.986 201.182 568.911 202.032 567.439C203.366 565.129 203.535 562.937 202.539 560.861C201.589 558.773 199.584 556.845 196.524 555.079C194.273 553.779 192.04 552.913 189.826 552.481C187.64 552.066 185.363 551.945 182.993 552.116L185.626 541.454C186.942 541.175 188.617 541.141 190.65 541.353C192.7 541.536 194.964 542.015 197.441 542.791C199.918 543.567 202.427 544.688 204.967 546.155C208.72 548.321 211.733 550.869 214.007 553.798C216.28 556.727 217.618 559.809 218.021 563.044C218.454 566.296 217.778 569.466 215.995 572.555C214.978 574.316 213.71 575.778 212.192 576.942C210.674 578.105 208.73 579.004 206.363 579.638C204.024 580.289 201.092 580.733 197.569 580.97C195.141 581.108 193.2 581.469 191.747 582.054C190.322 582.655 189.118 583.673 188.136 585.108C187.199 586.53 186.196 588.568 185.126 591.222L174.82 585.272ZM168.294 609.275C166.274 608.108 164.894 606.464 164.155 604.344C163.433 602.195 163.688 600.053 164.921 597.916C165.755 596.473 166.812 595.409 168.092 594.724C169.402 594.056 170.786 593.758 172.245 593.831C173.705 593.904 175.113 594.332 176.469 595.115C178.519 596.298 179.89 597.956 180.584 600.089C181.323 602.209 181.067 604.351 179.817 606.516C179 607.931 177.937 608.972 176.628 609.64C175.347 610.325 173.977 610.631 172.518 610.558C171.059 610.486 169.651 610.058 168.294 609.275Z" fill="#06B6D4"/>
<rect x="324.081" y="576.242" width="140" height="140" rx="34.4827" transform="rotate(30 324.081 576.242)" fill="#22D3EE"/>
<path d="M335.901 678.272C336.967 674.692 338.168 671.979 339.503 670.132C340.855 668.257 342.471 666.958 344.352 666.234C346.261 665.528 348.563 665.106 351.26 664.969C355.064 664.779 357.779 664.345 359.402 663.666C361.026 662.986 362.263 661.911 363.113 660.439C364.446 658.129 364.615 655.937 363.62 653.861C362.67 651.773 360.665 649.845 357.605 648.079C355.353 646.779 353.12 645.913 350.906 645.481C348.721 645.066 346.443 644.945 344.073 645.116L346.707 634.454C348.023 634.175 349.698 634.141 351.731 634.353C353.781 634.536 356.045 635.015 358.522 635.791C360.999 636.567 363.508 637.688 366.048 639.155C369.801 641.321 372.814 643.869 375.087 646.798C377.361 649.727 378.699 652.809 379.102 656.044C379.534 659.296 378.859 662.466 377.075 665.555C376.059 667.316 374.791 668.778 373.273 669.942C371.754 671.105 369.811 672.004 367.443 672.638C365.104 673.289 362.173 673.733 358.649 673.97C356.222 674.108 354.281 674.469 352.827 675.054C351.402 675.655 350.199 676.673 349.217 678.108C348.28 679.53 347.277 681.568 346.206 684.222L335.901 678.272ZM329.375 702.275C327.354 701.108 325.974 699.464 325.236 697.344C324.513 695.195 324.769 693.053 326.002 690.916C326.835 689.473 327.892 688.409 329.173 687.724C330.483 687.056 331.867 686.758 333.326 686.831C334.785 686.904 336.193 687.332 337.55 688.115C339.6 689.298 340.971 690.956 341.664 693.089C342.403 695.209 342.148 697.351 340.898 699.516C340.081 700.931 339.018 701.972 337.709 702.64C336.428 703.325 335.058 703.631 333.599 703.558C332.14 703.486 330.732 703.058 329.375 702.275Z" fill="#06B6D4"/>
<rect x="485.161" y="669.242" width="140" height="140" rx="34.4827" transform="rotate(30 485.161 669.242)" fill="#22D3EE"/>
<path d="M496.982 771.272C498.048 767.692 499.248 764.979 500.584 763.132C501.936 761.257 503.552 759.958 505.432 759.234C507.342 758.528 509.644 758.106 512.341 757.969C516.145 757.779 518.859 757.345 520.483 756.666C522.107 755.986 523.344 754.911 524.194 753.439C525.527 751.129 525.696 748.937 524.701 746.861C523.751 744.773 521.746 742.845 518.686 741.079C516.434 739.779 514.201 738.913 511.987 738.481C509.802 738.066 507.524 737.945 505.154 738.116L507.788 727.454C509.104 727.175 510.779 727.141 512.812 727.353C514.862 727.536 517.125 728.015 519.603 728.791C522.08 729.567 524.589 730.688 527.129 732.155C530.882 734.321 533.895 736.869 536.168 739.798C538.442 742.727 539.78 745.809 540.183 749.044C540.615 752.296 539.939 755.466 538.156 758.555C537.139 760.316 535.872 761.778 534.353 762.942C532.835 764.105 530.892 765.004 528.524 765.638C526.185 766.289 523.254 766.733 519.73 766.97C517.303 767.108 515.362 767.469 513.908 768.054C512.483 768.655 511.28 769.673 510.298 771.108C509.361 772.53 508.357 774.568 507.287 777.222L496.982 771.272ZM490.456 795.275C488.435 794.108 487.055 792.464 486.316 790.344C485.594 788.195 485.85 786.053 487.083 783.916C487.916 782.473 488.973 781.409 490.254 780.724C491.563 780.056 492.948 779.758 494.407 779.831C495.866 779.904 497.274 780.332 498.631 781.115C500.68 782.298 502.052 783.956 502.745 786.089C503.484 788.209 503.229 790.351 501.979 792.516C501.162 793.931 500.099 794.972 498.789 795.64C497.509 796.325 496.139 796.631 494.68 796.558C493.221 796.486 491.813 796.058 490.456 795.275Z" fill="#06B6D4"/>
<rect x="646.242" y="762.242" width="140" height="140" rx="34.4827" transform="rotate(30 646.242 762.242)" fill="#22D3EE"/>
<path d="M658.062 864.272C659.128 860.692 660.329 857.979 661.665 856.132C663.017 854.257 664.633 852.958 666.513 852.234C668.422 851.528 670.725 851.106 673.421 850.969C677.226 850.779 679.94 850.345 681.564 849.666C683.188 848.986 684.425 847.911 685.275 846.439C686.608 844.129 686.777 841.937 685.781 839.861C684.831 837.773 682.827 835.845 679.767 834.079C677.515 832.779 675.282 831.913 673.068 831.481C670.882 831.066 668.605 830.945 666.235 831.116L668.869 820.454C670.185 820.175 671.859 820.141 673.893 820.353C675.942 820.536 678.206 821.015 680.683 821.791C683.161 822.567 685.669 823.688 688.21 825.155C691.963 827.321 694.976 829.869 697.249 832.798C699.522 835.727 700.861 838.809 701.264 842.044C701.696 845.296 701.02 848.466 699.237 851.555C698.22 853.316 696.953 854.778 695.434 855.942C693.916 857.105 691.973 858.004 689.605 858.638C687.266 859.289 684.335 859.733 680.811 859.97C678.383 860.108 676.443 860.469 674.989 861.054C673.564 861.655 672.36 862.673 671.378 864.108C670.442 865.53 669.438 867.568 668.368 870.222L658.062 864.272ZM651.537 888.275C649.516 887.108 648.136 885.464 647.397 883.344C646.675 881.195 646.93 879.053 648.164 876.916C648.997 875.473 650.054 874.409 651.335 873.724C652.644 873.056 654.028 872.758 655.488 872.831C656.947 872.904 658.355 873.332 659.712 874.115C661.761 875.298 663.133 876.956 663.826 879.089C664.565 881.209 664.309 883.351 663.059 885.516C662.243 886.931 661.18 887.972 659.87 888.64C658.59 889.325 657.22 889.631 655.76 889.558C654.301 889.486 652.893 889.058 651.537 888.275Z" fill="#06B6D4"/>
<rect x="807.323" y="855.242" width="140" height="140" rx="34.4827" transform="rotate(30 807.323 855.242)" fill="#22D3EE"/>
<path d="M819.143 957.272C820.209 953.692 821.41 950.979 822.745 949.132C824.097 947.257 825.713 945.958 827.594 945.234C829.503 944.528 831.806 944.106 834.502 943.969C838.307 943.779 841.021 943.345 842.645 942.666C844.268 941.986 845.505 940.911 846.355 939.439C847.689 937.129 847.858 934.937 846.862 932.861C845.912 930.773 843.907 928.845 840.847 927.079C838.596 925.779 836.363 924.913 834.148 924.481C831.963 924.066 829.686 923.945 827.316 924.116L829.949 913.454C831.265 913.175 832.94 913.141 834.973 913.353C837.023 913.536 839.287 914.015 841.764 914.791C844.241 915.567 846.75 916.688 849.29 918.155C853.043 920.321 856.056 922.869 858.33 925.798C860.603 928.727 861.941 931.809 862.344 935.044C862.776 938.296 862.101 941.466 860.318 944.555C859.301 946.316 858.033 947.778 856.515 948.942C854.996 950.105 853.053 951.004 850.686 951.638C848.347 952.289 845.415 952.733 841.892 952.97C839.464 953.108 837.523 953.469 836.07 954.054C834.645 954.655 833.441 955.673 832.459 957.108C831.522 958.53 830.519 960.568 829.449 963.222L819.143 957.272ZM812.617 981.275C810.596 980.108 809.217 978.464 808.478 976.344C807.756 974.195 808.011 972.053 809.244 969.916C810.078 968.473 811.135 967.409 812.415 966.724C813.725 966.056 815.109 965.758 816.568 965.831C818.027 965.904 819.435 966.332 820.792 967.115C822.842 968.298 824.213 969.956 824.907 972.089C825.646 974.209 825.39 976.351 824.14 978.516C823.323 979.931 822.26 980.972 820.951 981.64C819.67 982.325 818.3 982.631 816.841 982.558C815.382 982.486 813.974 982.058 812.617 981.275Z" fill="#06B6D4"/>
<rect x="70" y="644.323" width="140" height="140" rx="34.4827" transform="rotate(30 70 644.323)" fill="#22D3EE"/>
<path d="M81.82 746.352C82.8861 742.772 84.0869 740.059 85.4223 738.213C86.7744 736.338 88.3906 735.038 90.2709 734.315C92.18 733.608 94.4828 733.186 97.1791 733.05C100.984 732.86 103.698 732.425 105.322 731.746C106.945 731.067 108.182 729.991 109.032 728.519C110.366 726.21 110.535 724.017 109.539 721.941C108.589 719.853 106.584 717.926 103.524 716.159C101.273 714.859 99.0397 713.994 96.8255 713.562C94.6402 713.147 92.3626 713.025 89.9928 713.197L92.6264 702.535C93.9424 702.256 95.6171 702.222 97.6503 702.433C99.7002 702.616 101.964 703.096 104.441 703.871C106.918 704.647 109.427 705.769 111.967 707.235C115.72 709.402 118.733 711.95 121.007 714.879C123.28 717.808 124.618 720.89 125.021 724.125C125.454 727.377 124.778 730.547 122.995 733.636C121.978 735.397 120.71 736.859 119.192 738.022C117.674 739.186 115.73 740.084 113.363 740.719C111.024 741.37 108.092 741.814 104.569 742.05C102.141 742.188 100.2 742.55 98.7467 743.134C97.3217 743.736 96.1182 744.754 95.136 746.188C94.1994 747.611 93.196 749.649 92.1257 752.302L81.82 746.352ZM75.2943 770.355C73.2736 769.189 71.8937 767.545 71.1548 765.425C70.4326 763.276 70.6881 761.133 71.9215 758.997C72.7548 757.554 73.8118 756.49 75.0924 755.805C76.4019 755.137 77.7862 754.839 79.2454 754.912C80.7045 754.984 82.1125 755.412 83.4693 756.196C85.5189 757.379 86.8904 759.037 87.5837 761.169C88.3227 763.289 88.0671 765.432 86.8171 767.597C86.0004 769.012 84.9374 770.053 83.6279 770.721C82.3473 771.406 80.9774 771.712 79.5182 771.639C78.059 771.567 76.6511 771.139 75.2943 770.355Z" fill="#06B6D4"/>
<rect x="231.081" y="737.323" width="140" height="140" rx="34.4827" transform="rotate(30 231.081 737.323)" fill="#22D3EE"/>
<path d="M242.901 839.352C243.967 835.772 245.168 833.059 246.503 831.213C247.855 829.338 249.471 828.038 251.352 827.315C253.261 826.608 255.563 826.186 258.26 826.05C262.064 825.86 264.779 825.425 266.402 824.746C268.026 824.067 269.263 822.991 270.113 821.519C271.446 819.21 271.615 817.017 270.62 814.941C269.67 812.853 267.665 810.926 264.605 809.159C262.353 807.859 260.12 806.994 257.906 806.562C255.721 806.147 253.443 806.025 251.073 806.197L253.707 795.535C255.023 795.256 256.698 795.222 258.731 795.433C260.781 795.616 263.045 796.096 265.522 796.871C267.999 797.647 270.508 798.769 273.048 800.235C276.801 802.402 279.814 804.95 282.087 807.879C284.361 810.808 285.699 813.89 286.102 817.125C286.534 820.377 285.859 823.547 284.075 826.636C283.059 828.397 281.791 829.859 280.273 831.022C278.754 832.186 276.811 833.084 274.443 833.719C272.104 834.37 269.173 834.814 265.649 835.05C263.222 835.188 261.281 835.55 259.827 836.134C258.402 836.736 257.199 837.754 256.217 839.188C255.28 840.611 254.277 842.649 253.206 845.302L242.901 839.352ZM236.375 863.355C234.354 862.189 232.974 860.545 232.236 858.425C231.513 856.276 231.769 854.133 233.002 851.997C233.835 850.554 234.892 849.49 236.173 848.805C237.483 848.137 238.867 847.839 240.326 847.912C241.785 847.984 243.193 848.412 244.55 849.196C246.6 850.379 247.971 852.037 248.664 854.169C249.403 856.289 249.148 858.432 247.898 860.597C247.081 862.012 246.018 863.053 244.709 863.721C243.428 864.406 242.058 864.712 240.599 864.639C239.14 864.567 237.732 864.139 236.375 863.355Z" fill="#06B6D4"/>
<rect x="392.161" y="830.323" width="140" height="140" rx="34.4827" transform="rotate(30 392.161 830.323)" fill="#22D3EE"/>
<path d="M403.982 932.352C405.048 928.772 406.248 926.059 407.584 924.213C408.936 922.338 410.552 921.038 412.432 920.315C414.342 919.608 416.644 919.186 419.341 919.05C423.145 918.86 425.859 918.425 427.483 917.746C429.107 917.067 430.344 915.991 431.194 914.519C432.527 912.21 432.696 910.017 431.701 907.941C430.751 905.853 428.746 903.926 425.686 902.159C423.434 900.859 421.201 899.994 418.987 899.562C416.802 899.147 414.524 899.025 412.154 899.197L414.788 888.535C416.104 888.256 417.779 888.222 419.812 888.433C421.862 888.616 424.125 889.096 426.603 889.871C429.08 890.647 431.589 891.769 434.129 893.235C437.882 895.402 440.895 897.95 443.168 900.879C445.442 903.808 446.78 906.89 447.183 910.125C447.615 913.377 446.939 916.547 445.156 919.636C444.139 921.397 442.872 922.859 441.354 924.022C439.835 925.186 437.892 926.084 435.524 926.719C433.185 927.37 430.254 927.814 426.73 928.05C424.303 928.188 422.362 928.55 420.908 929.134C419.483 929.736 418.28 930.754 417.298 932.188C416.361 933.611 415.358 935.649 414.287 938.302L403.982 932.352ZM397.456 956.355C395.435 955.189 394.055 953.545 393.316 951.425C392.594 949.276 392.85 947.133 394.083 944.997C394.916 943.554 395.973 942.49 397.254 941.805C398.563 941.137 399.948 940.839 401.407 940.912C402.866 940.984 404.274 941.412 405.631 942.196C407.68 943.379 409.052 945.037 409.745 947.169C410.484 949.289 410.229 951.432 408.979 953.597C408.162 955.012 407.099 956.053 405.789 956.721C404.509 957.406 403.139 957.712 401.68 957.639C400.221 957.567 398.813 957.139 397.456 956.355Z" fill="#06B6D4"/>
<rect x="553.242" y="923.323" width="140" height="140" rx="34.4827" transform="rotate(30 553.242 923.323)" fill="#22D3EE"/>
<path d="M565.062 1025.35C566.128 1021.77 567.329 1019.06 568.665 1017.21C570.017 1015.34 571.633 1014.04 573.513 1013.31C575.422 1012.61 577.725 1012.19 580.421 1012.05C584.226 1011.86 586.94 1011.43 588.564 1010.75C590.188 1010.07 591.425 1008.99 592.275 1007.52C593.608 1005.21 593.777 1003.02 592.781 1000.94C591.831 998.853 589.827 996.926 586.767 995.159C584.515 993.859 582.282 992.994 580.068 992.562C577.882 992.147 575.605 992.025 573.235 992.197L575.869 981.535C577.185 981.256 578.859 981.222 580.893 981.433C582.942 981.616 585.206 982.096 587.683 982.871C590.161 983.647 592.669 984.769 595.21 986.235C598.963 988.402 601.976 990.95 604.249 993.879C606.522 996.808 607.861 999.89 608.264 1003.13C608.696 1006.38 608.02 1009.55 606.237 1012.64C605.22 1014.4 603.953 1015.86 602.434 1017.02C600.916 1018.19 598.973 1019.08 596.605 1019.72C594.266 1020.37 591.335 1020.81 587.811 1021.05C585.383 1021.19 583.443 1021.55 581.989 1022.13C580.564 1022.74 579.36 1023.75 578.378 1025.19C577.442 1026.61 576.438 1028.65 575.368 1031.3L565.062 1025.35ZM558.537 1049.36C556.516 1048.19 555.136 1046.55 554.397 1044.42C553.675 1042.28 553.93 1040.13 555.164 1038C555.997 1036.55 557.054 1035.49 558.335 1034.8C559.644 1034.14 561.028 1033.84 562.488 1033.91C563.947 1033.98 565.355 1034.41 566.712 1035.2C568.761 1036.38 570.133 1038.04 570.826 1040.17C571.565 1042.29 571.309 1044.43 570.059 1046.6C569.243 1048.01 568.18 1049.05 566.87 1049.72C565.59 1050.41 564.22 1050.71 562.76 1050.64C561.301 1050.57 559.893 1050.14 558.537 1049.36Z" fill="#06B6D4"/>
<rect x="714.323" y="1016.32" width="140" height="140" rx="34.4827" transform="rotate(30 714.323 1016.32)" fill="#22D3EE"/>
<path d="M726.143 1118.35C727.209 1114.77 728.41 1112.06 729.745 1110.21C731.097 1108.34 732.713 1107.04 734.594 1106.31C736.503 1105.61 738.806 1105.19 741.502 1105.05C745.307 1104.86 748.021 1104.43 749.645 1103.75C751.268 1103.07 752.505 1101.99 753.355 1100.52C754.689 1098.21 754.858 1096.02 753.862 1093.94C752.912 1091.85 750.907 1089.93 747.847 1088.16C745.596 1086.86 743.363 1085.99 741.148 1085.56C738.963 1085.15 736.686 1085.03 734.316 1085.2L736.949 1074.54C738.265 1074.26 739.94 1074.22 741.973 1074.43C744.023 1074.62 746.287 1075.1 748.764 1075.87C751.241 1076.65 753.75 1077.77 756.29 1079.24C760.043 1081.4 763.056 1083.95 765.33 1086.88C767.603 1089.81 768.941 1092.89 769.344 1096.13C769.776 1099.38 769.101 1102.55 767.318 1105.64C766.301 1107.4 765.033 1108.86 763.515 1110.02C761.996 1111.19 760.053 1112.08 757.686 1112.72C755.347 1113.37 752.415 1113.81 748.892 1114.05C746.464 1114.19 744.523 1114.55 743.07 1115.13C741.645 1115.74 740.441 1116.75 739.459 1118.19C738.522 1119.61 737.519 1121.65 736.449 1124.3L726.143 1118.35ZM719.617 1142.36C717.596 1141.19 716.217 1139.55 715.478 1137.42C714.756 1135.28 715.011 1133.13 716.244 1131C717.078 1129.55 718.135 1128.49 719.415 1127.8C720.725 1127.14 722.109 1126.84 723.568 1126.91C725.027 1126.98 726.435 1127.41 727.792 1128.2C729.842 1129.38 731.213 1131.04 731.907 1133.17C732.646 1135.29 732.39 1137.43 731.14 1139.6C730.323 1141.01 729.26 1142.05 727.951 1142.72C726.67 1143.41 725.3 1143.71 723.841 1143.64C722.382 1143.57 720.974 1143.14 719.617 1142.36Z" fill="#06B6D4"/>
</g>
</svg>
