<svg width="100" height="199" viewBox="0 0 100 199" fill="none" xmlns="http://www.w3.org/2000/svg">
<g filter="url(#filter0_d_321_74)">
<path d="M53.6166 42.7985C62.3999 42.7985 70.2809 44.7577 77.2595 48.6763C84.3584 52.5949 89.8931 58.1055 93.8637 65.2079C97.9546 72.3104 100 80.4537 100 89.6379C100 99.1895 97.8342 107.945 93.5027 115.905C89.1712 123.864 83.3356 130.171 75.9961 134.824C68.6566 139.478 60.5951 141.804 51.8118 141.804C42.7877 141.804 33.7637 139.294 24.7397 134.273C15.7157 129.13 8.31602 122.089 2.54065 113.15L32.5004 95.3322C33.9442 98.3936 36.2303 100.904 39.3586 102.863C42.4869 104.823 45.7356 105.802 49.1046 105.802C53.797 105.802 57.5871 104.394 60.4748 101.577C63.3625 98.6385 64.8063 94.7811 64.8063 90.0053C64.8063 85.7193 63.3023 82.0457 60.2943 78.9843C57.4066 75.8004 53.8572 74.2085 49.646 74.2085C42.1861 74.2085 37.0124 76.7188 34.1247 81.7395L7.41361 69.8L6.15025 70.1674V69.249L6.33073 68.8816L12.828 0H95.3075V32.8795H43.3292L42.2463 43.7169C46.4575 43.1046 50.2476 42.7985 53.6166 42.7985Z" fill="white"/>
<path d="M12.7239 161.202C15.0099 161.294 17.0403 161.845 18.8151 162.855C20.5898 163.865 21.9735 165.243 22.9661 166.988C23.9588 168.703 24.4551 170.646 24.4551 172.82C24.4551 175.116 23.9437 177.137 22.921 178.882C21.9284 180.627 20.5447 181.989 18.7699 182.969C16.9952 183.918 14.9799 184.392 12.7239 184.392C10.3475 184.392 8.21185 183.856 6.31681 182.785C4.45185 181.713 2.97792 180.275 1.89504 178.468C0.812161 176.632 0.19552 174.642 0.0451201 172.499L0 171.902V171.764C0 171.274 0.01504 170.922 0.0451201 170.708C0.2256 166.514 1.3536 162.779 3.42913 159.503C5.53473 156.197 8.22689 153.64 11.5056 151.834C14.8144 150.028 18.2887 149.125 21.9284 149.125C22.53 149.125 22.9812 149.14 23.282 149.171V156.748L22.0186 157.069C20.304 157.437 18.6647 157.911 17.1005 158.493C15.5664 159.074 14.1075 159.978 12.7239 161.202ZM12.3178 176.677C13.3405 176.677 14.2279 176.279 14.9799 175.484C15.7619 174.657 16.153 173.677 16.153 172.545C16.153 171.534 15.777 170.646 15.025 169.881C14.273 169.085 13.2954 168.687 12.0922 168.687C11.0394 168.687 10.137 169.009 9.38497 169.652C8.63297 170.264 8.22689 171.09 8.16673 172.131V172.453C8.19681 173.708 8.64801 174.733 9.52033 175.529C10.3927 176.295 11.3251 176.677 12.3178 176.677Z" fill="white"/>
<path d="M49.8901 159.273L43.077 182.647C41.9039 186.596 40.2645 189.643 38.1589 191.785C36.0533 193.928 33.5867 195 30.7592 195C29.556 195 28.2626 194.801 26.8789 194.403C25.5253 194.036 24.2619 193.515 23.0888 192.842L25.1192 184.576C25.2997 185.096 25.9464 185.586 27.0593 186.045C28.2024 186.535 29.2853 186.78 30.308 186.78C30.9998 186.78 31.6315 186.551 32.203 186.091C32.7746 185.663 33.2408 185.05 33.6018 184.254L23.5851 159.962L33.2408 159.641L37.2565 170.708L40.1442 159.687L49.8901 159.273Z" fill="white"/>
<path d="M70.1043 185.219L62.7948 175.989L61.1705 177.55V184.025H53.8611V159.733H61.1705V166.07L68.9763 159.044L74.7968 164.508L68.5251 170.478L76.1955 179.708L70.1043 185.219Z" fill="white"/>
<path d="M93.8187 170.524C94.7813 170.524 95.6536 170.8 96.4357 171.351C97.2478 171.902 97.8795 172.667 98.3307 173.647C98.812 174.596 99.0526 175.667 99.0526 176.861C99.0526 179.31 97.8946 181.147 95.5784 182.372C93.2923 183.566 89.788 184.163 85.0654 184.163H79.8766L80.012 161.156C82.9598 159.84 85.8926 159.182 88.8104 159.182C91.0664 159.182 92.9765 159.671 94.5406 160.651C96.1349 161.631 96.932 163.1 96.932 165.059C96.932 166.529 96.5861 167.753 95.8942 168.733C95.2024 169.713 94.285 170.325 93.1419 170.57C93.2923 170.539 93.5179 170.524 93.8187 170.524ZM90.5701 166.116C90.5701 165.595 90.3294 165.167 89.8482 164.83C89.3669 164.462 88.7502 164.279 87.9982 164.279C87.6373 164.279 87.156 164.401 86.5544 164.646V168.228C86.7349 168.289 86.9003 168.32 87.0507 168.32C88.0133 168.289 88.8405 168.075 89.5323 167.677C90.2242 167.248 90.5701 166.728 90.5701 166.116ZM87.8629 178.514C88.9458 178.514 89.8482 178.269 90.5701 177.78C91.3221 177.259 91.6981 176.632 91.6981 175.897C91.6981 175.223 91.3973 174.703 90.7957 174.335C90.1941 173.968 89.4421 173.784 88.5397 173.784C87.8478 173.784 87.1861 173.968 86.5544 174.335V178.285C86.9454 178.438 87.3816 178.514 87.8629 178.514Z" fill="white"/>
</g>
<defs>
<filter id="filter0_d_321_74" x="0" y="0" width="100" height="198.333" filterUnits="userSpaceOnUse" color-interpolation-filters="sRGB">
<feFlood flood-opacity="0" result="BackgroundImageFix"/>
<feColorMatrix in="SourceAlpha" type="matrix" values="0 0 0 0 0 0 0 0 0 0 0 0 0 0 0 0 0 0 127 0" result="hardAlpha"/>
<feOffset dy="3.33333"/>
<feComposite in2="hardAlpha" operator="out"/>
<feColorMatrix type="matrix" values="0 0 0 0 0.0235294 0 0 0 0 0.713726 0 0 0 0 0.831373 0 0 0 1 0"/>
<feBlend mode="normal" in2="BackgroundImageFix" result="effect1_dropShadow_321_74"/>
<feBlend mode="normal" in="SourceGraphic" in2="effect1_dropShadow_321_74" result="shape"/>
</filter>
</defs>
</svg>
