<svg width="50" height="97" viewBox="0 0 50 97" fill="none" xmlns="http://www.w3.org/2000/svg">
<g filter="url(#filter0_d_105_2478)">
<path d="M26.8083 20.8505C31.2 20.8505 35.1405 21.8051 38.6297 23.7141C42.1792 25.6232 44.9465 28.3078 46.9318 31.768C48.9773 35.2281 50 39.1954 50 43.6698C50 48.3231 48.9171 52.5887 46.7514 56.4664C44.5856 60.3442 41.6678 63.4166 37.9981 65.6836C34.3283 67.9506 30.2976 69.0841 25.9059 69.0841C21.3939 69.0841 16.8819 67.8611 12.3699 65.4152C7.85785 62.9095 4.15801 59.4792 1.27032 55.1241L16.2502 46.4439C16.9721 47.9353 18.1151 49.1583 19.6793 50.1129C21.2435 51.0674 22.8678 51.5446 24.5523 51.5446C26.8985 51.5446 28.7936 50.8586 30.2374 49.4864C31.6813 48.0546 32.4032 46.1754 32.4032 43.8487C32.4032 41.7607 31.6512 39.971 30.1472 38.4795C28.7033 36.9284 26.9286 36.1528 24.823 36.1528C21.0931 36.1528 18.5062 37.3758 17.0623 39.8218L3.70681 34.0051L3.07513 34.1841V33.7367L3.16537 33.5577L6.41401 0H47.6538V16.0182H21.6646L21.1232 21.298C23.2288 20.9997 25.1238 20.8505 26.8083 20.8505Z" fill="white"/>
<path d="M6.36193 78.5343C7.50497 78.5791 8.52017 78.8475 9.40753 79.3397C10.2949 79.8319 10.9867 80.5031 11.4831 81.3532C11.9794 82.1884 12.2275 83.1355 12.2275 84.1944C12.2275 85.313 11.9719 86.2974 11.4605 87.1475C10.9642 87.9976 10.2723 88.6613 9.38497 89.1386C8.49761 89.6009 7.48993 89.8321 6.36193 89.8321C5.17377 89.8321 4.10593 89.5711 3.1584 89.0491C2.22592 88.5271 1.48896 87.8261 0.947521 86.9461C0.406081 86.0513 0.0977602 85.0818 0.02256 84.0378L0 83.747V83.6799C0 83.4412 0.00752001 83.2697 0.02256 83.1653C0.1128 81.122 0.676801 79.3024 1.71456 77.7066C2.76736 76.0958 4.11345 74.8504 5.75281 73.9705C7.40721 73.0905 9.14433 72.6506 10.9642 72.6506C11.265 72.6506 11.4906 72.658 11.641 72.6729V76.3643L11.0093 76.5209C10.152 76.6998 9.33233 76.931 8.55025 77.2144C7.78321 77.4978 7.05377 77.9378 6.36193 78.5343ZM6.15889 86.0736C6.67025 86.0736 7.11393 85.8798 7.48993 85.492C7.88097 85.0893 8.07649 84.612 8.07649 84.0602C8.07649 83.568 7.88849 83.1355 7.51249 82.7626C7.13649 82.3748 6.64769 82.1809 6.04609 82.1809C5.51969 82.1809 5.06849 82.3375 4.69249 82.6507C4.31649 82.949 4.11345 83.3517 4.08337 83.8588V84.0154C4.09841 84.6269 4.32401 85.1266 4.76017 85.5143C5.19633 85.8872 5.66257 86.0736 6.15889 86.0736Z" fill="white"/>
<path d="M24.945 77.5947L21.5385 88.982C20.9519 90.906 20.1322 92.3899 19.0794 93.434C18.0266 94.478 16.7934 95 15.3796 95C14.778 95 14.1313 94.903 13.4394 94.7092C12.7626 94.5302 12.131 94.2766 11.5444 93.9485L12.5596 89.9216C12.6498 90.1751 12.9732 90.4138 13.5297 90.6375C14.1012 90.8761 14.6426 90.9954 15.154 90.9954C15.4999 90.9954 15.8158 90.8836 16.1015 90.6599C16.3873 90.4511 16.6204 90.1528 16.8009 89.765L11.7926 77.9303L16.6204 77.7737L18.6282 83.1653L20.0721 77.7961L24.945 77.5947Z" fill="white"/>
<path d="M35.0521 90.2348L31.3974 85.7381L30.5853 86.4987V89.6531H26.9305V77.8184H30.5853V80.9058L34.4881 77.4829L37.3984 80.1451L34.2625 83.0534L38.0978 87.5502L35.0521 90.2348Z" fill="white"/>
<path d="M46.9094 83.0758C47.3906 83.0758 47.8268 83.21 48.2178 83.4785C48.6239 83.747 48.9398 84.1198 49.1654 84.5971C49.406 85.0595 49.5263 85.5814 49.5263 86.1631C49.5263 87.3563 48.9473 88.2512 47.7892 88.8477C46.6462 89.4294 44.894 89.7202 42.5327 89.7202H39.9383L40.006 78.512C41.4799 77.8706 42.9463 77.55 44.4052 77.55C45.5332 77.55 46.4882 77.7886 47.2703 78.2659C48.0674 78.7431 48.466 79.459 48.466 80.4136C48.466 81.1295 48.293 81.7261 47.9471 82.2033C47.6012 82.6806 47.1425 82.9789 46.571 83.0982C46.6462 83.0833 46.759 83.0758 46.9094 83.0758ZM45.285 80.9281C45.285 80.6746 45.1647 80.4658 44.9241 80.3017C44.6834 80.1227 44.3751 80.0332 43.9991 80.0332C43.8186 80.0332 43.578 80.0929 43.2772 80.2122V81.9572C43.3674 81.9871 43.4502 82.002 43.5254 82.002C44.0066 81.9871 44.4202 81.8826 44.7662 81.6888C45.1121 81.48 45.285 81.2264 45.285 80.9281ZM43.9314 86.9685C44.4729 86.9685 44.9241 86.8492 45.285 86.6106C45.661 86.357 45.849 86.0513 45.849 85.6933C45.849 85.3652 45.6986 85.1117 45.3978 84.9327C45.097 84.7537 44.721 84.6642 44.2698 84.6642C43.9239 84.6642 43.593 84.7537 43.2772 84.9327V86.8567C43.4727 86.9312 43.6908 86.9685 43.9314 86.9685Z" fill="white"/>
</g>
<defs>
<filter id="filter0_d_105_2478" x="0" y="0" width="50" height="96.6667" filterUnits="userSpaceOnUse" color-interpolation-filters="sRGB">
<feFlood flood-opacity="0" result="BackgroundImageFix"/>
<feColorMatrix in="SourceAlpha" type="matrix" values="0 0 0 0 0 0 0 0 0 0 0 0 0 0 0 0 0 0 127 0" result="hardAlpha"/>
<feOffset dy="1.66667"/>
<feComposite in2="hardAlpha" operator="out"/>
<feColorMatrix type="matrix" values="0 0 0 0 0.0235294 0 0 0 0 0.713726 0 0 0 0 0.831373 0 0 0 1 0"/>
<feBlend mode="normal" in2="BackgroundImageFix" result="effect1_dropShadow_105_2478"/>
<feBlend mode="normal" in="SourceGraphic" in2="effect1_dropShadow_105_2478" result="shape"/>
</filter>
</defs>
</svg>
