<svg width="120" height="239" viewBox="0 0 120 239" fill="none" xmlns="http://www.w3.org/2000/svg">
<g filter="url(#filter0_d_105_2477)">
<path d="M64.3399 51.5776C74.8799 51.5776 84.3371 53.9388 92.7114 58.6612C101.23 63.3836 107.872 70.0245 112.636 78.5839C117.545 87.1433 120 96.9571 120 108.025C120 119.536 117.401 130.088 112.203 139.68C107.005 149.273 100.003 156.873 91.1953 162.481C82.3879 168.088 72.7142 170.892 62.1741 170.892C51.3453 170.892 40.5165 167.867 29.6877 161.816C18.8588 155.618 9.97922 147.133 3.04878 136.36L39.0005 114.887C40.7331 118.577 43.4764 121.602 47.2303 123.963C50.9843 126.325 54.8827 127.505 58.9255 127.505C64.5565 127.505 69.1046 125.808 72.5698 122.414C76.035 118.872 77.7676 114.223 77.7676 108.468C77.7676 103.303 75.9628 98.8755 72.3532 95.1862C68.888 91.3492 64.6286 89.4307 59.5752 89.4307C50.6234 89.4307 44.4149 92.456 40.9496 98.5066L8.89634 84.118L7.3803 84.5607V83.4539L7.59688 83.0112L15.3936 0H114.369V39.624H51.995L50.6956 52.6844C55.749 51.9466 60.2971 51.5776 64.3399 51.5776Z" fill="white"/>
<path d="M15.2686 194.269C18.0119 194.38 20.4484 195.044 22.5781 196.261C24.7077 197.479 26.3682 199.139 27.5593 201.242C28.7505 203.308 29.3461 205.651 29.3461 208.27C29.3461 211.037 28.7325 213.472 27.5052 215.575C26.314 217.678 24.6536 219.32 22.5239 220.501C20.3943 221.644 17.9758 222.216 15.2686 222.216C12.417 222.216 9.85422 221.571 7.58017 220.279C5.34222 218.988 3.57351 217.254 2.27405 215.077C0.974593 212.864 0.234624 210.466 0.0541441 207.883L0 207.164V206.998C0 206.407 0.018048 205.983 0.0541441 205.725C0.27072 200.67 1.62432 196.169 4.11495 192.222C6.64167 188.237 9.87227 185.156 13.8067 182.98C17.7773 180.803 21.9464 179.715 26.314 179.715C27.0359 179.715 27.5774 179.733 27.9383 179.77V188.901L26.4223 189.288C24.3648 189.731 22.3976 190.303 20.5206 191.004C18.6797 191.705 16.929 192.793 15.2686 194.269ZM14.7813 212.919C16.0086 212.919 17.0734 212.439 17.9758 211.48C18.9143 210.484 19.3836 209.303 19.3836 207.938C19.3836 206.721 18.9324 205.651 18.03 204.729C17.1276 203.769 15.9545 203.29 14.5106 203.29C13.2473 203.29 12.1644 203.677 11.262 204.452C10.3596 205.19 9.87227 206.186 9.80008 207.44V207.828C9.83617 209.34 10.3776 210.576 11.4244 211.535C12.4712 212.458 13.5902 212.919 14.7813 212.919Z" fill="white"/>
<path d="M59.8681 191.945L51.6924 220.113C50.2846 224.873 48.3174 228.544 45.7907 231.126C43.2639 233.709 40.3041 235 36.911 235C35.4672 235 33.9151 234.76 32.2546 234.281C30.6303 233.838 29.1143 233.211 27.7065 232.399L30.143 222.438C30.3596 223.065 31.1357 223.655 32.4712 224.208C33.8429 224.799 35.1423 225.094 36.3696 225.094C37.1998 225.094 37.9578 224.817 38.6436 224.264C39.3295 223.747 39.889 223.009 40.3221 222.05L28.3021 192.775L39.889 192.388L44.7078 205.725L48.173 192.443L59.8681 191.945Z" fill="white"/>
<path d="M84.1252 223.212L75.3538 212.089L73.4046 213.97V221.774H64.6333V192.498H73.4046V200.135L82.7716 191.668L89.7561 198.254L82.2301 205.448L91.4346 216.571L84.1252 223.212Z" fill="white"/>
<path d="M112.582 205.503C113.738 205.503 114.784 205.835 115.723 206.499C116.697 207.164 117.455 208.086 117.997 209.266C118.574 210.41 118.863 211.701 118.863 213.14C118.863 216.092 117.473 218.306 114.694 219.781C111.951 221.22 107.746 221.94 102.079 221.94H95.852L96.0144 194.214C99.5518 192.627 103.071 191.834 106.572 191.834C109.28 191.834 111.572 192.424 113.449 193.605C115.362 194.786 116.318 196.557 116.318 198.918C116.318 200.689 115.903 202.164 115.073 203.345C114.243 204.526 113.142 205.264 111.77 205.559C111.951 205.522 112.222 205.503 112.582 205.503ZM108.684 200.191C108.684 199.563 108.395 199.047 107.818 198.641C107.24 198.198 106.5 197.977 105.598 197.977C105.165 197.977 104.587 198.125 103.865 198.42V202.736C104.082 202.81 104.28 202.847 104.461 202.847C105.616 202.81 106.609 202.552 107.439 202.072C108.269 201.556 108.684 200.928 108.684 200.191ZM105.435 215.133C106.735 215.133 107.818 214.837 108.684 214.247C109.586 213.62 110.038 212.864 110.038 211.978C110.038 211.167 109.677 210.539 108.955 210.097C108.233 209.654 107.331 209.433 106.248 209.433C105.417 209.433 104.623 209.654 103.865 210.097V214.856C104.335 215.04 104.858 215.133 105.435 215.133Z" fill="white"/>
</g>
<defs>
<filter id="filter0_d_105_2477" x="0" y="0" width="120" height="239" filterUnits="userSpaceOnUse" color-interpolation-filters="sRGB">
<feFlood flood-opacity="0" result="BackgroundImageFix"/>
<feColorMatrix in="SourceAlpha" type="matrix" values="0 0 0 0 0 0 0 0 0 0 0 0 0 0 0 0 0 0 127 0" result="hardAlpha"/>
<feOffset dy="4"/>
<feComposite in2="hardAlpha" operator="out"/>
<feColorMatrix type="matrix" values="0 0 0 0 0.0235294 0 0 0 0 0.713726 0 0 0 0 0.831373 0 0 0 1 0"/>
<feBlend mode="normal" in2="BackgroundImageFix" result="effect1_dropShadow_105_2477"/>
<feBlend mode="normal" in="SourceGraphic" in2="effect1_dropShadow_105_2477" result="shape"/>
</filter>
</defs>
</svg>
